<?xml version="1.0" encoding="UTF-8" standalone="no"?>
<!-- Generator: Adobe Illustrator 16.0.0, SVG Export Plug-In . SVG Version: 6.00 Build 0)  -->

<svg
   xmlns:dc="http://purl.org/dc/elements/1.1/"
   xmlns:cc="http://creativecommons.org/ns#"
   xmlns:rdf="http://www.w3.org/1999/02/22-rdf-syntax-ns#"
   xmlns:svg="http://www.w3.org/2000/svg"
   xmlns="http://www.w3.org/2000/svg"
   xmlns:sodipodi="http://sodipodi.sourceforge.net/DTD/sodipodi-0.dtd"
   xmlns:inkscape="http://www.inkscape.org/namespaces/inkscape"
   version="1.1"
   id="Layer_1"
   x="0px"
   y="0px"
   width="767.65px"
   height="225.615px"
   viewBox="0 0 767.65 225.615"
   enable-background="new 0 0 767.65 225.615"
   xml:space="preserve"
   inkscape:version="0.48.4 r9943 custom"
   sodipodi:docname="scrumdayspl.svg"><metadata
   id="metadata3030"><rdf:RDF><cc:Work
       rdf:about=""><dc:format>image/svg+xml</dc:format><dc:type
         rdf:resource="http://purl.org/dc/dcmitype/StillImage" /></cc:Work></rdf:RDF></metadata><defs
   id="defs3028" /><sodipodi:namedview
   pagecolor="#ffffff"
   bordercolor="#666666"
   borderopacity="1"
   objecttolerance="10"
   gridtolerance="10"
   guidetolerance="10"
   inkscape:pageopacity="0"
   inkscape:pageshadow="2"
   inkscape:window-width="1186"
   inkscape:window-height="756"
   id="namedview3026"
   showgrid="false"
   inkscape:zoom="2.396489"
   inkscape:cx="319.98161"
   inkscape:cy="115.5198"
   inkscape:window-x="476"
   inkscape:window-y="103"
   inkscape:window-maximized="0"
   inkscape:current-layer="Layer_1" />

<path
   fill="#AEFF00"
   d="M86.442,43.872c11.933-2.104,28.793,2.264,32.4,15.84c2.217,8.344-2.29,16.971-1.44,25.2  c1.235,11.968,11.038,21.39,15.84,24.479c14.885,9.58,38.359,3.793,53.279,21.604c11.865,14.16,12.873,38.292-0.721,53.279  c-7.332,8.084-23.982,18.133-45.358,11.521c-13.001-4.023-22.982-16.896-30.96-20.16c-14.029-5.742-28.051-2.719-37.44,2.16  c-14.781,7.68-22.518,29.188-46.08,27.357c-11.298-0.877-18.397-6.99-22.32-15.117c-11.734-24.312,6.951-52.785,26.64-57.602  c4.61-1.128,13.076-1.771,19.44,0.72c8.271,3.24,14.192,18.97,25.2,23.041c21.424,7.93,43.432-11.312,43.2-30.959  c-0.153-12.938-8.379-21.896-18-24.479c-10.188-2.734-21.992,1.638-30.24-1.44c-8.918-3.326-15.687-11.438-14.4-25.198  C56.859,59.386,70.929,46.604,86.442,43.872z"
   id="path2988" />

<path
   fill="#AEFF00"
   d="M36.041,94.992c18.988-4.208,13.513,21.005,1.44,23.037C18.999,121.147,23.686,97.729,36.041,94.992z"
   id="path2992" />

<path
   fill="#AEFF00"
   d="M253.482,159.793c15.873-4.008,39.098,11.15,32.398,29.52c-7.639,20.947-49.832,8.318-44.639-18  C242.025,167.344,246.667,161.511,253.482,159.793z"
   id="path2996" />





<path
   fill="#AEFF00"
   d="M349.172,225.615c-11.4,0-22.95-0.75-27.3-1.5c-1.951-0.303-3.15-1.5-3.15-3.75V117.317  c0-2.1,1.199-3.446,3.15-3.748c4.35-0.75,15.897-1.5,27.3-1.5c27.747,0,45.447,14.248,45.447,46.647v20.25  C394.619,211.065,376.919,225.615,349.172,225.615z M380.971,158.717c0-27.148-13.801-34.947-31.799-34.947  c-7.051,0-11.699,0.15-16.65,0.449v89.396c4.801,0.301,9.6,0.301,16.65,0.301c17.998,0,31.799-7.951,31.799-34.949V158.717z"
   id="path3008" />
<path
   fill="#AEFF00"
   d="M483.719,224.563h-8.853c-1.35,0-2.247-1.049-2.548-2.25l-9.75-34.498h-38.852l-9.6,34.498  c-0.3,1.201-1.5,2.25-2.7,2.25h-8.85c-1.5,0-2.55-1.049-2.55-2.396c0-0.302,0-0.75,0.147-1.052l27.749-97.646  c2.55-9.148,9.602-11.398,15.299-11.398c5.554,0,12.603,2.103,15.15,11.248l27.747,97.796c0.147,0.305,0.147,0.75,0.147,1.055  C486.267,223.515,485.366,224.563,483.719,224.563z M446.068,126.619c-0.449-1.65-1.353-2.699-2.853-2.699  c-1.646,0-2.549,1.049-3,2.699l-13.646,49.347h33.146L446.068,126.619z"
   id="path3010" />
<path
   fill="#AEFF00"
   d="M553.406,116.869l-23.25,52.195c-2.699,6-5.398,8.701-8.1,9.9v42.598c0,1.5-1.199,3-2.699,3h-8.25  c-1.5,0-2.7-1.5-2.7-3v-42.598c-2.7-1.051-5.399-3.9-8.1-9.9l-23.103-52.195c-0.301-0.603-0.447-1.199-0.447-1.65  c0-1.199,1.05-2.1,2.55-2.1h9.147c1.05,0,2.25,1.051,2.699,2.1l20.7,48.599c1.5,3.449,2.55,3.898,3.448,3.898  c1.052,0,1.949-0.449,3.449-3.898l20.853-48.599c0.446-1.049,1.35-2.1,2.549-2.1h9.15c1.5,0,2.549,0.897,2.549,2.1  C553.855,115.67,553.704,116.269,553.406,116.869z"
   id="path3012" />
<path
   fill="#AEFF00"
   d="M589.406,225.615c-10.499,0-18.299-1.053-24.898-2.102c-2.55-0.451-2.851-1.051-2.851-2.701v-6  c0-1.646,1.2-2.396,2.55-2.396c0.15,0,0.301,0,0.45,0c6.9,0.6,17.851,0.896,24.749,0.896c18,0,22.798-7.197,22.798-17.697  c0-7.498-4.349-11.699-17.997-20.1l-14.55-8.85c-13.8-8.4-20.699-16.051-20.699-28.049c0-18.151,13.05-26.552,35.852-26.552  c8.85,0,20.396,0.898,26.1,1.802c1.5,0.301,2.548,1.051,2.548,2.551v6.449c0,1.5-1.048,2.397-2.548,2.397c-0.15,0-0.15,0-0.301,0  c-6.603-0.451-17.103-0.897-25.802-0.897c-15.446,0-22.049,3.299-22.049,14.25c0,7.049,4.949,11.247,16.353,18.146l13.799,8.25  c17.397,10.353,23.548,18.603,23.548,30.598C626.454,210.015,618.954,225.615,589.406,225.615z"
   id="path3014" />
<g
   id="g3050"
   style="fill:#142e5e;fill-opacity:1"><path
     style="fill:#142e5e;fill-opacity:1"
     id="path2990"
     d="M257.8,58.992c6.66-3.189,17.1,3.846,13.713,11.856C267.173,81.125,245.618,64.826,257.8,58.992z"
     fill="#FFFFFF" /><g
     style="fill:#142e5e;fill-opacity:1"
     id="g3036"><path
       style="fill:#142e5e;fill-opacity:1"
       fill="#FFFFFF"
       d="M220.361,16.512c11.191-0.253,34.109,12.902,26.641,30.96c-7.758,18.753-27.385,1.646-41.041,5.04  c-21.604,5.371-12.547,39.673,12.24,38.16c7.17-0.438,10.947-8.271,21.416-9.133c32.287-2.66,39.346,43.019,13.145,49.453  c-3.432,0.843-10.727,0.707-16.561-2.16c-7.012-3.446-13.875-14.793-18.719-23.04c-4.547-7.74-17.168-10.772-29.521-9.36  c-5.799,0.663-11.223,4.21-16.559,5.04c-19.357,3.011-43.941-10.906-38.16-33.84c2.956-11.729,15.663-18.419,27.36-18.72  c7.031-0.184,14.343,2.872,21.599,2.16c7.479-0.734,16.15-4.871,19.441-11.521c2.514-5.083-0.918-9.641,4.318-17.28  C208.783,18.158,214.501,16.645,220.361,16.512z"
       id="path2986" /><path
       style="fill:#142e5e;fill-opacity:1"
       fill="#FFFFFF"
       d="M211.72,135.312c16.355-5.574,29.557,20.585,14.4,23.759c-6.648,1.395-18.76-3.939-20.16-12.238  C205.142,141.97,205.546,137.418,211.72,135.312z"
       id="path2994" /><path
       style="fill:#142e5e;fill-opacity:1"
       fill="#FFFFFF"
       d="M343.158,97.467c-9.014,0-15.708-0.902-21.373-1.803c-2.189-0.39-2.446-0.902-2.446-2.318v-5.15  c0-1.416,1.03-2.059,2.188-2.059c0.129,0,0.258,0,0.387,0c5.922,0.514,15.321,0.771,21.244,0.771c15.45,0,19.57-6.183,19.57-15.193  c0-6.438-3.733-10.043-15.45-17.252l-12.489-7.598c-11.845-7.212-17.768-13.775-17.768-24.076C317.021,7.209,328.223,0,347.793,0  c7.596,0,17.51,0.771,22.403,1.545c1.288,0.258,2.188,0.899,2.188,2.188v5.534c0,1.287-0.899,2.062-2.188,2.062  c-0.128,0-0.128,0-0.257,0c-5.666-0.387-14.681-0.772-22.146-0.772c-13.262,0-18.927,2.834-18.927,12.232  c0,6.051,4.249,9.653,14.034,15.58l11.845,7.08c14.937,8.885,20.214,15.967,20.214,26.266  C374.96,84.076,368.521,97.467,343.158,97.467z"
       id="path2998" /><path
       style="fill:#142e5e;fill-opacity:1"
       fill="#FFFFFF"
       d="M424.92,96.051c-4.249,0.771-10.042,1.416-16.095,1.416c-17.51,0-27.423-12.361-27.423-31.287V56.137  c0-18.928,9.784-31.287,27.423-31.287c5.924,0,11.846,0.646,16.095,1.416c2.062,0.387,2.575,1.029,2.575,2.832v4.635  c0,1.289-1.029,1.935-2.188,1.935c-0.261,0-0.39,0-0.519,0c-5.664-0.646-9.656-0.9-15.966-0.9c-10.3,0-16.093,6.824-16.093,21.373  v10.043c0,14.42,5.664,21.373,16.093,21.373c6.31,0,10.302-0.258,15.966-0.902c0.129,0,0.258,0,0.519,0  c1.156,0,2.188,0.646,2.188,1.935v4.635C427.495,94.89,426.979,95.664,424.92,96.051z"
       id="path3000" /><path
       style="fill:#142e5e;fill-opacity:1"
       fill="#FFFFFF"
       d="M464.576,34.635c-5.923,0-11.33,1.545-17.77,5.408v53.944c0,1.287-1.157,2.574-2.573,2.574h-6.312  c-1.288,0-2.443-1.158-2.443-2.574V28.326c0-1.416,1.026-2.576,2.443-2.576h6.055c1.415,0,2.442,1.16,2.442,2.576v2.7  c6.439-4.506,12.36-6.18,18.154-6.18c1.803,0,2.705,0.771,2.705,2.316v5.276C467.281,33.86,466.379,34.635,464.576,34.635z"
       id="path3002" /><path
       style="fill:#142e5e;fill-opacity:1"
       fill="#FFFFFF"
       d="M524.833,96.563h-6.438c-1.415,0-2.444-1.158-2.444-2.574v-2.444c-7.082,3.992-12.877,5.924-20.473,5.924  c-15.451,0-22.402-9.656-22.402-26.781V28.331c0-1.416,1.158-2.576,2.573-2.576h6.181c1.416,0,2.576,1.16,2.576,2.576v42.356  c0,13.004,4.376,16.996,14.162,16.996c5.408,0,11.459-2.061,17.383-5.021V28.329c0-1.289,1.158-2.576,2.573-2.576h6.309  c1.288,0,2.448,1.16,2.448,2.576V93.99C527.281,95.405,526.25,96.563,524.833,96.563z"
       id="path3004" /><path
       style="fill:#142e5e;fill-opacity:1"
       fill="#FFFFFF"
       d="M621.014,96.563h-6.184c-1.415,0-2.573-1.158-2.573-2.574V48.412c0-10.814-5.021-13.775-11.719-13.775  c-4.635,0-10.043,1.545-15.062,3.477c0.771,2.832,1.157,6.183,1.157,10.043v45.838c0,1.285-0.899,2.572-2.315,2.572h-6.824  c-1.287,0-2.188-1.156-2.188-2.572V48.156c0-11.2-3.223-13.52-9.915-13.52c-4.639,0-10.304,2.316-15.709,5.021v54.336  c0,1.284-0.9,2.571-2.316,2.571h-6.823c-1.287,0-2.188-1.157-2.188-2.571V28.33c0-1.416,1.027-2.576,2.445-2.576h6.438  c1.416,0,2.445,1.16,2.445,2.576v2.442c5.147-3.219,11.717-6.051,18.8-6.051c5.535,0,9.655,1.545,12.875,5.279  c7.082-3.351,14.678-5.279,21.373-5.279c11.588,0,20.856,5.793,20.856,23.689v45.577C623.59,95.405,622.43,96.563,621.014,96.563z"
       id="path3006" /><g
       style="fill:#142e5e;fill-opacity:1"
       id="g3016">
	<path
   style="fill:#142e5e;fill-opacity:1"
   fill="#FFFFFF"
   d="M638.43,98.047V95.87l14.983-15.307c4.931-4.995,8.261-8.965,8.261-14.601   c0-6.468-4.099-8.646-10.565-8.646c-4.418,0-12.038,1.665-12.038,1.665l-0.321-2.178c0,0,7.109-1.665,12.424-1.665   c7.749,0,12.937,2.818,12.937,10.822c0,6.853-4.162,11.335-8.197,15.369l-14.344,14.473h23.886v2.241H638.43V98.047z"
   id="path3018" />
	<path
   style="fill:#142e5e;fill-opacity:1"
   fill="#FFFFFF"
   d="M700.415,77.939c0,16.329-6.084,20.685-14.537,20.685c-8.452,0-14.601-4.354-14.601-20.812   c0-18.314,5.956-22.67,14.537-22.67C694.779,55.142,700.415,59.624,700.415,77.939z M673.711,77.939   c0,15.112,4.867,18.507,12.167,18.507c7.302,0,12.104-3.395,12.104-18.635c0-16.394-4.228-20.492-12.167-20.492   C678.065,57.319,673.711,61.226,673.711,77.939z"
   id="path3020" />
	<path
   style="fill:#142e5e;fill-opacity:1"
   fill="#FFFFFF"
   d="M721.673,55.781h2.306v42.266h-2.306V58.279l-11.782,8.068l-1.09-1.856L721.673,55.781z"
   id="path3022" />
	<path
   style="fill:#142e5e;fill-opacity:1"
   fill="#FFFFFF"
   d="M765.664,55.781v2.241h-21.26l-1.153,16.906c0,0,5.956-3.267,11.271-3.267   c7.363,0,13.128,3.138,13.128,12.296c0,9.86-5.828,14.536-13.77,14.536c-5.763,0-13.19-1.537-13.19-1.537l0.319-2.178   c0,0,7.302,1.536,12.809,1.536c6.468,0,11.397-4.227,11.397-12.357c0-7.877-4.995-10.118-10.759-10.118   c-5.313,0-11.27,3.521-11.27,3.521l-2.179-0.256l1.218-21.324L765.664,55.781L765.664,55.781z"
   id="path3024" />
</g></g></g>
</svg>