<?xml version="1.0" encoding="UTF-8"?>
<!DOCTYPE svg PUBLIC "-//W3C//DTD SVG 1.1//EN" "http://www.w3.org/Graphics/SVG/1.1/DTD/svg11.dtd">
<!-- Creator: CorelDRAW -->
<svg xmlns="http://www.w3.org/2000/svg" xml:space="preserve" width="210mm" height="297mm" style="shape-rendering:geometricPrecision; text-rendering:geometricPrecision; image-rendering:optimizeQuality; fill-rule:evenodd; clip-rule:evenodd"
viewBox="0 0 210 297"
 xmlns:xlink="http://www.w3.org/1999/xlink">
 <defs>
  <style type="text/css">
   <![CDATA[
    .fil4 {fill:#AAA9A9}
    .fil3 {fill:white}
    .fil1 {fill:#969594}
    .fil2 {fill:white}
    .fil0 {fill:#1A472B}
   ]]>
  </style>
 </defs>
 <g id="Warstwa_x0020_1">
  <metadata id="CorelCorpID_0Corel-Layer"/>
  <polygon class="fil0" points="10.6337,9.3633 97.546,9.3633 97.546,31.0454 10.6337,31.0454 "/>
  <polygon class="fil1" points="10.6337,32.4703 97.546,32.4703 97.546,38.5975 10.6337,38.5975 "/>
  <path class="fil2" d="M17.1897 36.1728c0,0.2568 -0.1002,0.4657 -0.3006,0.6265 -0.2089,0.1665 -0.4883,0.2498 -0.8382,0.2498 -0.2822,0 -0.5757,-0.0508 -0.8805,-0.1524l0.11 -0.5715c0.3189,0.0931 0.5616,0.1397 0.7282,0.1397 0.2201,0 0.3302,-0.072 0.3302,-0.2159 0,-0.1101 -0.0791,-0.2145 -0.2371,-0.3133 -0.1242,-0.0649 -0.2498,-0.1298 -0.3768,-0.1947 -0.3499,-0.1947 -0.5249,-0.4657 -0.5249,-0.8128 0,-0.2822 0.1009,-0.5024 0.3027,-0.6604 0.2018,-0.1581 0.4917,-0.2371 0.8699,-0.2371 0.2343,0 0.501,0.0466 0.8001,0.1397l-0.11 0.5461c-0.2399,-0.0734 -0.4699,-0.11 -0.6901,-0.11 -0.1298,0 -0.2314,0.0232 -0.3048,0.0698 -0.0734,0.0466 -0.11,0.1037 -0.11,0.1715 0,0.079 0.0522,0.1495 0.1566,0.2116 0.1298,0.0621 0.261,0.1256 0.3937,0.1905 0.2371,0.1186 0.4099,0.2498 0.5186,0.3937 0.1086,0.144 0.163,0.3203 0.163,0.5292z"/>
  <path class="fil2" d="M21.1309 34.0731l-1.0329 1.7018 -0.0254 1.2192 -0.7663 0 0.017 -1.215 -1.016 -1.706 0.8424 0 0.4149 0.8212c0.0197,0.0424 0.0677,0.1694 0.1439,0.381 0.0818,-0.1834 0.1411,-0.3076 0.1778,-0.3725l0.4614 -0.8297 0.7832 0z"/>
  <path class="fil2" d="M24.1057 36.1728c0,0.2568 -0.1002,0.4657 -0.3005,0.6265 -0.2089,0.1665 -0.4883,0.2498 -0.8382,0.2498 -0.2823,0 -0.5758,-0.0508 -0.8806,-0.1524l0.1101 -0.5715c0.3189,0.0931 0.5616,0.1397 0.7281,0.1397 0.2202,0 0.3302,-0.072 0.3302,-0.2159 0,-0.1101 -0.079,-0.2145 -0.237,-0.3133 -0.1242,-0.0649 -0.2498,-0.1298 -0.3768,-0.1947 -0.35,-0.1947 -0.5249,-0.4657 -0.5249,-0.8128 0,-0.2822 0.1009,-0.5024 0.3026,-0.6604 0.2018,-0.1581 0.4918,-0.2371 0.87,-0.2371 0.2342,0 0.5009,0.0466 0.8001,0.1397l-0.1101 0.5461c-0.2399,-0.0734 -0.4699,-0.11 -0.69,-0.11 -0.1298,0 -0.2314,0.0232 -0.3048,0.0698 -0.0734,0.0466 -0.1101,0.1037 -0.1101,0.1715 0,0.079 0.0522,0.1495 0.1567,0.2116 0.1298,0.0621 0.261,0.1256 0.3937,0.1905 0.237,0.1186 0.4099,0.2498 0.5185,0.3937 0.1087,0.144 0.163,0.3203 0.163,0.5292z"/>
  <polygon class="fil2" points="27.8056,34.0731 27.7972,34.7165 26.9209,34.7165 26.8828,36.9941 26.1208,36.9941 26.1589,34.7165 25.2868,34.7165 25.2953,34.0731 "/>
  <polygon class="fil2" points="31.1235,34.0731 31.1193,34.6403 29.8281,34.6403 29.8196,35.2203 31.0939,35.2203 31.0854,35.7876 29.8069,35.7876 29.7985,36.4141 31.1023,36.4141 31.0939,36.9941 29.0365,36.9941 29.0873,34.0731 "/>
  <path class="fil2" d="M36.2042 36.9941l-0.7154 0 -0.1905 -1.7315c-0.0113,-0.1016 -0.0268,-0.2991 -0.0466,-0.5926 -0.048,0.2681 -0.0903,0.4713 -0.127,0.6096l-0.4487 1.7145 -0.8425 0 -0.3937 -1.7145c-0.0141,-0.0593 -0.0508,-0.2597 -0.11,-0.6012 -0.0029,0.017 -0.0339,0.2385 -0.0932,0.6647l-0.2328 1.651 -0.707 0 0.5546 -2.921 0.9059 0 0.4064 1.7526c0.0226,0.1016 0.0579,0.2935 0.1059,0.5757 0.0479,-0.254 0.086,-0.4346 0.1143,-0.5419l0.4699 -1.7864 0.9017 0 0.4487 2.921z"/>
  <path class="fil2" d="M40.0543 34.0731l-1.033 1.7018 -0.0254 1.2192 -0.7662 0 0.0169 -1.215 -1.016 -1.706 0.8425 0 0.4148 0.8212c0.0198,0.0424 0.0678,0.1694 0.144,0.381 0.0818,-0.1834 0.1411,-0.3076 0.1778,-0.3725l0.4614 -0.8297 0.7832 0z"/>
  <polygon class="fil2" points="44.2541,34.0731 44.2033,36.9941 43.4498,36.9941 43.5006,34.0731 "/>
  <path class="fil2" d="M48.3283 34.0731l-0.017 2.921 -0.8932 0 -0.9017 -1.7865c-0.0649,-0.127 -0.1298,-0.2794 -0.1947,-0.4572 0.0112,0.285 0.0183,0.4784 0.0211,0.58l0.0339 1.6637 -0.6858 0 0.0254 -2.921 0.8763 0 0.8975 1.778c0.0846,0.1693 0.1538,0.3231 0.2074,0.4614 -0.0057,-0.0677 -0.0113,-0.2343 -0.0169,-0.4995l-0.0424 -1.7399 0.6901 0z"/>
  <polygon class="fil2" points="51.8709,34.0731 51.8625,34.6784 50.584,34.6784 50.5755,35.2499 51.8371,35.2499 51.8286,35.8384 50.5628,35.8384 50.5459,36.9941 49.7924,36.9941 49.8432,34.0731 "/>
  <path class="fil2" d="M56.1718 35.5505c0,0.2032 -0.0381,0.4 -0.1143,0.5905 -0.0761,0.1905 -0.1763,0.3493 -0.3005,0.4763 -0.2794,0.285 -0.6618,0.4276 -1.1472,0.4276 -0.429,0 -0.7762,-0.127 -1.0415,-0.381 -0.2991,-0.2879 -0.4486,-0.6604 -0.4486,-1.1176 0,-0.4544 0.141,-0.822 0.4232,-1.1028 0.2823,-0.2808 0.6534,-0.4212 1.1134,-0.4212 0.4741,0 0.8453,0.1411 1.1134,0.4233 0.2681,0.2822 0.4021,0.6505 0.4021,1.1049zm-0.7873 -0.0127c0,-0.2766 -0.0664,-0.4932 -0.199,-0.6498 -0.1327,-0.1567 -0.3118,-0.235 -0.5377,-0.235 -0.2314,0 -0.4127,0.0783 -0.5439,0.235 -0.1312,0.1566 -0.1969,0.376 -0.1969,0.6583 0,0.2737 0.0657,0.4868 0.1969,0.6392 0.1312,0.1524 0.3111,0.2286 0.5397,0.2286 0.2315,0 0.4128,-0.0769 0.544,-0.2307 0.1312,-0.1538 0.1969,-0.369 0.1969,-0.6456z"/>
  <path class="fil2" d="M60.0784 36.9941l-0.8297 0 -0.4191 -0.8255c-0.048,-0.0932 -0.0988,-0.1574 -0.1524,-0.1927 -0.0537,-0.0352 -0.1284,-0.0529 -0.2244,-0.0529l-0.1482 0 -0.0169 1.0711 -0.7578 0 0.0424 -2.921 1.1091 0c0.7564,0 1.1345,0.2695 1.1345,0.8085 0,0.4403 -0.2187,0.7013 -0.6561,0.7832 0.1749,0.0621 0.3231,0.2074 0.4445,0.436l0.4741 0.8933zm-0.9906 -1.9982c0,-0.2624 -0.1453,-0.3937 -0.436,-0.3937l-0.3345 0 -0.0127 0.7917 0.3091 0c0.3161,0 0.4741,-0.1327 0.4741,-0.398z"/>
  <path class="fil2" d="M65.0293 36.9941l-0.7154 0 -0.1905 -1.7315c-0.0113,-0.1016 -0.0268,-0.2991 -0.0466,-0.5926 -0.048,0.2681 -0.0903,0.4713 -0.127,0.6096l-0.4487 1.7145 -0.8424 0 -0.3937 -1.7145c-0.0142,-0.0593 -0.0508,-0.2597 -0.1101,-0.6012 -0.0028,0.017 -0.0339,0.2385 -0.0931,0.6647l-0.2329 1.651 -0.7069 0 0.5545 -2.921 0.906 0 0.4064 1.7526c0.0225,0.1016 0.0578,0.2935 0.1058,0.5757 0.048,-0.254 0.0861,-0.4346 0.1143,-0.5419l0.4699 -1.7864 0.9017 0 0.4487 2.921z"/>
  <path class="fil2" d="M69.2265 36.9941l-0.8085 0 -0.2329 -0.6816 -1.0668 0 -0.2497 0.6816 -0.8171 0 1.1684 -2.921 0.9271 0 1.0795 2.921zm-1.198 -1.2489l-0.2582 -0.7888c-0.0029,-0.0112 -0.0339,-0.1265 -0.0932,-0.3459l-0.0127 -0.0506 -0.1143 0.4049 -0.2667 0.7804 0.7451 0z"/>
  <polygon class="fil2" points="72.5786,34.0731 72.5702,34.7165 71.6939,34.7165 71.6558,36.9941 70.8938,36.9941 70.9319,34.7165 70.0598,34.7165 70.0683,34.0731 "/>
  <path class="fil2" d="M76.3621 34.0731l-1.0329 1.7018 -0.0254 1.2192 -0.7662 0 0.0169 -1.215 -1.016 -1.706 0.8424 0 0.4149 0.8212c0.0198,0.0424 0.0677,0.1694 0.1439,0.381 0.0819,-0.1834 0.1411,-0.3076 0.1778,-0.3725l0.4615 -0.8297 0.7831 0z"/>
  <path class="fil2" d="M79.7179 34.1493l-0.1354 0.6265c-0.2032,-0.0677 -0.3937,-0.1016 -0.5715,-0.1016 -0.2823,0 -0.508,0.0804 -0.6774,0.2413 -0.1693,0.1609 -0.254,0.3697 -0.254,0.6265 0,0.2456 0.0819,0.4445 0.2456,0.5969 0.1637,0.1524 0.3796,0.2286 0.6477,0.2286 0.1665,0 0.3669,-0.0367 0.6011,-0.11l0.1185 0.6223c-0.3556,0.1072 -0.6604,0.1608 -0.9144,0.1608 -0.4572,0 -0.8234,-0.139 -1.0985,-0.417 -0.2752,-0.278 -0.4128,-0.6455 -0.4128,-1.1027 0,-0.446 0.1461,-0.8072 0.4382,-1.0838 0.2921,-0.2766 0.6794,-0.4148 1.162,-0.4148 0.254,0 0.5377,0.0423 0.8509,0.127z"/>
  <polygon class="fil2" points="83.2034,34.5641 81.7979,36.3591 83.1229,36.3591 83.1187,36.9941 80.9893,36.9941 80.837,36.4691 82.2551,34.6996 80.9216,34.6996 80.9216,34.0731 83.0467,34.0731 "/>
  <path class="fil2" d="M87.1258 34.0731l-0.0169 2.921 -0.8932 0 -0.9017 -1.7865c-0.0649,-0.127 -0.1298,-0.2794 -0.1948,-0.4572 0.0113,0.285 0.0184,0.4784 0.0212,0.58l0.0339 1.6637 -0.6858 0 0.0254 -2.921 0.8763 0 0.8974 1.778c0.0847,0.1693 0.1539,0.3231 0.2075,0.4614 -0.0057,-0.0677 -0.0113,-0.2343 -0.017,-0.4995l-0.0423 -1.7399 0.69 0z"/>
  <polygon class="fil2" points="90.677,34.0731 90.6727,34.6403 89.3816,34.6403 89.3731,35.2203 90.6473,35.2203 90.6389,35.7876 89.3604,35.7876 89.3519,36.4141 90.6558,36.4141 90.6473,36.9941 88.5899,36.9941 88.6407,34.0731 "/>
  <g id="_98603120">
   <polygon id="_98631760" class="fil3" points="23.8531,14.5296 23.5232,16.8451 28.6982,18.4996 29.059,16.3564 "/>
   <polygon id="_98631688" class="fil3" points="20.2946,16.7101 19.7588,18.9078 28.1045,21.7278 28.5361,19.5284 "/>
   <polygon id="_98631616" class="fil3" points="16.9728,19.1806 16.5078,21.3221 27.4709,25.1846 27.8684,22.9561 "/>
   <path id="_98631544" class="fil3" d="M28.4319 14.8858c0.0182,-0.8115 0.0364,-1.623 0.0546,-2.4345 1.1234,0.0171 2.2467,0.0342 3.3701,0.0513 4.9207,0.075 7.0246,3.3443 7.0045,6.8105 -0.05,2.2243 -0.659,3.0363 -3.0871,2.8465 0.9283,1.9909 1.8565,3.9818 2.7847,5.9727 -0.9494,-0.0145 -1.8989,-0.0289 -2.8483,-0.0434 -1.0629,-2.1839 -2.1258,-4.3678 -3.1887,-6.5517 0.0875,-0.8008 0.175,-1.6017 0.2625,-2.4025 1.3009,1.3854 3.2643,1.1192 3.3912,-0.9224 -0.069,-2.0829 -2.2428,-3.281 -4.443,-3.3049 -1.1002,-0.0072 -2.2004,-0.0144 -3.3005,-0.0216z"/>
   <polygon id="_98631472" class="fil3" points="30.087,15.4553 32.8639,15.5835 30.9798,26.7564 28.4364,25.5145 "/>
   <path id="_98631400" class="fil3" d="M69.4453 14.9428c0.0182,-0.8115 0.0364,-1.623 0.0547,-2.4345 1.1233,0.0171 2.2467,0.0342 3.3701,0.0513 4.9207,0.075 7.0245,3.3443 7.0044,6.8105 -0.05,2.2243 -0.6589,3.0363 -3.087,2.8465 0.9282,1.9909 1.8564,3.9818 2.7847,5.9727 -0.9495,-0.0145 -1.8989,-0.0289 -2.8484,-0.0434 -1.0629,-2.1839 -2.1258,-4.3678 -3.1887,-6.5517 0.0875,-0.8008 0.175,-1.6017 0.2625,-2.4025 1.3009,1.3854 3.2643,1.1192 3.3913,-0.9224 -0.0691,-2.0829 -2.2429,-3.281 -4.4431,-3.3049 -1.1001,-0.0072 -2.2003,-0.0144 -3.3005,-0.0216z"/>
   <polygon id="_98631328" class="fil3" points="71.1004,15.5123 73.8774,15.6405 71.9933,26.8134 69.4498,25.5715 "/>
   <polygon id="_98631256" class="fil3" points="39.9243,12.1958 39.8594,15.0885 41.0025,15.249 40.9529,17.4542 39.6672,17.4346 39.9598,19.9028 40.4127,19.9097 40.3477,22.8022 38.9565,22.7811 38.8999,25.3015 47.2215,27.6625 47.6622,25.0622 43.2771,23.8209 43.351,20.5274 47.2852,21.7332 47.336,19.4706 43.8174,18.3286 43.872,15.8943 48.2912,17.1648 48.3562,14.2721 "/>
   <path id="_98631184" class="fil3" d="M50.1934 12.9251c0.9052,0.4339 1.8105,0.8679 2.7158,1.3018 -0.1141,0.9533 -0.2281,1.9065 -0.3422,2.8597 1.6309,-0.9301 2.951,-1.951 4.0519,-4.0351 0.7667,0.4128 1.6718,0.8562 2.4386,1.269 -1.448,2.585 -3.2999,4.5908 -5.7642,6.0144 1.0425,1.0281 2.085,2.0562 3.1275,3.0844 0.387,0.3019 0.7515,0.0591 0.8774,-0.3878 0.3126,0.0048 0.6253,0.0096 0.9379,0.0143 0.8484,0.901 0.3602,2.5266 -0.0675,3.0071 -0.5027,0.7181 -1.579,0.6826 -2.1929,0.1671 -1.353,-1.1283 -2.706,-2.2566 -4.059,-3.385 -0.3,1.4947 -0.6707,3.0457 -1.1083,4.481 -0.6615,-0.4589 -1.323,-0.9178 -1.9845,-1.3767 0.107,-1.6695 0.214,-3.3391 0.321,-5.0086 -0.2018,-0.2991 -0.4036,-0.5982 -0.6053,-0.8973 0.3898,-0.3379 0.7796,-0.6757 1.1694,-1.0136 0.1615,-2.0315 0.3229,-4.0631 0.4844,-6.0947z"/>
   <path id="_98631112" class="fil3" d="M67.1845 16.0485c0.2727,-0.798 0.5454,-1.596 0.8182,-2.394 -3.0293,-0.2371 -6.6878,1.2351 -8.154,4.1159 -1.2663,3.2657 -1.1343,6.1517 0.5159,7.9721 2.0401,1.9983 4.4184,1.3087 6.3709,-0.5333 2.6433,-2.6909 2.1463,-6.3464 1.5772,-8.3414 -0.6756,0.1712 -1.3512,0.3423 -2.0269,0.5135 0.4801,2.3469 -0.4485,5.5319 -1.6744,6.4777 -1.5873,1.055 -3.3573,0.9612 -3.5945,-2.4038 -0.0167,-2.3495 1.5368,-4.9901 6.1676,-5.4067z"/>
   <path id="_98603144" class="fil3" d="M81.2235 12.5738c-0.0182,0.8107 -0.0364,1.6214 -0.0546,2.4321 6.789,0.1563 8.1645,2.8544 7.3363,5.167 -0.709,1.6105 -2.7853,3.6164 -4.9054,4.1174 0.2007,-2.5997 0.5178,-5.1976 0.7185,-7.7973 -0.7377,-0.0112 -1.5918,-0.0242 -2.3295,-0.0354 -0.3339,2.7896 -0.6678,5.5793 -1.0016,8.369 -0.4321,0.2281 -0.9411,0.423 -1.4084,0.4906 0.3445,0.7946 0.6889,1.5892 1.0333,2.3838 3.9809,-0.3981 10.4581,-3.0623 11.0439,-7.8322 0.3034,-4.8702 -2.9815,-7.235 -8.4536,-7.2649 -0.6596,-0.0101 -1.3192,-0.0201 -1.9789,-0.0301z"/>
  </g>
  <polygon class="fil4" points="10.1855,70.6562 97.7191,70.6562 97.7191,69.7802 10.1855,69.7802 "/>
  <path class="fil4" d="M17.3628 74.9076c0,0.2568 -0.1002,0.4657 -0.3006,0.6265 -0.2089,0.1665 -0.4883,0.2498 -0.8382,0.2498 -0.2822,0 -0.5757,-0.0508 -0.8805,-0.1524l0.11 -0.5715c0.3189,0.0931 0.5616,0.1397 0.7282,0.1397 0.2201,0 0.3302,-0.072 0.3302,-0.2159 0,-0.1101 -0.0791,-0.2145 -0.2371,-0.3133 -0.1242,-0.0649 -0.2498,-0.1298 -0.3768,-0.1947 -0.3499,-0.1947 -0.5249,-0.4657 -0.5249,-0.8128 0,-0.2822 0.1009,-0.5024 0.3027,-0.6604 0.2018,-0.1581 0.4917,-0.2371 0.8699,-0.2371 0.2343,0 0.501,0.0466 0.8001,0.1397l-0.11 0.5461c-0.2399,-0.0734 -0.4699,-0.11 -0.6901,-0.11 -0.1298,0 -0.2314,0.0232 -0.3048,0.0698 -0.0734,0.0466 -0.11,0.1037 -0.11,0.1715 0,0.079 0.0522,0.1495 0.1566,0.2116 0.1298,0.0621 0.261,0.1256 0.3937,0.1905 0.2371,0.1186 0.4099,0.2498 0.5186,0.3937 0.1086,0.144 0.163,0.3203 0.163,0.5292z"/>
  <path class="fil4" d="M21.304 72.8079l-1.0329 1.7018 -0.0254 1.2192 -0.7663 0 0.017 -1.215 -1.016 -1.706 0.8424 0 0.4149 0.8212c0.0197,0.0424 0.0677,0.1694 0.1439,0.381 0.0818,-0.1834 0.1411,-0.3076 0.1778,-0.3725l0.4614 -0.8297 0.7832 0z"/>
  <path class="fil4" d="M24.2788 74.9076c0,0.2568 -0.1002,0.4657 -0.3005,0.6265 -0.2089,0.1665 -0.4883,0.2498 -0.8382,0.2498 -0.2823,0 -0.5758,-0.0508 -0.8806,-0.1524l0.1101 -0.5715c0.3189,0.0931 0.5616,0.1397 0.7281,0.1397 0.2202,0 0.3302,-0.072 0.3302,-0.2159 0,-0.1101 -0.079,-0.2145 -0.237,-0.3133 -0.1242,-0.0649 -0.2498,-0.1298 -0.3768,-0.1947 -0.35,-0.1947 -0.5249,-0.4657 -0.5249,-0.8128 0,-0.2822 0.1009,-0.5024 0.3026,-0.6604 0.2018,-0.1581 0.4918,-0.2371 0.87,-0.2371 0.2342,0 0.5009,0.0466 0.8001,0.1397l-0.1101 0.5461c-0.2399,-0.0734 -0.4699,-0.11 -0.69,-0.11 -0.1298,0 -0.2314,0.0232 -0.3048,0.0698 -0.0734,0.0466 -0.1101,0.1037 -0.1101,0.1715 0,0.079 0.0522,0.1495 0.1567,0.2116 0.1298,0.0621 0.261,0.1256 0.3937,0.1905 0.237,0.1186 0.4099,0.2498 0.5185,0.3937 0.1087,0.144 0.163,0.3203 0.163,0.5292z"/>
  <polygon class="fil4" points="27.9787,72.8079 27.9703,73.4513 27.094,73.4513 27.0559,75.7289 26.2939,75.7289 26.332,73.4513 25.4599,73.4513 25.4684,72.8079 "/>
  <polygon class="fil4" points="31.2966,72.8079 31.2924,73.3751 30.0012,73.3751 29.9927,73.9551 31.267,73.9551 31.2585,74.5224 29.98,74.5224 29.9716,75.1489 31.2754,75.1489 31.267,75.7289 29.2096,75.7289 29.2604,72.8079 "/>
  <path class="fil4" d="M36.3773 75.7289l-0.7154 0 -0.1905 -1.7315c-0.0113,-0.1016 -0.0268,-0.2991 -0.0466,-0.5926 -0.048,0.2681 -0.0903,0.4713 -0.127,0.6096l-0.4487 1.7145 -0.8425 0 -0.3937 -1.7145c-0.0141,-0.0593 -0.0508,-0.2597 -0.11,-0.6012 -0.0029,0.017 -0.0339,0.2385 -0.0932,0.6647l-0.2328 1.651 -0.707 0 0.5546 -2.921 0.9059 0 0.4064 1.7526c0.0226,0.1016 0.0579,0.2935 0.1059,0.5757 0.0479,-0.254 0.086,-0.4346 0.1143,-0.5419l0.4699 -1.7864 0.9017 0 0.4487 2.921z"/>
  <path class="fil4" d="M40.2274 72.8079l-1.033 1.7018 -0.0254 1.2192 -0.7662 0 0.0169 -1.215 -1.016 -1.706 0.8425 0 0.4148 0.8212c0.0198,0.0424 0.0678,0.1694 0.144,0.381 0.0818,-0.1834 0.1411,-0.3076 0.1778,-0.3725l0.4614 -0.8297 0.7832 0z"/>
  <polygon class="fil4" points="44.4272,72.8079 44.3764,75.7289 43.6229,75.7289 43.6737,72.8079 "/>
  <path class="fil4" d="M48.5014 72.8079l-0.017 2.921 -0.8932 0 -0.9017 -1.7865c-0.0649,-0.127 -0.1298,-0.2794 -0.1947,-0.4572 0.0112,0.285 0.0183,0.4784 0.0211,0.58l0.0339 1.6637 -0.6858 0 0.0254 -2.921 0.8763 0 0.8975 1.778c0.0846,0.1693 0.1538,0.3231 0.2074,0.4614 -0.0057,-0.0677 -0.0113,-0.2343 -0.0169,-0.4995l-0.0424 -1.7399 0.6901 0z"/>
  <polygon class="fil4" points="52.044,72.8079 52.0356,73.4132 50.7571,73.4132 50.7486,73.9847 52.0102,73.9847 52.0017,74.5732 50.7359,74.5732 50.719,75.7289 49.9655,75.7289 50.0163,72.8079 "/>
  <path class="fil4" d="M56.3449 74.2853c0,0.2032 -0.0381,0.4 -0.1143,0.5905 -0.0761,0.1905 -0.1763,0.3493 -0.3005,0.4763 -0.2794,0.285 -0.6618,0.4276 -1.1472,0.4276 -0.429,0 -0.7762,-0.127 -1.0415,-0.381 -0.2991,-0.2879 -0.4486,-0.6604 -0.4486,-1.1176 0,-0.4544 0.141,-0.822 0.4232,-1.1028 0.2823,-0.2808 0.6534,-0.4212 1.1134,-0.4212 0.4741,0 0.8453,0.1411 1.1134,0.4233 0.2681,0.2822 0.4021,0.6505 0.4021,1.1049zm-0.7873 -0.0127c0,-0.2766 -0.0664,-0.4932 -0.199,-0.6498 -0.1327,-0.1567 -0.3118,-0.235 -0.5377,-0.235 -0.2314,0 -0.4127,0.0783 -0.5439,0.235 -0.1312,0.1566 -0.1969,0.376 -0.1969,0.6583 0,0.2737 0.0657,0.4868 0.1969,0.6392 0.1312,0.1524 0.3111,0.2286 0.5397,0.2286 0.2315,0 0.4128,-0.0769 0.544,-0.2307 0.1312,-0.1538 0.1969,-0.369 0.1969,-0.6456z"/>
  <path class="fil4" d="M60.2515 75.7289l-0.8297 0 -0.4191 -0.8255c-0.048,-0.0932 -0.0988,-0.1574 -0.1524,-0.1927 -0.0537,-0.0352 -0.1284,-0.0529 -0.2244,-0.0529l-0.1482 0 -0.0169 1.0711 -0.7578 0 0.0424 -2.921 1.1091 0c0.7564,0 1.1345,0.2695 1.1345,0.8085 0,0.4403 -0.2187,0.7013 -0.6561,0.7832 0.1749,0.0621 0.3231,0.2074 0.4445,0.436l0.4741 0.8933zm-0.9906 -1.9982c0,-0.2624 -0.1453,-0.3937 -0.436,-0.3937l-0.3345 0 -0.0127 0.7917 0.3091 0c0.3161,0 0.4741,-0.1327 0.4741,-0.398z"/>
  <path class="fil4" d="M65.2024 75.7289l-0.7154 0 -0.1905 -1.7315c-0.0113,-0.1016 -0.0268,-0.2991 -0.0466,-0.5926 -0.048,0.2681 -0.0903,0.4713 -0.127,0.6096l-0.4487 1.7145 -0.8424 0 -0.3937 -1.7145c-0.0142,-0.0593 -0.0508,-0.2597 -0.1101,-0.6012 -0.0028,0.017 -0.0339,0.2385 -0.0931,0.6647l-0.2329 1.651 -0.7069 0 0.5545 -2.921 0.906 0 0.4064 1.7526c0.0225,0.1016 0.0578,0.2935 0.1058,0.5757 0.048,-0.254 0.0861,-0.4346 0.1143,-0.5419l0.4699 -1.7864 0.9017 0 0.4487 2.921z"/>
  <path class="fil4" d="M69.3996 75.7289l-0.8085 0 -0.2329 -0.6816 -1.0668 0 -0.2497 0.6816 -0.8171 0 1.1684 -2.921 0.9271 0 1.0795 2.921zm-1.198 -1.2489l-0.2582 -0.7888c-0.0029,-0.0112 -0.0339,-0.1265 -0.0932,-0.3459l-0.0127 -0.0506 -0.1143 0.4049 -0.2667 0.7804 0.7451 0z"/>
  <polygon class="fil4" points="72.7517,72.8079 72.7433,73.4513 71.867,73.4513 71.8289,75.7289 71.0669,75.7289 71.105,73.4513 70.2329,73.4513 70.2414,72.8079 "/>
  <path class="fil4" d="M76.5352 72.8079l-1.0329 1.7018 -0.0254 1.2192 -0.7662 0 0.0169 -1.215 -1.016 -1.706 0.8424 0 0.4149 0.8212c0.0198,0.0424 0.0677,0.1694 0.1439,0.381 0.0819,-0.1834 0.1411,-0.3076 0.1778,-0.3725l0.4615 -0.8297 0.7831 0z"/>
  <path class="fil4" d="M79.891 72.8841l-0.1354 0.6265c-0.2032,-0.0677 -0.3937,-0.1016 -0.5715,-0.1016 -0.2823,0 -0.508,0.0804 -0.6774,0.2413 -0.1693,0.1609 -0.254,0.3697 -0.254,0.6265 0,0.2456 0.0819,0.4445 0.2456,0.5969 0.1637,0.1524 0.3796,0.2286 0.6477,0.2286 0.1665,0 0.3669,-0.0367 0.6011,-0.11l0.1185 0.6223c-0.3556,0.1072 -0.6604,0.1608 -0.9144,0.1608 -0.4572,0 -0.8234,-0.139 -1.0985,-0.417 -0.2752,-0.278 -0.4128,-0.6455 -0.4128,-1.1027 0,-0.446 0.1461,-0.8072 0.4382,-1.0838 0.2921,-0.2766 0.6794,-0.4148 1.162,-0.4148 0.254,0 0.5377,0.0423 0.8509,0.127z"/>
  <polygon class="fil4" points="83.3765,73.2989 81.971,75.0939 83.296,75.0939 83.2918,75.7289 81.1624,75.7289 81.0101,75.2039 82.4282,73.4344 81.0947,73.4344 81.0947,72.8079 83.2198,72.8079 "/>
  <path class="fil4" d="M87.2989 72.8079l-0.0169 2.921 -0.8932 0 -0.9017 -1.7865c-0.0649,-0.127 -0.1298,-0.2794 -0.1948,-0.4572 0.0113,0.285 0.0184,0.4784 0.0212,0.58l0.0339 1.6637 -0.6858 0 0.0254 -2.921 0.8763 0 0.8974 1.778c0.0847,0.1693 0.1539,0.3231 0.2075,0.4614 -0.0057,-0.0677 -0.0113,-0.2343 -0.017,-0.4995l-0.0423 -1.7399 0.69 0z"/>
  <polygon class="fil4" points="90.8501,72.8079 90.8458,73.3751 89.5547,73.3751 89.5462,73.9551 90.8204,73.9551 90.812,74.5224 89.5335,74.5224 89.525,75.1489 90.8289,75.1489 90.8204,75.7289 88.763,75.7289 88.8138,72.8079 "/>
  <g id="_98918640">
   <polygon id="_98601536" class="fil0" points="24.0262,53.2644 23.6963,55.5799 28.8713,57.2344 29.2321,55.0912 "/>
   <polygon id="_98601464" class="fil0" points="20.4677,55.4449 19.9319,57.6426 28.2776,60.4626 28.7092,58.2632 "/>
   <polygon id="_98601392" class="fil0" points="17.1459,57.9154 16.6809,60.0569 27.644,63.9194 28.0415,61.6909 "/>
   <path id="_98601320" class="fil0" d="M28.605 53.6206c0.0182,-0.8115 0.0364,-1.623 0.0546,-2.4345 1.1234,0.0171 2.2467,0.0342 3.3701,0.0513 4.9207,0.075 7.0246,3.3443 7.0045,6.8105 -0.05,2.2243 -0.659,3.0363 -3.0871,2.8465 0.9283,1.9909 1.8565,3.9818 2.7847,5.9727 -0.9494,-0.0145 -1.8989,-0.0289 -2.8483,-0.0434 -1.0629,-2.1839 -2.1258,-4.3678 -3.1887,-6.5517 0.0875,-0.8008 0.175,-1.6017 0.2625,-2.4025 1.3009,1.3854 3.2643,1.1192 3.3912,-0.9224 -0.069,-2.0829 -2.2428,-3.281 -4.443,-3.3049 -1.1002,-0.0072 -2.2004,-0.0144 -3.3005,-0.0216z"/>
   <polygon id="_98601248" class="fil0" points="30.2601,54.1901 33.037,54.3183 31.1529,65.4912 28.6095,64.2493 "/>
   <path id="_98601176" class="fil0" d="M69.6184 53.6776c0.0182,-0.8115 0.0364,-1.623 0.0547,-2.4345 1.1233,0.0171 2.2467,0.0342 3.3701,0.0513 4.9207,0.075 7.0245,3.3443 7.0044,6.8105 -0.05,2.2243 -0.6589,3.0363 -3.087,2.8465 0.9282,1.9909 1.8564,3.9818 2.7847,5.9727 -0.9495,-0.0145 -1.8989,-0.0289 -2.8484,-0.0434 -1.0629,-2.1839 -2.1258,-4.3678 -3.1887,-6.5517 0.0875,-0.8008 0.175,-1.6017 0.2625,-2.4025 1.3009,1.3854 3.2643,1.1192 3.3913,-0.9224 -0.0691,-2.0829 -2.2429,-3.281 -4.4431,-3.3049 -1.1001,-0.0072 -2.2003,-0.0144 -3.3005,-0.0216z"/>
   <polygon id="_98918928" class="fil0" points="71.2735,54.2471 74.0505,54.3753 72.1664,65.5482 69.6229,64.3063 "/>
   <polygon id="_98918856" class="fil0" points="40.0974,50.9306 40.0325,53.8233 41.1756,53.9838 41.126,56.189 39.8403,56.1694 40.1329,58.6376 40.5858,58.6445 40.5208,61.537 39.1296,61.5159 39.073,64.0363 47.3946,66.3973 47.8353,63.797 43.4502,62.5557 43.5241,59.2622 47.4583,60.468 47.5091,58.2054 43.9905,57.0634 44.0451,54.6291 48.4643,55.8996 48.5293,53.0069 "/>
   <path id="_98918784" class="fil0" d="M50.3665 51.6599c0.9052,0.4339 1.8105,0.8679 2.7158,1.3018 -0.1141,0.9533 -0.2281,1.9065 -0.3422,2.8597 1.6309,-0.9301 2.951,-1.951 4.0519,-4.0351 0.7667,0.4128 1.6718,0.8562 2.4386,1.269 -1.448,2.585 -3.2999,4.5908 -5.7642,6.0144 1.0425,1.0281 2.085,2.0562 3.1275,3.0844 0.387,0.3019 0.7515,0.0591 0.8774,-0.3878 0.3126,0.0048 0.6253,0.0096 0.9379,0.0143 0.8484,0.901 0.3602,2.5266 -0.0675,3.0071 -0.5027,0.7181 -1.579,0.6826 -2.1929,0.1671 -1.353,-1.1283 -2.706,-2.2566 -4.059,-3.385 -0.3,1.4947 -0.6707,3.0457 -1.1083,4.481 -0.6615,-0.4589 -1.323,-0.9178 -1.9845,-1.3767 0.107,-1.6695 0.214,-3.3391 0.321,-5.0086 -0.2018,-0.2991 -0.4036,-0.5982 -0.6053,-0.8973 0.3898,-0.3379 0.7796,-0.6757 1.1694,-1.0136 0.1615,-2.0315 0.3229,-4.0631 0.4844,-6.0947z"/>
   <path id="_98918712" class="fil0" d="M67.3576 54.7833c0.2727,-0.798 0.5454,-1.596 0.8182,-2.394 -3.0293,-0.2371 -6.6878,1.2351 -8.154,4.1159 -1.2663,3.2657 -1.1343,6.1517 0.5159,7.9721 2.0401,1.9983 4.4184,1.3087 6.3709,-0.5333 2.6433,-2.6909 2.1463,-6.3464 1.5772,-8.3414 -0.6756,0.1712 -1.3512,0.3423 -2.0269,0.5135 0.4801,2.3469 -0.4485,5.5319 -1.6744,6.4777 -1.5873,1.055 -3.3573,0.9612 -3.5945,-2.4038 -0.0167,-2.3495 1.5368,-4.9901 6.1676,-5.4067z"/>
   <path id="_98918568" class="fil0" d="M81.3966 51.3086c-0.0182,0.8107 -0.0364,1.6214 -0.0546,2.4321 6.789,0.1563 8.1645,2.8544 7.3363,5.167 -0.709,1.6105 -2.7853,3.6164 -4.9054,4.1174 0.2007,-2.5997 0.5178,-5.1976 0.7185,-7.7973 -0.7377,-0.0112 -1.5918,-0.0242 -2.3295,-0.0354 -0.3339,2.7896 -0.6678,5.5793 -1.0016,8.369 -0.4321,0.2281 -0.9411,0.423 -1.4084,0.4906 0.3445,0.7946 0.6889,1.5892 1.0333,2.3838 3.9809,-0.3981 10.4581,-3.0623 11.0439,-7.8322 0.3034,-4.8702 -2.9815,-7.235 -8.4536,-7.2649 -0.6596,-0.0101 -1.3192,-0.0201 -1.9789,-0.0301z"/>
  </g>
 </g>
</svg>
