<?xml version="1.0" encoding="UTF-8" standalone="no"?>
<!-- Created with Inkscape (http://www.inkscape.org/) -->

<svg
   xmlns:dc="http://purl.org/dc/elements/1.1/"
   xmlns:cc="http://creativecommons.org/ns#"
   xmlns:rdf="http://www.w3.org/1999/02/22-rdf-syntax-ns#"
   xmlns:svg="http://www.w3.org/2000/svg"
   xmlns="http://www.w3.org/2000/svg"
   xmlns:sodipodi="http://sodipodi.sourceforge.net/DTD/sodipodi-0.dtd"
   xmlns:inkscape="http://www.inkscape.org/namespaces/inkscape"
   id="svg3004"
   version="1.1"
   inkscape:version="0.48.2 r9819"
   width="1112.25"
   height="356.2625"
   xml:space="preserve"
   sodipodi:docname="travis-logo-vector.eps"><metadata
     id="metadata3010"><rdf:RDF><cc:Work
         rdf:about=""><dc:format>image/svg+xml</dc:format><dc:type
           rdf:resource="http://purl.org/dc/dcmitype/StillImage" /><dc:title></dc:title></cc:Work></rdf:RDF></metadata><defs
     id="defs3008"><clipPath
       clipPathUnits="userSpaceOnUse"
       id="clipPath3036"><path
         d="m 405.07,1427.87 c -8.476,3.8 -18.312,8.42 -26.785,12.34 -2.551,1.19 -4.984,2.32 -7.223,3.36 l -17.328,8.25 c -0.906,0.43 -1.832,0.88 -2.761,1.33 -0.348,0.17 -0.696,0.34 -1.043,0.52 -1.629,0.8 -3.27,1.63 -4.887,2.46 l -2.465,4.69 c -2.008,4.01 -4.016,8.18 -5.937,12.41 -3.188,7.02 -6.27,14.2 -9.164,21.48 -0.606,1.54 -1.2,3.09 -1.786,4.65 -1.543,4 -3.035,8.03 -4.48,12.09 -4.938,13.94 -9.356,28.19 -13.359,42.58 -4.567,16.17 -8.489,32.57 -11.903,49.14 -4.422,21.49 -7.988,43.26 -11.008,65.09 l 0,0 0,0 c -3.16,24.84 -5.394,49.84 -6.484,74.89 -0.598,13.87 -0.84,27.75 -0.703,41.64 0.035,3.88 0.086,7.75 0.164,11.62 0.336,15.62 1.039,31.22 2.406,46.72 0.746,9.66 1.864,19.26 2.985,28.85 0.89,6.77 1.925,13.91 3.035,20.45 5.379,4.52 10.91,8.95 16.566,13.27 21.512,16.39 44.867,31.37 68.992,45.24 33.028,19.29 67.614,36.57 102.813,52.63 35.097,16.52 70.98,31.48 107.172,46.07 18.133,7.33 36.359,14.43 54.562,21.22 3.903,1.52 7.809,3.01 11.715,4.49 14.426,5.44 28.902,10.7 43.484,15.97 -0.011,0 -0.031,0 -0.043,-0.01 0.004,0.01 0.012,0.01 0.02,0.01 -2.691,-0.44 -5.375,-0.9 -8.063,-1.37 -36.019,-6.26 -71.699,-14.54 -107.136,-23.61 -12.465,-3.23 -24.914,-6.68 -37.336,-10.27 -12.172,-3.52 -24.317,-7.18 -36.422,-10.97 82.355,215.33 218.973,395.11 388.25,524.73 188.222,144.12 416.812,226.22 656.002,226.22 233.78,0 457.43,-78.44 643.18,-216.58 175.19,-130.28 316.65,-313.65 401.1,-534.41 -11.3,3.57 -22.63,6.99 -33.98,10.29 -13.25,3.86 -26.56,7.54 -39.89,10.99 -35.01,8.98 -70.36,17.19 -106,23.43 -0.02,0 -0.03,0 -0.05,0 -0.01,0.01 -0.01,0.01 -0.02,0.01 -3.01,0.52 -6.02,1.04 -9.04,1.54 0.01,0 0.01,0 0.02,-0.01 -0.02,0.01 -0.03,0.01 -0.04,0.01 15.96,-5.8 31.93,-11.58 47.75,-17.61 2.46,-0.94 4.92,-1.89 7.37,-2.85 18.3,-6.79 36.51,-13.89 54.58,-21.22 24.68,-9.95 49.26,-20.07 73.51,-30.75 11.31,-4.98 22.54,-10.08 33.68,-15.32 18.9,-8.62 37.6,-17.58 55.98,-27 15.9,-8.16 31.55,-16.68 46.87,-25.63 24.35,-14 47.93,-29.12 69.56,-45.69 5.45,-4.18 10.77,-8.44 15.96,-12.81 0.31,-1.73 0.61,-3.51 0.9,-5.3 0.23,-1.42 0.46,-2.85 0.68,-4.29 0.53,-3.49 1.02,-7.02 1.45,-10.47 0.02,-0.14 0.03,-0.27 0.05,-0.4 0.02,-0.16 0.04,-0.31 0.06,-0.47 1.14,-9.42 2.19,-18.9 2.95,-28.37 1.7,-19.38 2.4,-38.83 2.57,-58.35 0.02,-2.43 0.03,-4.86 0.03,-7.29 0,-36.54 -2.58,-73.06 -7.25,-109.24 -5.27,-38.68 -12.41,-77.14 -22.91,-114.24 -1.33,-4.8 -2.7,-9.58 -4.12,-14.34 -4.12,-13.68 -8.65,-27.18 -13.69,-40.35 -3.38,-8.87 -7.1,-17.6 -10.97,-26.1 l 0,0 c -1.94,-4.23 -3.95,-8.4 -6.02,-12.41 l 0,0 -2.39,-4.69 c -0.63,-0.32 -1.26,-0.65 -1.9,-0.97 -1.39,-0.69 -2.79,-1.39 -4.17,-2.07 -0.89,-0.44 -1.76,-0.86 -2.63,-1.27 l -17.34,-8.25 c -6.08,-2.84 -12.3,-5.49 -18.47,-8.24 l 30.7,116.47 c -2.8,0.75 -14.71,3.86 -35.04,8.63 -31.78,7.47 -84.15,19.02 -154.43,32.04 l 0,0 c 2.26,0.47 4.51,0.97 6.75,1.49 1.13,0.25 2.26,0.51 3.38,0.78 0.18,0.04 0.35,0.08 0.52,0.12 23.94,5.93 47.52,13.23 70.43,22.45 10.62,4.54 21.2,9.41 31.25,14.99 0.63,0.35 1.27,0.71 1.9,1.06 4.02,2.31 8.01,4.73 11.86,7.34 6.36,4.31 12.33,9.16 17.38,14.91 l 0,0 0,0 c -49.33,-16.1 -121.13,-22.2 -203.77,-22.2 -110.72,0 -240.88,10.96 -362.36,23.51 -154.49,15.92 -309.36,27.39 -464.8,31.58 -39.61,1.08 -79.27,1.68 -118.96,1.78 -42.28,-0.1 -84.49,-0.78 -126.68,-1.99 -152.79,-4.37 -305.04,-15.72 -457.025,-31.37 -121.442,-12.55 -251.555,-23.51 -362.278,-23.51 -74.543,0 -140.312,4.97 -188.687,17.76 -5.231,1.39 -10.258,2.86 -15.071,4.44 0.004,-0.01 0.008,-0.01 0.008,-0.01 -0.004,0 -0.019,0 -0.027,0.01 8.109,-9.2 18.601,-16.14 29.265,-22.25 8.075,-4.56 16.461,-8.67 24.989,-12.48 2.718,-1.22 5.445,-2.41 8.176,-3.57 22.824,-9.22 46.492,-16.52 70.371,-22.45 6.804,-1.64 13.765,-3.17 20.675,-4.53 1.59,-0.31 3.18,-0.62 4.766,-0.93 -45.223,-8.6 -82.262,-16.42 -110.344,-22.69 -37.164,-8.29 -58.609,-13.85 -62.488,-14.91 l 19.145,-72.91 12.945,-49.39 -1.77,-1.63 m 2100.61,282.66 0,0 c 27.72,-13.55 36.96,-18.06 36.96,-18.07 0.01,0 -36.96,18.07 -36.96,18.07 l 0,0 c -83.15,40.65 -114.57,266.1 -114.57,266.1 l -1.09,-136.2 -15.9,179.99 -324.15,78.51 -20.21,-272.55 c 15.7,21.31 39.28,69.54 53.84,135.71 7.79,35.35 32.86,45.41 61.71,45.41 25.16,0 53.2,-7.66 75.15,-12.88 47.1,-11.22 108.78,-26.92 118.89,-51.59 19.58,-47.86 29.15,-172.73 29.15,-172.73 l 16.83,-10.11 4.12,7.77 -0.18,-22.32 116.41,-35.11 m -1917.586,0 0,0 -36.961,-18.07 c 0.004,0 9.242,4.52 36.961,18.07 l 0,0 116.429,35.11 -0.226,28.09 7.168,-13.54 16.824,10.11 c 0,0 9.582,124.87 29.16,172.73 10.094,24.67 71.785,40.37 118.903,51.59 21.933,5.22 49.968,12.88 75.125,12.88 28.847,0 53.913,-10.06 61.703,-45.41 14.59,-66.17 38.11,-114.4 53.82,-135.71 l 0,0 0,0 -20.16,272.55 -324.149,-78.51 -18.679,-211.26 -1.344,167.47 c 0,0 -31.418,-225.45 -114.574,-266.1 m 599.056,875.2 -74.99,-221.79 1.22,-304.34 53.26,-42.34 24.2,-130.69 33.86,-76.24 653.45,-1.21 30.24,54.47 25.42,91.95 3.64,58.08 72.16,206.04 -99.28,366.36 c 0,0 -8.59,-653.56 -161.25,-653.56 -152.66,0 -183.19,0 -183.19,0 l -30.52,0 c 0,0 -30.55,0 -183.21,0 -152.66,0 -165.01,653.27 -165.01,653.27"
         id="path3038" /></clipPath><radialGradient
       fx="0"
       fy="0"
       cx="0"
       cy="0"
       r="1"
       gradientUnits="userSpaceOnUse"
       gradientTransform="matrix(-4.58e-6,104.835,115.319,5.04e-6,154.22,173.784)"
       spreadMethod="pad"
       id="radialGradient3040"><stop
         style="stop-opacity:1;stop-color:#f9f894"
         offset="0"
         id="stop3042" /><stop
         style="stop-opacity:1;stop-color:#bec065"
         offset="1"
         id="stop3044" /></radialGradient><clipPath
       clipPathUnits="userSpaceOnUse"
       id="clipPath3068"><path
         d="M 811.48,862.738 661.309,967.922 643.57,1111.6 617.641,1321.8 c 47.535,8.76 104.035,18.28 168.484,27.64 11.652,1.69 23.57,3.38 35.738,5.05 41.188,5.68 85.301,11.24 132.067,16.47 -2.059,-2.47 -4.114,-4.96 -6.157,-7.46 -11.043,-13.46 -21.8,-27.45 -32.113,-42 -1.394,-1.96 -2.785,-3.93 -4.164,-5.91 l -81.562,-117.07 0.004,0.01 -0.032,-0.05 118.789,79.22 0,0 c 1.446,1 51.865,34.19 137.355,79.16 19.49,10.25 40.79,21.1 63.76,32.33 17.63,1.33 35.53,2.59 53.67,3.77 108.74,7.08 226.52,11.46 351.3,11.46 16.43,0 32.71,-0.09 48.85,-0.24 18.74,-0.19 37.31,-0.47 55.73,-0.78 -1.4,-1.13 -2.81,-2.26 -4.22,-3.39 -16.72,-13.31 -34.04,-26.04 -51.89,-37.78 -6.36,-4.18 -12.8,-8.23 -19.29,-12.15 l -87.59,-52.87 c -52.36,-6.38 -98.13,-19.03 -104.65,-20.88 -0.34,-0.09 -0.57,-0.16 -0.71,-0.19 -1.63,-0.45 -3.12,-1.11 -4.52,-2.01 l 0,0 0,0 c -3.49,-2.02 -6.31,-5.13 -8.04,-8.86 -0.38,-0.82 -0.72,-1.67 -0.99,-2.55 l -53.06,-174.83 -36.16,-119.12 -449.306,-99.918 -27.465,-6.114 m 175.203,190.842 c -53.797,-13.49 -68.621,-46.76 -69.461,-48.85 l 0,0 0,0 c 25.844,13.97 54.258,15.7 92.879,15.7 11.99,0 24.96,-0.17 39.15,-0.19 2.45,-0.06 4.94,-0.08 7.45,-0.08 4.08,0 8.25,0.06 12.53,0.16 5.88,0.08 11.81,0.15 18.06,0.31 61.19,0.6 112.15,-5.15 112.16,89.15 0,0.83 0,1.68 -0.01,2.53 -0.93,96.53 -43.66,174.63 -104.92,174.63 -0.25,0 -0.49,0 -0.74,0 -59.92,-0.51 -117.954,-75.36 -117.926,-168.33 0,-2.81 0.054,-5.63 0.164,-8.47 1,-25.23 4.711,-43.43 10.664,-56.56"
         id="path3070" /></clipPath><linearGradient
       x1="0"
       y1="0"
       x2="1"
       y2="0"
       gradientUnits="userSpaceOnUse"
       gradientTransform="matrix(104.175,0,0,-104.175,61.7617,113.358)"
       spreadMethod="pad"
       id="linearGradient3072"><stop
         style="stop-opacity:1;stop-color:#988369"
         offset="0"
         id="stop3074" /><stop
         style="stop-opacity:1;stop-color:#d1bc99"
         offset="0.516854"
         id="stop3076" /><stop
         style="stop-opacity:1;stop-color:#988369"
         offset="1"
         id="stop3078" /></linearGradient><clipPath
       clipPathUnits="userSpaceOnUse"
       id="clipPath3086"><path
         d="m 2291.3,916.059 -476.12,54.101 -37.52,123.57 -51.31,168.99 c -1.31,4.26 -3.96,7.87 -7.46,10.4 -1.82,1.33 -3.89,2.35 -6.12,3.02 l 0,0 0,0 c -2.32,0.69 -38.85,11.12 -84.58,18.2 -12.71,1.98 -26.12,3.7 -39.7,4.87 l 3.59,0.26 7.71,0.52 c 5.09,0.36 51.35,5.91 121.88,20.49 32.59,6.73 70.35,15.4 111.65,26.38 0.01,0 0.01,0 0.02,0.01 0.01,0 0.05,0.01 0.06,0.01 42.41,11.28 88.54,24.99 136.58,41.56 217.17,-16.68 394.5,-43.38 515.75,-65.47 l -29.76,-208.31 -13.23,-92.58 -77.16,-54.029 -74.29,-51.992 m -396.82,227.311 c -0.01,-3.92 0.06,-7.86 0.2,-11.84 2.93,-83.72 42.03,-94.56 92.4,-94.56 7.9,0 16.07,0.26 24.43,0.56 59.66,1.11 99.97,14.61 133.36,14.61 13,0 24.94,-2.04 36.58,-7.66 l 0,0 0,0 c -0.56,2.12 -11.59,35.24 -57.99,35.24 -4.06,0 -8.39,-0.26 -13.01,-0.81 5.2,11.32 8.13,25.73 8.15,44.3 0,5.08 -0.21,10.47 -0.66,16.19 -7.48,95.38 -62.3,171.45 -122.97,171.45 -0.84,0 -1.68,-0.01 -2.52,-0.04 -59.14,-2.1 -97.9,-75.9 -97.97,-167.44"
         id="path3088" /></clipPath><linearGradient
       x1="0"
       y1="0"
       x2="1"
       y2="0"
       gradientUnits="userSpaceOnUse"
       gradientTransform="matrix(89.7358,0,0,-89.7358,158.837,115.225)"
       spreadMethod="pad"
       id="linearGradient3090"><stop
         style="stop-opacity:1;stop-color:#988369"
         offset="0"
         id="stop3092" /><stop
         style="stop-opacity:1;stop-color:#d1bc99"
         offset="0.516854"
         id="stop3094" /><stop
         style="stop-opacity:1;stop-color:#988369"
         offset="1"
         id="stop3096" /></linearGradient><clipPath
       clipPathUnits="userSpaceOnUse"
       id="clipPath3112"><path
         d="m 1606.95,399.172 -0.07,0.066 c -2.85,-3 -5.63,-6.109 -8.34,-9.097 -21.21,-23.711 -40.04,-48.082 -62.03,-71.09 -13.04,-13.809 -26.09,-27.481 -39.44,-40.821 -13.35,-13.261 -26.77,-26.621 -40.75,-38.582 -6.86,-5.847 -14.59,-12.046 -20.98,-15.128 -7.03,-3.09 -16.29,-5.469 -25.16,-7.481 -17.97,-4.027 -36.43,-7.109 -55.01,-9.809 -37.06,-5.718 -74.48,-10.492 -111.91,-14.488 -37.44,-4.551 -74.94,-8.281 -112.45,-11.66 -37.5,-3.633 -75.08,-6.5 -112.45,-8.441 -9.4,-0.45 -18.735,-0.762 -28.005,-0.762 -9.101,0 -17.898,0.762 -26.839,2.25 -17.828,2.93 -35.356,9.019 -52.09,16.91 -33.496,15.82 -64.215,38.422 -91.696,64.492 23.856,-29.699 53.098,-55.152 86.582,-74.551 16.903,-9.468 34.961,-17.109 54.172,-21.66 9.594,-2.32 19.696,-3.57 29.411,-4.039 9.656,-0.449 19.225,-0.609 28.705,-0.679 76.34,0.41 151.8,7.027 227.2,15.046 37.65,4.563 75.24,9.422 112.82,15.903 18.77,3.398 37.51,7.008 56.34,11.801 9.41,2.64 18.6,4.789 28.78,9.73 5.42,2.848 9.34,6.008 13.28,9.18 3.92,3.16 7.63,6.48 11.18,9.82 28.17,26.758 52.49,56.09 76.79,85.41 20.53,25.469 38.53,49.156 57.34,75.18 l -13.89,-37.113 c -0.3,-0.879 -8.26,-21.86 -47.68,-109.977 -38.27,-85.75 -174.48,-103.34 -175.81,-103.5 -7.87,-1 -14.03,-2.09 -21.82,-3.48 -23.09,-4 -65.91,-11.582 -232.3,-30.391 -22.38,-2.5626 -44.16,-3.7891 -64.67,-3.7891 -163.601,0 -248.879,80.5701 -316.558,167.6991 -38.817,49.77 -82.809,113.199 -117.223,164.141 63.117,-29.024 129.496,-59.801 130.57,-60.274 l 10.418,-4.867 11.028,3.188 c 169.55,48.453 329.445,100.082 331.075,100.601 l 10.58,3.399 6.02,9.492 c 92.91,146.961 165.59,181.449 178.56,182.129 10.27,0.55 20.78,0.781 31.33,0.781 129.27,0 237.17,-39.981 238.24,-40.352 l 9.94,-3.711 10.13,3.161 c 164.38,51 239.39,74.242 265.23,74.242 5.01,0 5.01,0 13.51,-7.18 2.71,-2.23 5.62,-4.711 8.94,-7.41 80.49,-63.281 180.06,-142.609 181.06,-143.379 l 6.86,-5.48 8.73,-1 c 1.15,-0.161 114.83,-13.52 181.98,-19.692 33.63,-3.019 63.97,-5.539 94.91,-5.539 52.03,0 92.22,7.789 122.93,23.918 20,10.492 48.01,23.852 74.78,36.191 -30.86,-58.73 -72.54,-138.839 -103.41,-200.582 -41.06,-82.269 -118.52,-100.238 -175.09,-113.339 -9.9,-2.27 -19.21,-4.418 -27.64,-6.817 -42.45,-11.871 -130.11,-32.871 -207.43,-51.39 -21.46,-5.09 -42.3,-10.09 -61.6,-14.743 -20.74,-5.019 -41.28,-7.539 -60.87,-7.539 -57.27,0 -107.21,20.739 -148.57,61.719 -62.2,61.68 -113.05,122.242 -113.59,122.871 l -22.92,27.301 c 24,-21.602 48.45,-42.672 73.47,-63.121 31.56,-25.371 63.37,-50.551 98.47,-72.09 8.94,-5.238 17.9,-10.41 28.31,-14.488 1.33,-0.473 2.71,-0.922 4.34,-1.492 1.77,-0.45 2.08,-0.598 4.32,-0.969 3.15,-0.629 5.95,-0.879 8.73,-1.102 5.46,-0.39 10.64,-0.308 15.89,-0.148 20.68,0.84 40.73,3.238 60.8,5.719 40.14,5.23 79.72,12.48 119.31,19.82 79.02,15.672 157.58,33.191 235.07,56.558 9.64,3.012 19.37,6.184 28.94,9.582 9.57,3.239 19.67,7.418 28.78,12.508 18.45,10.024 34.96,22.992 49.78,37.352 29.17,29.39 52.56,63.75 69.22,101.172 -21.15,-34.821 -46.61,-66.782 -76.85,-92.543 -15.06,-12.887 -31.35,-24.059 -48.85,-32.239 -17.23,-8.269 -36.51,-13.05 -55.81,-18.23 -38.67,-9.801 -77.72,-18.98 -116.93,-27.238 -39.02,-8.641 -78.23,-16.68 -117.6,-24.223 -39.21,-7.891 -78.63,-14.98 -117.98,-21.148 -19.7,-3.012 -39.44,-5.86 -58.81,-7.172 -4.79,-0.321 -9.66,-0.469 -14.22,-0.41 -2.14,0.089 -4.45,0.23 -6.16,0.492 l -3.08,0.679 c -0.86,0.211 -1.8,0.372 -2.87,0.84 -8.47,2.711 -17.36,7.262 -25.93,11.969 -34.43,19.301 -67.68,42.383 -100.54,65.43 -25.47,17.91 -51.93,38.582 -77.49,57.66 -4.38,3.32 -8.8,6.641 -13.18,9.801 l -0.26,0.242 z"
         id="path3114" /></clipPath><linearGradient
       x1="0"
       y1="0"
       x2="1"
       y2="0"
       gradientUnits="userSpaceOnUse"
       gradientTransform="matrix(192.682,0,0,-192.682,61.2378,39.824)"
       spreadMethod="pad"
       id="linearGradient3116"><stop
         style="stop-opacity:1;stop-color:#90191f"
         offset="0"
         id="stop3118" /><stop
         style="stop-opacity:1;stop-color:#a91c24"
         offset="1"
         id="stop3120" /></linearGradient><clipPath
       clipPathUnits="userSpaceOnUse"
       id="clipPath3128"><path
         d="m 2259.39,1593.32 0.44,-0.15 c -4.78,-3.4 -9.54,-6.95 -14.35,-10.35 -192.38,-134.27 -414.87,-191.15 -543.12,-214.14 90.57,74.92 161.27,163.37 196.86,211.6 11.11,15.12 18.84,26.31 22.62,31.95 65.51,-2.7 130.95,-5.87 196.4,-9.56 47.14,-2.7 94.14,-5.87 141.15,-9.35 z"
         id="path3130" /></clipPath><linearGradient
       x1="0"
       y1="0"
       x2="1"
       y2="0"
       gradientUnits="userSpaceOnUse"
       gradientTransform="matrix(55.7476,0,0,-55.7476,170.236,149.046)"
       spreadMethod="pad"
       id="linearGradient3132"><stop
         style="stop-opacity:1;stop-color:#90191f"
         offset="0"
         id="stop3134" /><stop
         style="stop-opacity:1;stop-color:#a91c24"
         offset="1"
         id="stop3136" /></linearGradient><clipPath
       clipPathUnits="userSpaceOnUse"
       id="clipPath3144"><path
         d="m 1539.22,1620.88 c 33.16,-0.08 66.35,-0.4 99.54,-0.86 -55.81,-12.34 -109.88,-26.85 -161.6,-42.75 -172.47,-53.09 -319.11,-121.55 -418.82,-174.03 111.28,106.43 229.52,166.09 243.03,172.71 l 1.31,0.7 90.06,42.68 c 48.83,0.92 97.61,1.47 146.39,1.55 l 0.09,0 z"
         id="path3146" /></clipPath><linearGradient
       x1="0"
       y1="0"
       x2="1"
       y2="0"
       gradientUnits="userSpaceOnUse"
       gradientTransform="matrix(58.0415,0,0,-58.0415,105.834,151.206)"
       spreadMethod="pad"
       id="linearGradient3148"><stop
         style="stop-opacity:1;stop-color:#90191f"
         offset="0"
         id="stop3150" /><stop
         style="stop-opacity:1;stop-color:#a91c24"
         offset="1"
         id="stop3152" /></linearGradient><clipPath
       clipPathUnits="userSpaceOnUse"
       id="clipPath3160"><path
         d="m 1210.07,1614.23 c -58.11,-11.26 -114.76,-24.77 -169.77,-40.13 -345.433,-96.69 -625.249,-264.39 -785.862,-376.05 165.312,197.63 406.007,348.74 468.832,386.33 6.792,0.84 13.503,1.61 20.378,2.31 23.84,2.54 47.844,4.55 71.926,6.41 48.082,3.62 96.223,6.87 144.539,9.57 83.267,4.69 166.617,8.56 249.957,11.56 z"
         id="path3162" /></clipPath><linearGradient
       x1="0"
       y1="0"
       x2="1"
       y2="0"
       gradientUnits="userSpaceOnUse"
       gradientTransform="matrix(95.563,0,0,-95.563,25.4438,140.614)"
       spreadMethod="pad"
       id="linearGradient3164"><stop
         style="stop-opacity:1;stop-color:#90191f"
         offset="0"
         id="stop3166" /><stop
         style="stop-opacity:1;stop-color:#a91c24"
         offset="1"
         id="stop3168" /></linearGradient><clipPath
       clipPathUnits="userSpaceOnUse"
       id="clipPath3188"><path
         d="m 711.465,1760.19 -7.168,13.54 -0.285,35.43 18.679,211.26 324.149,78.51 20.16,-272.55 c -15.71,21.31 -39.23,69.54 -53.82,135.71 -7.79,35.35 -32.856,45.41 -61.703,45.41 -25.157,0 -53.192,-7.66 -75.125,-12.88 -47.118,-11.22 -108.809,-26.92 -118.903,-51.59 -19.578,-47.86 -29.16,-172.73 -29.16,-172.73 l -16.824,-10.11"
         id="path3190" /></clipPath><radialGradient
       fx="0"
       fy="0"
       cx="0"
       cy="0"
       r="1"
       gradientUnits="userSpaceOnUse"
       gradientTransform="matrix(-4.58e-6,104.835,115.319,5.04e-6,154.22,173.784)"
       spreadMethod="pad"
       id="radialGradient3192"><stop
         style="stop-opacity:1;stop-color:#dac569"
         offset="0"
         id="stop3194" /><stop
         style="stop-opacity:1;stop-color:#cfbb62"
         offset="1"
         id="stop3196" /></radialGradient><clipPath
       clipPathUnits="userSpaceOnUse"
       id="clipPath3204"><path
         d="m 2385.33,1760.19 -16.83,10.11 c 0,0 -9.57,124.87 -29.15,172.73 -10.11,24.67 -71.79,40.37 -118.89,51.59 -21.95,5.22 -49.99,12.88 -75.15,12.88 -28.85,0 -53.92,-10.06 -61.71,-45.41 -14.56,-66.17 -38.14,-114.4 -53.84,-135.71 l 20.21,272.55 324.15,-78.51 15.9,-179.99 -0.57,-72.47 -4.12,-7.77"
         id="path3206" /></clipPath><radialGradient
       fx="0"
       fy="0"
       cx="0"
       cy="0"
       r="1"
       gradientUnits="userSpaceOnUse"
       gradientTransform="matrix(-4.58e-6,104.835,115.319,5.04e-6,154.22,173.784)"
       spreadMethod="pad"
       id="radialGradient3208"><stop
         style="stop-opacity:1;stop-color:#dac569"
         offset="0"
         id="stop3210" /><stop
         style="stop-opacity:1;stop-color:#cfbb62"
         offset="1"
         id="stop3212" /></radialGradient><clipPath
       clipPathUnits="userSpaceOnUse"
       id="clipPath3220"><path
         d="m 1878.15,1809.12 -653.45,1.21 -33.86,76.24 -24.2,130.69 -53.26,42.34 -1.22,304.34 74.99,221.79 c 0,0 12.35,-653.27 165.01,-653.27 152.66,0 183.21,0 183.21,0 l 30.52,0 c 0,0 30.53,0 183.19,0 152.66,0 161.25,653.56 161.25,653.56 l 99.28,-366.36 -72.16,-206.04 -3.64,-58.08 -25.42,-91.95 -30.24,-54.47"
         id="path3222" /></clipPath><radialGradient
       fx="0"
       fy="0"
       cx="0"
       cy="0"
       r="1"
       gradientUnits="userSpaceOnUse"
       gradientTransform="matrix(-4.58e-6,104.835,115.319,5.04e-6,154.22,173.784)"
       spreadMethod="pad"
       id="radialGradient3224"><stop
         style="stop-opacity:1;stop-color:#dcc86c"
         offset="0"
         id="stop3226" /><stop
         style="stop-opacity:1;stop-color:#cebb62"
         offset="1"
         id="stop3228" /></radialGradient><clipPath
       clipPathUnits="userSpaceOnUse"
       id="clipPath3236"><path
         d="m 2542.64,1692.46 c 0,0.01 -9.24,4.52 -36.96,18.07 l 0,0 c 0,0 36.97,-18.07 36.96,-18.07 m -36.96,18.07 -116.41,35.11 0.18,22.32 5.98,11.3 -5.41,61.17 1.09,136.2 c 0,0 31.42,-225.45 114.57,-266.1"
         id="path3238" /></clipPath><radialGradient
       fx="0"
       fy="0"
       cx="0"
       cy="0"
       r="1"
       gradientUnits="userSpaceOnUse"
       gradientTransform="matrix(-4.58e-6,104.835,115.319,5.04e-6,154.22,173.784)"
       spreadMethod="pad"
       id="radialGradient3240"><stop
         style="stop-opacity:1;stop-color:#dcc86c"
         offset="0"
         id="stop3242" /><stop
         style="stop-opacity:1;stop-color:#cebb62"
         offset="1"
         id="stop3244" /></radialGradient><clipPath
       clipPathUnits="userSpaceOnUse"
       id="clipPath3252"><path
         d="m 2389.45,1767.96 0.57,72.47 5.41,-61.17 -5.98,-11.3"
         id="path3254" /></clipPath><radialGradient
       fx="0"
       fy="0"
       cx="0"
       cy="0"
       r="1"
       gradientUnits="userSpaceOnUse"
       gradientTransform="matrix(-4.58e-6,104.835,115.319,5.04e-6,154.22,173.784)"
       spreadMethod="pad"
       id="radialGradient3256"><stop
         style="stop-opacity:1;stop-color:#d5bc63"
         offset="0"
         id="stop3258" /><stop
         style="stop-opacity:1;stop-color:#d2ba61"
         offset="1"
         id="stop3260" /></radialGradient><clipPath
       clipPathUnits="userSpaceOnUse"
       id="clipPath3268"><path
         d="m 551.133,1692.46 36.961,18.07 0,0 0,0 c -27.719,-13.55 -36.957,-18.07 -36.961,-18.07 m 36.961,18.07 c 83.156,40.65 114.574,266.1 114.574,266.1 l 1.344,-167.47 -2.645,-29.9 2.93,-5.53 0.226,-28.09 -116.429,-35.11"
         id="path3270" /></clipPath><radialGradient
       fx="0"
       fy="0"
       cx="0"
       cy="0"
       r="1"
       gradientUnits="userSpaceOnUse"
       gradientTransform="matrix(-4.58e-6,104.835,115.319,5.04e-6,154.22,173.784)"
       spreadMethod="pad"
       id="radialGradient3272"><stop
         style="stop-opacity:1;stop-color:#dcc86c"
         offset="0"
         id="stop3274" /><stop
         style="stop-opacity:1;stop-color:#cebb62"
         offset="1"
         id="stop3276" /></radialGradient><clipPath
       clipPathUnits="userSpaceOnUse"
       id="clipPath3284"><path
         d="m 704.297,1773.73 -2.93,5.53 2.645,29.9 0.285,-35.43"
         id="path3286" /></clipPath><radialGradient
       fx="0"
       fy="0"
       cx="0"
       cy="0"
       r="1"
       gradientUnits="userSpaceOnUse"
       gradientTransform="matrix(-4.58e-6,104.835,115.319,5.04e-6,154.22,173.784)"
       spreadMethod="pad"
       id="radialGradient3288"><stop
         style="stop-opacity:1;stop-color:#d5bc63"
         offset="0"
         id="stop3290" /><stop
         style="stop-opacity:1;stop-color:#d2ba61"
         offset="1"
         id="stop3292" /></radialGradient><clipPath
       clipPathUnits="userSpaceOnUse"
       id="clipPath3304"><path
         d="m 1805.35,2525.4 0,-140.65 -69.19,0 0,71.46 -143.16,0 0,-434.25 58.91,0 0,-80.53 -199.2,0 0,80.53 58.92,0 0,434.25 -143.16,0 0,-71.46 -69.19,0 0,140.65 293.72,0 136.82,0 75.53,0 z"
         id="path3306" /></clipPath><linearGradient
       x1="0"
       y1="0"
       x2="1"
       y2="0"
       gradientUnits="userSpaceOnUse"
       gradientTransform="matrix(50.6064,0,0,-50.6064,129.928,223.341)"
       spreadMethod="pad"
       id="linearGradient3308"><stop
         style="stop-opacity:1;stop-color:#90191f"
         offset="0"
         id="stop3310" /><stop
         style="stop-opacity:1;stop-color:#a91c24"
         offset="1"
         id="stop3312" /></linearGradient></defs><sodipodi:namedview
     pagecolor="#ffffff"
     bordercolor="#666666"
     borderopacity="1"
     objecttolerance="10"
     gridtolerance="10"
     guidetolerance="10"
     inkscape:pageopacity="0"
     inkscape:pageshadow="2"
     inkscape:window-width="1440"
     inkscape:window-height="856"
     id="namedview3006"
     showgrid="false"
     inkscape:zoom="0.77804001"
     inkscape:cx="556.125"
     inkscape:cy="178.13126"
     inkscape:window-x="0"
     inkscape:window-y="202"
     inkscape:window-maximized="1"
     inkscape:current-layer="g3012" /><g
     id="g3012"
     inkscape:groupmode="layer"
     inkscape:label="ink_ext_XXXXXX"
     transform="matrix(1.25,0,0,-1.25,0,356.2625)"><g
       id="g3014"
       transform="scale(0.1,0.1)"><path
         d="m 3517.32,1638.5 -328.85,0 0,170.51 857.79,0 0,-170.51 -327.1,0 0,-967.418 -201.84,0 0,967.418"
         style="fill:#292c30;fill-opacity:1;fill-rule:nonzero;stroke:none"
         id="path3016" /><path
         d="m 4028.19,1525.39 165.3,0 13.91,-151.36 6.97,0 c 60.9,111.34 151.37,172.24 241.86,172.24 43.49,0 71.32,-5.21 97.43,-17.4 l -34.8,-173.98 c -29.59,8.69 -52.2,13.91 -88.75,13.91 -67.85,0 -149.63,-46.98 -201.82,-175.73 l 0,-521.988 -200.1,0 0,854.308"
         style="fill:#292c30;fill-opacity:1;fill-rule:nonzero;stroke:none"
         id="path3018" /><path
         d="m 4913.82,806.801 c 69.59,0 123.54,34.789 186.18,93.949 l 0,191.4 c -231.41,-29.59 -307.97,-90.48 -307.97,-175.74 0,-76.558 50.45,-109.609 121.79,-109.609 z M 5100,1217.43 c -1.74,90.47 -40.02,167.03 -154.86,167.03 -85.26,0 -165.3,-38.28 -240.12,-83.52 l -73.07,133.98 c 93.95,59.16 214.01,111.35 349.72,111.35 214.03,0 318.42,-130.49 318.42,-368.86 l 0,-506.328 -163.55,0 -15.67,93.969 -5.21,0 C 5039.1,700.648 4952.1,650.199 4851.19,650.199 c -149.65,0 -254.05,100.922 -254.05,250.551 0,182.69 153.13,278.4 502.86,316.68"
         style="fill:#292c30;fill-opacity:1;fill-rule:nonzero;stroke:none"
         id="path3020" /><path
         d="m 5357.35,1525.39 203.57,0 135.72,-443.68 c 22.61,-83.519 48.73,-170.511 71.34,-257.519 l 6.96,0 c 24.35,87.008 48.73,174 73.08,257.519 l 135.71,443.68 193.14,0 -290.57,-854.308 -231.42,0 -297.53,854.308"
         style="fill:#292c30;fill-opacity:1;fill-rule:nonzero;stroke:none"
         id="path3022" /><path
         d="m 6274.49,1525.39 200.09,0 0,-854.308 -200.09,0 0,854.308 z m -22.62,262.74 c 0,67.86 52.19,114.84 123.54,114.84 71.34,0 123.53,-46.98 123.53,-114.84 0,-66.12 -52.19,-113.1 -123.53,-113.1 -71.35,0 -123.54,46.98 -123.54,113.1"
         style="fill:#292c30;fill-opacity:1;fill-rule:nonzero;stroke:none"
         id="path3024" /><path
         d="m 6683.2,897.27 c 76.56,-59.161 149.65,-95.7 236.64,-95.7 92.23,0 135.72,43.489 135.72,102.66 0,71.34 -92.23,102.65 -182.69,137.46 -113.11,41.75 -240.12,106.13 -240.12,248.8 0,149.65 120.06,255.78 311.44,255.78 118.32,0 214.03,-48.71 283.62,-102.66 l -92.21,-121.79 c -59.16,43.5 -120.06,73.08 -187.91,73.08 -85.27,0 -125.29,-40.01 -125.29,-93.96 0,-66.11 85.27,-93.96 177.48,-127.01 116.58,-43.49 245.33,-99.18 245.33,-259.258 0,-146.152 -116.58,-264.473 -332.32,-264.473 -116.59,0 -240.12,50.449 -323.64,118.321 l 93.95,128.75"
         style="fill:#292c30;fill-opacity:1;fill-rule:nonzero;stroke:none"
         id="path3026" /><path
         d="m 8226.56,1829.88 c 139.2,0 252.28,-67.85 323.63,-144.41 L 8438.82,1560.2 c -59.16,57.42 -123.53,93.95 -210.52,93.95 -186.18,0 -320.16,-156.59 -320.16,-412.37 0,-259.249 123.53,-415.839 313.18,-415.839 100.92,0 175.75,41.758 240.12,113.09 l 111.37,-123.543 c -92.23,-106.129 -210.55,-165.289 -354.96,-165.289 -288.83,0 -516.76,208.789 -516.76,586.371 0,372.34 233.14,593.31 525.47,593.31"
         style="fill:#292c30;fill-opacity:1;fill-rule:nonzero;stroke:none"
         id="path3028" /><path
         d="m 8696.19,671.082 201.828,0 0,1137.93 -201.828,0 0,-1137.93 z"
         style="fill:#292c30;fill-opacity:1;fill-rule:nonzero;stroke:none"
         id="path3030" /><g
         id="g3032"><g
           id="g3034"
           clip-path="url(#clipPath3036)"><path
             d="m 405.07,1427.87 c -8.476,3.8 -18.312,8.42 -26.785,12.34 -2.551,1.19 -4.984,2.32 -7.223,3.36 l -17.328,8.25 c -0.906,0.43 -1.832,0.88 -2.761,1.33 -0.348,0.17 -0.696,0.34 -1.043,0.52 -1.629,0.8 -3.27,1.63 -4.887,2.46 l -2.465,4.69 c -2.008,4.01 -4.016,8.18 -5.937,12.41 -3.188,7.02 -6.27,14.2 -9.164,21.48 -0.606,1.54 -1.2,3.09 -1.786,4.65 -1.543,4 -3.035,8.03 -4.48,12.09 -4.938,13.94 -9.356,28.19 -13.359,42.58 -4.567,16.17 -8.489,32.57 -11.903,49.14 -4.422,21.49 -7.988,43.26 -11.008,65.09 l 0,0 c -3.16,24.84 -5.394,49.84 -6.484,74.89 -0.598,13.87 -0.84,27.75 -0.703,41.64 0.035,3.88 0.086,7.75 0.164,11.62 0.336,15.62 1.039,31.22 2.406,46.72 0.746,9.66 1.864,19.26 2.985,28.85 0.89,6.77 1.925,13.91 3.035,20.45 5.379,4.52 10.91,8.95 16.566,13.27 21.512,16.39 44.867,31.37 68.992,45.24 33.028,19.29 67.614,36.57 102.813,52.63 35.097,16.52 70.98,31.48 107.172,46.07 18.133,7.33 36.359,14.43 54.562,21.22 3.903,1.52 7.809,3.01 11.715,4.49 14.426,5.44 28.902,10.7 43.484,15.97 -0.011,0 -0.031,0 -0.043,-0.01 0.004,0.01 0.012,0.01 0.02,0.01 -2.691,-0.44 -5.375,-0.9 -8.063,-1.37 -36.019,-6.26 -71.699,-14.54 -107.136,-23.61 -12.465,-3.23 -24.914,-6.68 -37.336,-10.27 -12.172,-3.52 -24.317,-7.18 -36.422,-10.97 82.355,215.33 218.973,395.11 388.25,524.73 188.222,144.12 416.812,226.22 656.002,226.22 233.78,0 457.43,-78.44 643.18,-216.58 175.19,-130.28 316.65,-313.65 401.1,-534.41 -11.3,3.57 -22.63,6.99 -33.98,10.29 -13.25,3.86 -26.56,7.54 -39.89,10.99 -35.01,8.98 -70.36,17.19 -106,23.43 -0.02,0 -0.03,0 -0.05,0 -0.01,0.01 -0.01,0.01 -0.02,0.01 -3.01,0.52 -6.02,1.04 -9.04,1.54 0.01,0 0.01,0 0.02,-0.01 -0.02,0.01 -0.03,0.01 -0.04,0.01 15.96,-5.8 31.93,-11.58 47.75,-17.61 2.46,-0.94 4.92,-1.89 7.37,-2.85 18.3,-6.79 36.51,-13.89 54.58,-21.22 24.68,-9.95 49.26,-20.07 73.51,-30.75 11.31,-4.98 22.54,-10.08 33.68,-15.32 18.9,-8.62 37.6,-17.58 55.98,-27 15.9,-8.16 31.55,-16.68 46.87,-25.63 24.35,-14 47.93,-29.12 69.56,-45.69 5.45,-4.18 10.77,-8.44 15.96,-12.81 0.31,-1.73 0.61,-3.51 0.9,-5.3 0.23,-1.42 0.46,-2.85 0.68,-4.29 0.53,-3.49 1.02,-7.02 1.45,-10.47 0.02,-0.14 0.03,-0.27 0.05,-0.4 0.02,-0.16 0.04,-0.31 0.06,-0.47 1.14,-9.42 2.19,-18.9 2.95,-28.37 1.7,-19.38 2.4,-38.83 2.57,-58.35 0.02,-2.43 0.03,-4.86 0.03,-7.29 0,-36.54 -2.58,-73.06 -7.25,-109.24 -5.27,-38.68 -12.41,-77.14 -22.91,-114.24 -1.33,-4.8 -2.7,-9.58 -4.12,-14.34 -4.12,-13.68 -8.65,-27.18 -13.69,-40.35 -3.38,-8.87 -7.1,-17.6 -10.97,-26.1 l 0,0 c -1.94,-4.23 -3.95,-8.4 -6.02,-12.41 l 0,0 -2.39,-4.69 c -0.63,-0.32 -1.26,-0.65 -1.9,-0.97 -1.39,-0.69 -2.79,-1.39 -4.17,-2.07 -0.89,-0.44 -1.76,-0.86 -2.63,-1.27 l -17.34,-8.25 c -6.08,-2.84 -12.3,-5.49 -18.47,-8.24 l 30.7,116.47 c -2.8,0.75 -14.71,3.86 -35.04,8.63 -31.78,7.47 -84.15,19.02 -154.43,32.04 l 0,0 c 2.26,0.47 4.51,0.97 6.75,1.49 1.13,0.25 2.26,0.51 3.38,0.78 0.18,0.04 0.35,0.08 0.52,0.12 23.94,5.93 47.52,13.23 70.43,22.45 10.62,4.54 21.2,9.41 31.25,14.99 0.63,0.35 1.27,0.71 1.9,1.06 4.02,2.31 8.01,4.73 11.86,7.34 6.36,4.31 12.33,9.16 17.38,14.91 l 0,0 c -49.33,-16.1 -121.13,-22.2 -203.77,-22.2 -110.72,0 -240.88,10.96 -362.36,23.51 -154.49,15.92 -309.36,27.39 -464.8,31.58 -39.61,1.08 -79.27,1.68 -118.96,1.78 -42.28,-0.1 -84.49,-0.78 -126.68,-1.99 -152.79,-4.37 -305.04,-15.72 -457.025,-31.37 -121.442,-12.55 -251.555,-23.51 -362.278,-23.51 -74.543,0 -140.312,4.97 -188.687,17.76 -5.231,1.39 -10.258,2.86 -15.071,4.44 0.004,-0.01 0.008,-0.01 0.008,-0.01 -0.004,0 -0.019,0 -0.027,0.01 8.109,-9.2 18.601,-16.14 29.265,-22.25 8.075,-4.56 16.461,-8.67 24.989,-12.48 2.718,-1.22 5.445,-2.41 8.176,-3.57 22.824,-9.22 46.492,-16.52 70.371,-22.45 6.804,-1.64 13.765,-3.17 20.675,-4.53 1.59,-0.31 3.18,-0.62 4.766,-0.93 -45.223,-8.6 -82.262,-16.42 -110.344,-22.69 -37.164,-8.29 -58.609,-13.85 -62.488,-14.91 l 19.145,-72.91 12.945,-49.39 -1.77,-1.63 m 2100.61,282.66 0,0 c 27.72,-13.55 36.96,-18.06 36.96,-18.07 0.01,0 -36.96,18.07 -36.96,18.07 l 0,0 c -83.15,40.65 -114.57,266.1 -114.57,266.1 l -1.09,-136.2 -15.9,179.99 -324.15,78.51 -20.21,-272.55 c 15.7,21.31 39.28,69.54 53.84,135.71 7.79,35.35 32.86,45.41 61.71,45.41 25.16,0 53.2,-7.66 75.15,-12.88 47.1,-11.22 108.78,-26.92 118.89,-51.59 19.58,-47.86 29.15,-172.73 29.15,-172.73 l 16.83,-10.11 4.12,7.77 -0.18,-22.32 116.41,-35.11 m -1917.586,0 0,0 -36.961,-18.07 c 0.004,0 9.242,4.52 36.961,18.07 l 0,0 116.429,35.11 -0.226,28.09 7.168,-13.54 16.824,10.11 c 0,0 9.582,124.87 29.16,172.73 10.094,24.67 71.785,40.37 118.903,51.59 21.933,5.22 49.968,12.88 75.125,12.88 28.847,0 53.913,-10.06 61.703,-45.41 14.59,-66.17 38.11,-114.4 53.82,-135.71 l 0,0 -20.16,272.55 -324.149,-78.51 -18.679,-211.26 -1.344,167.47 c 0,0 -31.418,-225.45 -114.574,-266.1 m 599.056,875.2 -74.99,-221.79 1.22,-304.34 53.26,-42.34 24.2,-130.69 33.86,-76.24 653.45,-1.21 30.24,54.47 25.42,91.95 3.64,58.08 72.16,206.04 -99.28,366.36 c 0,0 -8.59,-653.56 -161.25,-653.56 -152.66,0 -183.19,0 -183.19,0 l -30.52,0 c 0,0 -30.55,0 -183.21,0 -152.66,0 -165.01,653.27 -165.01,653.27"
             style="fill:url(#radialGradient3040);fill-opacity:1;fill-rule:nonzero;stroke:none"
             id="path3046" /></g></g><path
         d="m 1677.9,225.75 c -15.29,-2.309 -30.58,-4.238 -45.77,-5.391 -9.8,-0.468 -20.16,-1.468 -29.57,-1.468 l -3.48,-0.082 c 11.81,26.39 20.77,46.839 27.57,62.351 13.81,-15.512 31.41,-34.73 51.25,-55.41"
         style="fill:#e4c795;fill-opacity:1;fill-rule:nonzero;stroke:none"
         id="path3048" /><path
         d="m 1711.13,191.879 c 47.47,-47.008 106.29,-73.918 171.03,-78.707 -108.74,-44.1603 -211.22,-61.2111 -290.17,-66.5236 -78.7,-5.2773 -158.49,4 -236.68,25.4532 6.56,1.1679 11.34,2.0078 17.13,2.707 6.42,0.7812 146.64,19.0625 209.84,113.0504 l 5.93,-0.14 15.52,0.14 c 10.5,0 20.04,0.86 30.08,1.25 23.86,2.071 47.17,5.473 70.09,10.09 2.4,-2.449 4.78,-4.859 7.23,-7.32"
         style="fill:#e4c795;fill-opacity:1;fill-rule:nonzero;stroke:none"
         id="path3050" /><path
         d="m 1845.66,1599.1 c -4.55,-5.93 -9.64,-12.48 -15.05,-19.28 -27.78,-35.12 -66.29,-80.02 -111.98,-123.95 -53.1,1.64 -107.67,2.55 -163.84,2.55 -92.82,0 -181.82,-2.45 -266.32,-6.56 119.4,49.55 262.86,97.95 418.2,127.03 45.38,8.57 91.82,15.44 138.99,20.21"
         style="fill:#6b696c;fill-opacity:1;fill-rule:nonzero;stroke:none"
         id="path3052" /><path
         d="m 1146.8,1545.64 c -42.62,-29.95 -90.76,-68.16 -137.44,-114.53 -119.551,-11.96 -223.817,-26.46 -309.856,-40.37 132.273,60.81 283.223,116.77 447.296,154.9"
         style="fill:#6b696c;fill-opacity:1;fill-rule:nonzero;stroke:none"
         id="path3054" /><path
         d="m 2607.35,1298.85 -48.61,-340.19 -232.93,-163.148 -607.49,69.07 -91.44,301.148 c -2.17,7.32 -8.35,12.71 -15.92,13.95 -22.52,3.63 -42.42,5.48 -59.02,5.48 -16.67,0 -36.51,-1.85 -59.12,-5.48 -7.49,-1.24 -13.65,-6.63 -15.89,-13.95 L 1387.72,871.922 783.629,737.488 544.238,905.18 497.07,1286.94 c 10.27,5.8 20.703,11.58 31.266,17.36 14.809,3.19 31.484,6.57 49.93,10.12 l 44.449,-360.229 c 0.687,-5.632 3.797,-10.652 8.414,-13.89 L 795.812,824.91 c 3.391,-2.301 7.407,-3.539 11.422,-3.539 1.457,0 2.86,0.141 4.403,0.469 L 1308.3,932.352 c 1.71,0.386 3.41,1 4.95,1.777 4.62,2.461 8.26,6.703 9.8,11.871 l 89.44,294.49 c 23.99,6.18 85.44,20.53 139.45,20.53 53.87,0 115.36,-14.35 139.38,-20.53 L 1780.75,946 c 2.32,-7.629 8.97,-13.102 16.9,-14.039 l 496.68,-56.43 c 4.81,-0.519 9.73,0.731 13.67,3.481 l 164.78,115.289 c 4.46,3.168 7.46,8.129 8.24,13.599 l 43.99,307.75 c 33.02,-6.33 60.66,-12.11 82.34,-16.8"
         style="fill:#88797d;fill-opacity:1;fill-rule:nonzero;stroke:none"
         id="path3056" /><path
         d="m 2668.71,1512.21 -42.76,-162.2 c -87.43,19.27 -279.53,57.1 -540.97,82.57 85.42,36.43 172.4,82.11 251.87,139.22 155.58,-21.99 269.8,-45.54 331.86,-59.59"
         style="fill:#6b696c;fill-opacity:1;fill-rule:nonzero;stroke:none"
         id="path3058" /><path
         d="m 1659.37,1403.41 c -23.93,-19.38 -49.16,-37.5 -75.41,-53.33 l -87.59,-52.87 c -54.94,-6.7 -102.62,-20.29 -105.33,-21.07 -1.61,-0.45 -3.15,-1.13 -4.55,-2.01 -4.25,-2.46 -7.49,-6.55 -9.03,-11.41 L 1288.26,968.781 811.48,862.738 661.309,967.922 617.617,1321.84 c 85.278,15.67 199.336,33.79 336.332,49.14 -14.679,-17.6 -28.937,-36.03 -42.453,-55.39 l -81.562,-117.07 118.761,79.18 c 1.774,1.23 77.395,51 201.115,111.5 123.3,9.26 259.36,15.22 404.97,15.22 35.5,0 70.33,-0.41 104.59,-1.01 M 917.211,1004.73 c 33.867,18.3 72.144,15.59 132.029,15.51 6.42,-0.16 13.05,-0.08 19.98,0.08 5.88,0.08 11.81,0.15 18.06,0.31 61.73,0.61 113.06,-5.25 112.15,91.68 -0.93,96.92 -44,175.26 -105.66,174.63 -61.73,-0.53 -121.458,-79.94 -117.762,-176.8 1,-25.23 4.711,-43.43 10.664,-56.56 -53.797,-13.49 -68.621,-46.76 -69.461,-48.85"
         style="fill:#e4c795;fill-opacity:1;fill-rule:nonzero;stroke:none"
         id="path3060" /><path
         d="m 2485.73,1322.97 -42.99,-300.89 -151.42,-106.021 -476.14,54.101 -88.83,292.56 c -2,6.49 -7.09,11.48 -13.58,13.42 -2.94,0.86 -61.9,17.67 -124.4,23.08 l 11.42,0.77 c 9.87,0.7 174.1,20.84 370.19,88.45 217.17,-16.68 394.5,-43.38 515.75,-65.47 m -304.29,-278.49 c -0.61,2.3 -13.59,41.27 -71,34.43 6.63,14.42 9.57,33.85 7.49,60.49 -7.58,96.7 -63.83,173.56 -125.49,171.41 -61.66,-2.19 -101.18,-82.35 -97.77,-179.28 3.39,-96.86 55.17,-96.17 116.83,-94 82.88,1.54 128.42,27.01 169.94,6.95"
         style="fill:#e4c795;fill-opacity:1;fill-rule:nonzero;stroke:none"
         id="path3062" /><g
         id="g3064"><g
           id="g3066"
           clip-path="url(#clipPath3068)"><path
             d="M 811.48,862.738 661.309,967.922 643.57,1111.6 617.641,1321.8 c 47.535,8.76 104.035,18.28 168.484,27.64 11.652,1.69 23.57,3.38 35.738,5.05 41.188,5.68 85.301,11.24 132.067,16.47 -2.059,-2.47 -4.114,-4.96 -6.157,-7.46 -11.043,-13.46 -21.8,-27.45 -32.113,-42 -1.394,-1.96 -2.785,-3.93 -4.164,-5.91 l -81.562,-117.07 0.004,0.01 -0.032,-0.05 118.789,79.22 0,0 c 1.446,1 51.865,34.19 137.355,79.16 19.49,10.25 40.79,21.1 63.76,32.33 17.63,1.33 35.53,2.59 53.67,3.77 108.74,7.08 226.52,11.46 351.3,11.46 16.43,0 32.71,-0.09 48.85,-0.24 18.74,-0.19 37.31,-0.47 55.73,-0.78 -1.4,-1.13 -2.81,-2.26 -4.22,-3.39 -16.72,-13.31 -34.04,-26.04 -51.89,-37.78 -6.36,-4.18 -12.8,-8.23 -19.29,-12.15 l -87.59,-52.87 c -52.36,-6.38 -98.13,-19.03 -104.65,-20.88 -0.34,-0.09 -0.57,-0.16 -0.71,-0.19 -1.63,-0.45 -3.12,-1.11 -4.52,-2.01 l 0,0 c -3.49,-2.02 -6.31,-5.13 -8.04,-8.86 -0.38,-0.82 -0.72,-1.67 -0.99,-2.55 l -53.06,-174.83 -36.16,-119.12 -449.306,-99.918 -27.465,-6.114 m 175.203,190.842 c -53.797,-13.49 -68.621,-46.76 -69.461,-48.85 l 0,0 c 25.844,13.97 54.258,15.7 92.879,15.7 11.99,0 24.96,-0.17 39.15,-0.19 2.45,-0.06 4.94,-0.08 7.45,-0.08 4.08,0 8.25,0.06 12.53,0.16 5.88,0.08 11.81,0.15 18.06,0.31 61.19,0.6 112.15,-5.15 112.16,89.15 0,0.83 0,1.68 -0.01,2.53 -0.93,96.53 -43.66,174.63 -104.92,174.63 -0.25,0 -0.49,0 -0.74,0 -59.92,-0.51 -117.954,-75.36 -117.926,-168.33 0,-2.81 0.054,-5.63 0.164,-8.47 1,-25.23 4.711,-43.43 10.664,-56.56"
             style="fill:url(#linearGradient3072);fill-opacity:1;fill-rule:nonzero;stroke:none"
             id="path3080" /></g></g><g
         id="g3082"><g
           id="g3084"
           clip-path="url(#clipPath3086)"><path
             d="m 2291.3,916.059 -476.12,54.101 -37.52,123.57 -51.31,168.99 c -1.31,4.26 -3.96,7.87 -7.46,10.4 -1.82,1.33 -3.89,2.35 -6.12,3.02 l 0,0 c -2.32,0.69 -38.85,11.12 -84.58,18.2 -12.71,1.98 -26.12,3.7 -39.7,4.87 l 3.59,0.26 7.71,0.52 c 5.09,0.36 51.35,5.91 121.88,20.49 32.59,6.73 70.35,15.4 111.65,26.38 0.01,0 0.01,0 0.02,0.01 0.01,0 0.05,0.01 0.06,0.01 42.41,11.28 88.54,24.99 136.58,41.56 217.17,-16.68 394.5,-43.38 515.75,-65.47 l -29.76,-208.31 -13.23,-92.58 -77.16,-54.029 -74.29,-51.992 m -396.82,227.311 c -0.01,-3.92 0.06,-7.86 0.2,-11.84 2.93,-83.72 42.03,-94.56 92.4,-94.56 7.9,0 16.07,0.26 24.43,0.56 59.66,1.11 99.97,14.61 133.36,14.61 13,0 24.94,-2.04 36.58,-7.66 l 0,0 c -0.56,2.12 -11.59,35.24 -57.99,35.24 -4.06,0 -8.39,-0.26 -13.01,-0.81 5.2,11.32 8.13,25.73 8.15,44.3 0,5.08 -0.21,10.47 -0.66,16.19 -7.48,95.38 -62.3,171.45 -122.97,171.45 -0.84,0 -1.68,-0.01 -2.52,-0.04 -59.14,-2.1 -97.9,-75.9 -97.97,-167.44"
             style="fill:url(#linearGradient3090);fill-opacity:1;fill-rule:nonzero;stroke:none"
             id="path3098" /></g></g><path
         d="m 2693.56,1190.63 c 7.31,-6.01 13.09,-21.6 6.56,-94.22 -8.02,-88.9 -45.39,-244.941 -68.54,-270.09 -25.54,-4.949 -79.1,0.91 -111.75,8.551 5.64,22.399 7.25,33.129 11.81,56.039 l 57.11,39.961 c 4.55,3.16 7.56,8.117 8.33,13.508 l 39.91,279.671 c 24.23,-13.12 49.15,-27.31 56.57,-33.42"
         style="fill:#e4c795;fill-opacity:1;fill-rule:nonzero;stroke:none"
         id="path3100" /><path
         d="M 588.141,825.609 C 591,815.488 594,805.398 597.105,795.441 566.379,786.41 503.793,777.762 475.484,782.699 c -23.468,23.641 -67.226,186.289 -76.796,272.661 -7.797,69.98 -2.325,85.12 4.785,90.99 8.261,6.94 39.191,24.54 65.988,38.89 l 36.187,-293.791 c 0.688,-5.64 3.7,-10.64 8.414,-13.89 l 74.079,-51.95"
         style="fill:#e4c795;fill-opacity:1;fill-rule:nonzero;stroke:none"
         id="path3102" /><path
         d="m 1743.41,821.512 -2.17,-18.75 c 0,0 -65.81,-61.032 -171.77,-74.692 -105.96,-13.648 -189.24,51.469 -189.24,51.469 3.48,-11.328 8.43,-36.879 32.42,-58.707 -28.24,3.379 -58.72,5.637 -90.69,5.637 -11.55,0 -23.22,-0.328 -34.5,-0.879 C 1222.25,722.191 1130.51,623.582 1066,524.25 1034.35,514.23 935.414,482.82 820.898,449.012 714.008,597.109 661.445,748.441 656.129,764.109 l 0.074,0.082 c -2.152,6.008 -4.324,12.047 -6.332,18.219 l 27.492,-19.219 0,-0.082 67.907,-47.539 22.699,-15.82 c 3.383,-2.398 7.398,-3.629 11.41,-3.629 1.473,0 2.93,0.16 4.387,0.449 L 1407.8,835.5 c 7,1.539 12.65,6.789 14.72,13.648 l 88.99,292.952 c 15.36,2.09 28.85,3.16 40.43,3.16 11.51,0 25.09,-1.07 40.44,-3.16 l 91.59,-301.659 c 2.33,-7.64 8.96,-13.211 16.82,-14.05 l 42.62,-4.879"
         style="fill:#e4c795;fill-opacity:1;fill-rule:nonzero;stroke:none"
         id="path3104" /><path
         d="m 2455.72,837.719 20.14,14.14 c -3.34,-13.98 -6.96,-27.871 -10.74,-41.597 -28,-89.762 -61.05,-169.16 -97.77,-239.301 -8.12,-0.563 -16.68,-0.879 -25.86,-0.879 -28.33,0 -57.27,2.406 -89.29,5.34 -55.57,5.098 -143.77,15.187 -171.63,18.43 -24,19.136 -106.1,84.378 -174.42,138.148 -2.68,2.172 -4.99,4.18 -7.25,6.031 -12.02,10.18 -25.7,21.739 -53.4,21.739 -25.16,0 -61.9,-9.161 -150.71,-36.032 46.15,34.492 46.45,79.024 46.45,79.024 l 2.17,18.75 585.43,-66.5 c 4.77,-0.551 9.71,0.679 13.73,3.449 l 58.81,41.211 54.34,38.047"
         style="fill:#e4c795;fill-opacity:1;fill-rule:nonzero;stroke:none"
         id="path3106" /><g
         id="g3108"><g
           id="g3110"
           clip-path="url(#clipPath3112)"><path
             d="m 1606.95,399.172 -0.07,0.066 c -2.85,-3 -5.63,-6.109 -8.34,-9.097 -21.21,-23.711 -40.04,-48.082 -62.03,-71.09 -13.04,-13.809 -26.09,-27.481 -39.44,-40.821 -13.35,-13.261 -26.77,-26.621 -40.75,-38.582 -6.86,-5.847 -14.59,-12.046 -20.98,-15.128 -7.03,-3.09 -16.29,-5.469 -25.16,-7.481 -17.97,-4.027 -36.43,-7.109 -55.01,-9.809 -37.06,-5.718 -74.48,-10.492 -111.91,-14.488 -37.44,-4.551 -74.94,-8.281 -112.45,-11.66 -37.5,-3.633 -75.08,-6.5 -112.45,-8.441 -9.4,-0.45 -18.735,-0.762 -28.005,-0.762 -9.101,0 -17.898,0.762 -26.839,2.25 -17.828,2.93 -35.356,9.019 -52.09,16.91 -33.496,15.82 -64.215,38.422 -91.696,64.492 23.856,-29.699 53.098,-55.152 86.582,-74.551 16.903,-9.468 34.961,-17.109 54.172,-21.66 9.594,-2.32 19.696,-3.57 29.411,-4.039 9.656,-0.449 19.225,-0.609 28.705,-0.679 76.34,0.41 151.8,7.027 227.2,15.046 37.65,4.563 75.24,9.422 112.82,15.903 18.77,3.398 37.51,7.008 56.34,11.801 9.41,2.64 18.6,4.789 28.78,9.73 5.42,2.848 9.34,6.008 13.28,9.18 3.92,3.16 7.63,6.48 11.18,9.82 28.17,26.758 52.49,56.09 76.79,85.41 20.53,25.469 38.53,49.156 57.34,75.18 l -13.89,-37.113 c -0.3,-0.879 -8.26,-21.86 -47.68,-109.977 -38.27,-85.75 -174.48,-103.34 -175.81,-103.5 -7.87,-1 -14.03,-2.09 -21.82,-3.48 -23.09,-4 -65.91,-11.582 -232.3,-30.391 -22.38,-2.5626 -44.16,-3.7891 -64.67,-3.7891 -163.601,0 -248.879,80.5701 -316.558,167.6991 -38.817,49.77 -82.809,113.199 -117.223,164.141 63.117,-29.024 129.496,-59.801 130.57,-60.274 l 10.418,-4.867 11.028,3.188 c 169.55,48.453 329.445,100.082 331.075,100.601 l 10.58,3.399 6.02,9.492 c 92.91,146.961 165.59,181.449 178.56,182.129 10.27,0.55 20.78,0.781 31.33,0.781 129.27,0 237.17,-39.981 238.24,-40.352 l 9.94,-3.711 10.13,3.161 c 164.38,51 239.39,74.242 265.23,74.242 5.01,0 5.01,0 13.51,-7.18 2.71,-2.23 5.62,-4.711 8.94,-7.41 80.49,-63.281 180.06,-142.609 181.06,-143.379 l 6.86,-5.48 8.73,-1 c 1.15,-0.161 114.83,-13.52 181.98,-19.692 33.63,-3.019 63.97,-5.539 94.91,-5.539 52.03,0 92.22,7.789 122.93,23.918 20,10.492 48.01,23.852 74.78,36.191 -30.86,-58.73 -72.54,-138.839 -103.41,-200.582 -41.06,-82.269 -118.52,-100.238 -175.09,-113.339 -9.9,-2.27 -19.21,-4.418 -27.64,-6.817 -42.45,-11.871 -130.11,-32.871 -207.43,-51.39 -21.46,-5.09 -42.3,-10.09 -61.6,-14.743 -20.74,-5.019 -41.28,-7.539 -60.87,-7.539 -57.27,0 -107.21,20.739 -148.57,61.719 -62.2,61.68 -113.05,122.242 -113.59,122.871 l -22.92,27.301 c 24,-21.602 48.45,-42.672 73.47,-63.121 31.56,-25.371 63.37,-50.551 98.47,-72.09 8.94,-5.238 17.9,-10.41 28.31,-14.488 1.33,-0.473 2.71,-0.922 4.34,-1.492 1.77,-0.45 2.08,-0.598 4.32,-0.969 3.15,-0.629 5.95,-0.879 8.73,-1.102 5.46,-0.39 10.64,-0.308 15.89,-0.148 20.68,0.84 40.73,3.238 60.8,5.719 40.14,5.23 79.72,12.48 119.31,19.82 79.02,15.672 157.58,33.191 235.07,56.558 9.64,3.012 19.37,6.184 28.94,9.582 9.57,3.239 19.67,7.418 28.78,12.508 18.45,10.024 34.96,22.992 49.78,37.352 29.17,29.39 52.56,63.75 69.22,101.172 -21.15,-34.821 -46.61,-66.782 -76.85,-92.543 -15.06,-12.887 -31.35,-24.059 -48.85,-32.239 -17.23,-8.269 -36.51,-13.05 -55.81,-18.23 -38.67,-9.801 -77.72,-18.98 -116.93,-27.238 -39.02,-8.641 -78.23,-16.68 -117.6,-24.223 -39.21,-7.891 -78.63,-14.98 -117.98,-21.148 -19.7,-3.012 -39.44,-5.86 -58.81,-7.172 -4.79,-0.321 -9.66,-0.469 -14.22,-0.41 -2.14,0.089 -4.45,0.23 -6.16,0.492 l -3.08,0.679 c -0.86,0.211 -1.8,0.372 -2.87,0.84 -8.47,2.711 -17.36,7.262 -25.93,11.969 -34.43,19.301 -67.68,42.383 -100.54,65.43 -25.47,17.91 -51.93,38.582 -77.49,57.66 -4.38,3.32 -8.8,6.641 -13.18,9.801 l -0.26,0.242"
             style="fill:url(#linearGradient3116);fill-opacity:1;fill-rule:nonzero;stroke:none"
             id="path3122" /></g></g><g
         id="g3124"><g
           id="g3126"
           clip-path="url(#clipPath3128)"><path
             d="m 2259.39,1593.32 0.44,-0.15 c -4.78,-3.4 -9.54,-6.95 -14.35,-10.35 -192.38,-134.27 -414.87,-191.15 -543.12,-214.14 90.57,74.92 161.27,163.37 196.86,211.6 11.11,15.12 18.84,26.31 22.62,31.95 65.51,-2.7 130.95,-5.87 196.4,-9.56 47.14,-2.7 94.14,-5.87 141.15,-9.35"
             style="fill:url(#linearGradient3132);fill-opacity:1;fill-rule:nonzero;stroke:none"
             id="path3138" /></g></g><g
         id="g3140"><g
           id="g3142"
           clip-path="url(#clipPath3144)"><path
             d="m 1539.22,1620.88 c 33.16,-0.08 66.35,-0.4 99.54,-0.86 -55.81,-12.34 -109.88,-26.85 -161.6,-42.75 -172.47,-53.09 -319.11,-121.55 -418.82,-174.03 111.28,106.43 229.52,166.09 243.03,172.71 l 1.31,0.7 90.06,42.68 c 48.83,0.92 97.61,1.47 146.39,1.55 l 0.09,0"
             style="fill:url(#linearGradient3148);fill-opacity:1;fill-rule:nonzero;stroke:none"
             id="path3154" /></g></g><g
         id="g3156"><g
           id="g3158"
           clip-path="url(#clipPath3160)"><path
             d="m 1210.07,1614.23 c -58.11,-11.26 -114.76,-24.77 -169.77,-40.13 -345.433,-96.69 -625.249,-264.39 -785.862,-376.05 165.312,197.63 406.007,348.74 468.832,386.33 6.792,0.84 13.503,1.61 20.378,2.31 23.84,2.54 47.844,4.55 71.926,6.41 48.082,3.62 96.223,6.87 144.539,9.57 83.267,4.69 166.617,8.56 249.957,11.56"
             style="fill:url(#linearGradient3164);fill-opacity:1;fill-rule:nonzero;stroke:none"
             id="path3170" /></g></g><path
         d="m 2024.85,2069.39 c 1.78,-52.07 0.47,-146.46 -23.78,-234.82 -0.98,-3.41 -0.84,-6.87 0,-10.12 -30.85,3.25 -61.73,6.02 -92.6,8.5 34.66,72.62 42.21,149.94 43.85,177.18 26.61,18.91 53.1,41.59 72.53,59.26"
         style="fill:#b39b5b;fill-opacity:1;fill-rule:nonzero;stroke:none"
         id="path3172" /><path
         d="m 1141.55,2010.13 c 1.61,-27.24 9.17,-104.41 43.76,-176.96 -30.88,-2.47 -61.74,-5.32 -92.54,-8.57 0.84,3.17 0.93,6.56 0,9.97 -24.23,88.2 -25.47,182.66 -23.76,234.82 19.44,-17.67 45.84,-40.35 72.54,-59.26"
         style="fill:#b39b5b;fill-opacity:1;fill-rule:nonzero;stroke:none"
         id="path3174" /><path
         d="m 1987.65,1186.39 c 17.37,0.39 31.26,14.75 30.95,32.11 -0.3,17.44 -14.65,31.33 -32.12,30.94 -17.43,-0.29 -31.25,-14.65 -30.92,-32.09 0.3,-17.36 14.66,-31.27 32.09,-30.96 z m 193.79,-141.91 c -41.52,20.06 -87.06,-5.41 -169.94,-6.95 -61.66,-2.17 -113.44,-2.86 -116.83,94 -3.41,96.93 36.11,177.09 97.77,179.28 61.66,2.15 117.91,-74.71 125.49,-171.41 2.08,-26.64 -0.86,-46.07 -7.49,-60.49 57.41,6.84 70.39,-32.13 71,-34.43"
         style="fill:#100f0d;fill-opacity:1;fill-rule:nonzero;stroke:none"
         id="path3176" /><path
         d="m 2018.6,1218.5 c 0.31,-17.36 -13.58,-31.72 -30.95,-32.11 -17.43,-0.31 -31.79,13.6 -32.09,30.96 -0.33,17.44 13.49,31.8 30.92,32.09 17.47,0.39 31.82,-13.5 32.12,-30.94"
         style="fill:#ffffff;fill-opacity:1;fill-rule:nonzero;stroke:none"
         id="path3178" /><path
         d="m 1104.11,1163.01 c 17.36,0.45 31.11,14.98 30.65,32.35 -0.47,17.44 -14.97,31.17 -32.33,30.7 -17.45,-0.45 -31.2,-14.96 -30.74,-32.32 0.47,-17.46 14.98,-31.19 32.42,-30.73 z m 95.32,-50.7 c 0.91,-96.93 -50.42,-91.07 -112.14,-91.68 -6.26,-0.15 -12.19,-0.23 -18.07,-0.31 -6.93,-0.16 -13.56,-0.24 -19.98,-0.08 -59.885,0.08 -98.162,2.79 -132.029,-15.51 0.84,2.09 15.664,35.35 69.461,48.85 -5.953,13.13 -9.664,31.33 -10.664,56.56 -3.696,96.86 56.032,176.27 117.762,176.8 61.66,0.62 104.73,-77.71 105.66,-174.63"
         style="fill:#100f0d;fill-opacity:1;fill-rule:nonzero;stroke:none"
         id="path3180" /><path
         d="m 1134.76,1195.36 c 0.46,-17.37 -13.29,-31.9 -30.65,-32.35 -17.44,-0.46 -31.95,13.27 -32.42,30.73 -0.46,17.36 13.29,31.87 30.74,32.32 17.36,0.47 31.86,-13.26 32.33,-30.7"
         style="fill:#ffffff;fill-opacity:1;fill-rule:nonzero;stroke:none"
         id="path3182" /><g
         id="g3184"><g
           id="g3186"
           clip-path="url(#clipPath3188)"><path
             d="m 711.465,1760.19 -7.168,13.54 -0.285,35.43 18.679,211.26 324.149,78.51 20.16,-272.55 c -15.71,21.31 -39.23,69.54 -53.82,135.71 -7.79,35.35 -32.856,45.41 -61.703,45.41 -25.157,0 -53.192,-7.66 -75.125,-12.88 -47.118,-11.22 -108.809,-26.92 -118.903,-51.59 -19.578,-47.86 -29.16,-172.73 -29.16,-172.73 l -16.824,-10.11"
             style="fill:url(#radialGradient3192);fill-opacity:1;fill-rule:nonzero;stroke:none"
             id="path3198" /></g></g><g
         id="g3200"><g
           id="g3202"
           clip-path="url(#clipPath3204)"><path
             d="m 2385.33,1760.19 -16.83,10.11 c 0,0 -9.57,124.87 -29.15,172.73 -10.11,24.67 -71.79,40.37 -118.89,51.59 -21.95,5.22 -49.99,12.88 -75.15,12.88 -28.85,0 -53.92,-10.06 -61.71,-45.41 -14.56,-66.17 -38.14,-114.4 -53.84,-135.71 l 20.21,272.55 324.15,-78.51 15.9,-179.99 -0.57,-72.47 -4.12,-7.77"
             style="fill:url(#radialGradient3208);fill-opacity:1;fill-rule:nonzero;stroke:none"
             id="path3214" /></g></g><g
         id="g3216"><g
           id="g3218"
           clip-path="url(#clipPath3220)"><path
             d="m 1878.15,1809.12 -653.45,1.21 -33.86,76.24 -24.2,130.69 -53.26,42.34 -1.22,304.34 74.99,221.79 c 0,0 12.35,-653.27 165.01,-653.27 152.66,0 183.21,0 183.21,0 l 30.52,0 c 0,0 30.53,0 183.19,0 152.66,0 161.25,653.56 161.25,653.56 l 99.28,-366.36 -72.16,-206.04 -3.64,-58.08 -25.42,-91.95 -30.24,-54.47"
             style="fill:url(#radialGradient3224);fill-opacity:1;fill-rule:nonzero;stroke:none"
             id="path3230" /></g></g><g
         id="g3232"><g
           id="g3234"
           clip-path="url(#clipPath3236)"><path
             d="m 2542.64,1692.46 c 0,0.01 -9.24,4.52 -36.96,18.07 l 0,0 c 0,0 36.97,-18.07 36.96,-18.07 m -36.96,18.07 -116.41,35.11 0.18,22.32 5.98,11.3 -5.41,61.17 1.09,136.2 c 0,0 31.42,-225.45 114.57,-266.1"
             style="fill:url(#radialGradient3240);fill-opacity:1;fill-rule:nonzero;stroke:none"
             id="path3246" /></g></g><g
         id="g3248"><g
           id="g3250"
           clip-path="url(#clipPath3252)"><path
             d="m 2389.45,1767.96 0.57,72.47 5.41,-61.17 -5.98,-11.3"
             style="fill:url(#radialGradient3256);fill-opacity:1;fill-rule:nonzero;stroke:none"
             id="path3262" /></g></g><g
         id="g3264"><g
           id="g3266"
           clip-path="url(#clipPath3268)"><path
             d="m 551.133,1692.46 36.961,18.07 0,0 c -27.719,-13.55 -36.957,-18.07 -36.961,-18.07 m 36.961,18.07 c 83.156,40.65 114.574,266.1 114.574,266.1 l 1.344,-167.47 -2.645,-29.9 2.93,-5.53 0.226,-28.09 -116.429,-35.11"
             style="fill:url(#radialGradient3272);fill-opacity:1;fill-rule:nonzero;stroke:none"
             id="path3278" /></g></g><g
         id="g3280"><g
           id="g3282"
           clip-path="url(#clipPath3284)"><path
             d="m 704.297,1773.73 -2.93,5.53 2.645,29.9 0.285,-35.43"
             style="fill:url(#radialGradient3288);fill-opacity:1;fill-rule:nonzero;stroke:none"
             id="path3294" /></g></g><path
         d="m 1056.97,1820.75 c -0.56,1.08 -1.01,2.32 -1.4,3.55 -28.38,103.25 -27.15,211.53 -24.6,261.46 l -294.736,-83.8 c -19.824,-129.05 -10.57,-223.89 -8.574,-241.32 24.469,6.64 49.012,12.74 73.719,18.44 40.734,9.03 81.789,16.59 122.93,23.54 41.214,6.86 82.571,12.11 123.931,17.13 2.94,0.39 5.79,0.6 8.73,1 z m 128.34,12.42 c -34.59,72.55 -42.15,149.72 -43.76,176.96 -26.7,18.91 -53.1,41.59 -72.54,59.26 -1.71,-52.16 -0.47,-146.62 23.76,-234.82 0.93,-3.41 0.84,-6.8 0,-9.97 30.8,3.25 61.66,6.1 92.54,8.57 z m 815.76,1.4 c 24.25,88.36 25.56,182.75 23.78,234.82 -19.43,-17.67 -45.92,-40.35 -72.53,-59.26 -1.64,-27.24 -9.19,-104.56 -43.85,-177.18 30.87,-2.48 61.75,-5.25 92.6,-8.5 -0.84,3.25 -0.98,6.71 0,10.12 z m 365.05,-74 c 2.01,17.34 11.34,112.2 -8.5,241.39 l -294.82,83.8 c 2.64,-49.93 3.81,-158.21 -24.52,-261.46 -0.38,-1.23 -0.84,-2.47 -1.45,-3.71 2.92,-0.31 5.86,-0.54 8.7,-0.92 82.88,-9.49 165.38,-22.76 246.96,-40.66 24.61,-5.72 49.24,-11.82 73.63,-18.44 z m 47.38,-13.91 c 39.58,-12.96 79.4,-26.7 115.46,-47.76 -19.31,7.63 -39.21,13.11 -59.29,18.05 -19.98,5.1 -40.12,9.42 -60.35,13.28 -40.52,7.63 -81.18,14.11 -122.09,19.06 -40.82,5.32 -81.71,9.8 -122.78,13.28 -41.06,3.47 -82.02,6.93 -123.17,9.34 -164.44,10.1 -329.35,12.64 -494.36,12.81 -164.98,-0.09 -329.89,-3.18 -494.37,-12.89 -41.12,-2.4 -82.101,-5.87 -123.155,-9.35 -41.043,-3.46 -82.032,-7.87 -122.778,-13.26 -40.902,-4.95 -81.574,-11.44 -122.086,-19.06 -20.215,-3.79 -40.367,-8.2 -60.426,-13.21 -19.98,-4.94 -39.98,-10.42 -59.269,-18.05 36.047,21.06 75.863,34.87 115.523,47.85 3.332,1.07 6.715,2 10.11,3.08 -0.219,0.85 -0.453,1.62 -0.621,2.54 -0.688,4.56 -15.356,112.92 10.191,267.88 1.234,7.41 6.559,13.42 13.816,15.43 l 41.907,11.95 c 9.101,325.06 142.988,477.94 147.168,482.64 C 783.312,2337.8 784.398,2109.52 786.477,2056.36 l 260.453,74.01 0.61,0.15 c 1.09,0.23 2.17,0.39 3.24,0.46 l 1.08,0.09 c 1.32,0.06 2.8,-0.09 4.27,-0.39 l 0.76,-0.24 c 1.08,-0.23 2.08,-0.6 3.23,-1.07 l 1.23,-0.71 2.55,-1.61 0.7,-0.47 0.46,-0.46 0.77,-0.62 c 0.17,-0.23 7.1,-7.09 18.14,-17.36 -2.61,85.82 1.47,332 118.7,536.03 -2.47,-7.16 -95.48,-279.13 -63.43,-583.96 10.4,-8.33 21.35,-16.51 32.02,-23.69 5.16,-3.55 8.33,-9.4 8.4,-15.66 0.09,-1 2.31,-98.16 45.23,-180.82 0.61,-1.23 1.07,-2.54 1.47,-3.86 106.73,7.26 213.76,10.19 320.56,10.27 106.83,-0.08 213.79,-3.17 320.49,-10.5 0.4,1.4 0.87,2.77 1.56,4.09 42.9,82.66 45.14,179.82 45.14,180.82 0.14,6.26 3.32,12.11 8.5,15.66 10.64,7.18 21.45,15.36 31.95,23.69 32.09,304.83 -60.92,576.8 -63.37,583.96 117.14,-204.03 121.32,-450.21 118.71,-536.03 10.94,10.27 17.9,17.13 18.11,17.36 l 0.76,0.62 0.47,0.46 0.7,0.47 2.55,1.7 1.16,0.62 c 1.17,0.47 2.22,0.84 3.39,1.15 l 0.7,0.16 c 1.38,0.3 2.87,0.45 4.25,0.39 l 1,-0.09 c 1.07,-0.07 2.24,-0.23 3.31,-0.46 l 0.61,-0.15 260.46,-74.01 c 2.1,53.16 3.18,281.44 -116.43,473.91 4.15,-4.7 138.04,-157.58 147.08,-482.64 l 41.98,-11.95 c 7.17,-2.01 12.58,-8.02 13.82,-15.43 25.54,-154.96 10.81,-263.32 10.18,-267.88 -0.14,-0.92 -0.38,-1.77 -0.61,-2.61 3.38,-1.01 6.7,-2 10.11,-3.1"
         style="fill:#100f0d;fill-opacity:1;fill-rule:nonzero;stroke:none"
         id="path3296" /><path
         d="m 1805.35,2384.75 0,140.65 -506.07,0 0,-140.65 69.19,0 0,71.46 143.16,0 0,-434.25 -58.92,0 0,-80.53 199.2,0 0,80.53 -58.91,0 0,434.25 143.16,0 0,-71.46 69.19,0 z m 52.1,192.63 0,-244.61 -173.39,0 0,71.46 -39.07,0 0,-330.17 59.02,0 0,-184.61 -303.27,0 0,184.61 58.79,0 0,330.17 -38.96,0 0,-71.46 -173.27,0 0,244.61 610.15,0"
         style="fill:#100f0d;fill-opacity:1;fill-rule:nonzero;stroke:none"
         id="path3298" /><g
         id="g3300"><g
           id="g3302"
           clip-path="url(#clipPath3304)"><path
             d="m 1805.35,2525.4 0,-140.65 -69.19,0 0,71.46 -143.16,0 0,-434.25 58.91,0 0,-80.53 -199.2,0 0,80.53 58.92,0 0,434.25 -143.16,0 0,-71.46 -69.19,0 0,140.65 506.07,0"
             style="fill:url(#linearGradient3308);fill-opacity:1;fill-rule:nonzero;stroke:none"
             id="path3314" /></g></g><path
         d="m 1995.45,1623.76 c 0,0 -124.89,-182.32 -322.19,-262.25 l 17.48,42.47 214.81,244.75 89.9,-24.97"
         style="fill:#c21e27;fill-opacity:1;fill-rule:nonzero;stroke:none"
         id="path3316" /><path
         d="m 1498.45,1628.75 c 0,0 -224.8,-47.44 -457.07,-234.77 l -12.49,7.49 352.16,249.77 117.4,-22.49"
         style="fill:#c21e27;fill-opacity:1;fill-rule:nonzero;stroke:none"
         id="path3318" /><path
         d="m 214.684,1171.71 c 0,0 307.195,319.69 689.343,439.56 l -224.785,-5 c 0,0 -447.07,-314.68 -464.558,-434.56"
         style="fill:#c21e27;fill-opacity:1;fill-rule:nonzero;stroke:none"
         id="path3320" /><path
         d="m 1217.61,1630.59 c 0,0 -536.602,-44.24 -990.536,-453.92 l 21.156,1.93 c 0,0 535.375,354.86 959.76,398.13 l 9.62,53.86"
         style="fill:#851528;fill-opacity:1;fill-rule:nonzero;stroke:none"
         id="path3322" /><path
         d="m 1061.82,1399.79 c 0,0 261.58,205.8 740.5,265.43 l -128.85,-80.79 c 0,0 -423.14,-96.17 -611.65,-184.64"
         style="fill:#851528;fill-opacity:1;fill-rule:nonzero;stroke:none"
         id="path3324" /><path
         d="m 1690.76,1367.1 c 0,0 355.82,105.76 500.08,250.02 l 121.18,-23.07 c 0,0 -371.21,-226.95 -621.26,-226.95"
         style="fill:#851528;fill-opacity:1;fill-rule:nonzero;stroke:none"
         id="path3326" /><path
         d="m 2030.81,486.039 c 0,0 290.89,-4.687 368.05,4.672 77.18,9.348 164.01,94.219 164.01,94.219 L 2425.86,546.352 2068.94,554.07 1845.66,727.699 1575.79,660.18 1263.66,687.191 1088.87,496.199 760.895,398.23 597.105,449.012 746.914,328.969 1138.49,423.27 c 0,0 133.71,185.96 171.87,197.359 38.16,11.391 240.29,-22.617 265.43,-83.258 0,0 -7.56,37.461 143.14,76.738 140.36,36.582 131.37,10.973 183.14,-28.398 51.13,-38.852 128.74,-99.672 128.74,-99.672"
         style="fill:#c21e27;fill-opacity:1;fill-rule:nonzero;stroke:none"
         id="path3328" /><path
         d="m 1605.83,394.609 c 0,0 -124.49,-164.968 -176.98,-182.98 -52.49,-18.008 -391.49,-52.5 -454.483,-46.508 -62.988,6.02 -134.98,67.481 -152.976,87 -18.016,19.508 -232.504,203.981 -232.504,203.981 l 73.508,-179.981 c 0,0 166.488,-178.4999 259.484,-199.4921 92.981,-21 260.981,1.5 386.981,21.0117 125.99,19.5004 226.49,64.4884 266.98,137.9684 40.49,73.52 46.49,94.512 46.49,94.512 0,0 120.01,-169.492 223.49,-189 103.49,-19.492 410.98,85.508 410.98,85.508 0,0 187.5,50.992 220.48,115.492 33,64.488 120.01,275.969 120.01,275.969 l -121.5,-64.488 c 0,0 -39,-152.993 -166.5,-214.493 -127.48,-61.488 -422.98,-92.988 -422.98,-92.988 0,0 -60,-13.5 -99,13.5 -38.98,26.988 -181.48,134.988 -181.48,134.988"
         style="fill:#851528;fill-opacity:1;fill-rule:nonzero;stroke:none"
         id="path3330" /><path
         d="m 440.984,1512.21 c 25.282,5.73 59.426,13.03 101.305,21.12 -25.73,-17.55 -56.168,-39.56 -89.398,-66.04 l -11.907,44.92"
         style="fill:#6b696c;fill-opacity:1;fill-rule:nonzero;stroke:none"
         id="path3332" /><path
         d="m 542.289,1533.33 c -41.879,-8.09 -76.023,-15.39 -101.305,-21.12 l 11.907,-44.92 c 33.23,26.48 63.668,48.49 89.398,66.04 m 54.816,-737.889 c -3.128,9.957 -6.093,20.071 -8.917,30.188 l -74.161,51.902 c -4.691,3.278 -7.668,8.258 -8.414,13.918 l -36.14,293.791 c -26.782,-14.35 -57.715,-31.97 -65.977,-38.89 -7.133,-5.87 -12.566,-20.97 -4.832,-90.97 9.594,-86.349 53.328,-249.028 76.828,-272.681 28.27,-4.98 90.895,3.711 121.613,12.742 m 443.225,778.649 c 54.96,15.4 111.65,28.86 169.72,40.17 -83.3,-3.05 -166.67,-6.92 -249.894,-11.61 -48.359,-2.67 -96.476,-5.95 -144.601,-9.59 -24.098,-1.86 -48.055,-3.78 -71.934,-6.4 -6.832,-0.66 -13.531,-1.41 -20.375,-2.3 -62.766,-37.56 -303.527,-188.7 -468.808,-386.33 160.597,111.64 440.406,279.37 785.892,376.06 m -31.02,-142.95 c 46.7,46.34 94.89,84.57 137.44,114.47 -164,-38.09 -314.973,-94.01 -447.223,-154.85 86.059,13.91 190.258,28.4 309.783,40.38 m 629.47,188.85 c -33.19,0.52 -66.42,0.82 -99.61,0.89 l -0.07,0 c -48.7,-0.07 -97.51,-0.6 -146.38,-1.56 l -90.06,-42.69 -1.26,-0.68 c -13.54,-6.61 -131.8,-66.27 -243.08,-172.71 99.75,52.45 246.34,120.94 418.84,174.06 51.67,15.83 105.82,30.42 161.62,42.69 m -54.82,-269.92 c 26.25,15.84 51.46,34 75.41,53.33 -34.29,0.59 -69.09,1.04 -104.56,1.04 -145.64,0 -281.68,-5.96 -405,-15.25 -123.7,-60.47 -199.341,-110.22 -201.115,-111.49 l -118.789,-79.22 81.59,117.07 c 13.465,19.44 27.746,37.87 42.473,55.41 -137,-15.31 -251.094,-33.45 -336.328,-49.16 l 43.656,-353.878 150.172,-105.184 476.761,106 89.25,294.002 c 1.5,4.84 4.76,8.93 9.01,11.39 1.4,0.9 2.89,1.56 4.52,2.01 2.76,0.74 50.44,14.35 105.41,21.05 l 87.54,52.88 m 48.19,-1129.73 c 15.17,1.191 30.41,3.121 45.75,5.43 -19.86,20.66 -37.41,39.859 -51.26,55.41 -6.76,-15.551 -15.75,-36 -27.58,-62.348 l 3.5,0 c 9.43,0 19.77,1.039 29.59,1.508 m 249.99,-107.192 c -64.7,4.774 -123.54,31.684 -171.01,78.692 -2.45,2.519 -4.83,4.922 -7.21,7.359 -22.96,-4.597 -46.25,-8.019 -70.13,-10.109 -10.03,-0.371 -19.56,-1.25 -30.04,-1.25 l -15.57,-0.16 -5.93,0.16 C 1519.1,93.8906 1378.83,75.5898 1372.42,74.7695 c -5.79,-0.6601 -10.55,-1.4804 -17.11,-2.6679 78.19,-21.4297 157.98,-30.7305 236.68,-25.4297 78.91,5.2695 181.41,22.3789 290.15,66.4761 m -51.53,1466.682 c 5.41,6.76 10.47,13.3 15,19.25 -47.14,-4.75 -93.56,-11.6 -138.93,-20.22 -155.37,-29.08 -298.86,-77.43 -418.24,-126.96 84.58,4.09 173.53,6.54 266.37,6.54 56.15,0 110.74,-0.97 163.84,-2.53 45.67,43.89 84.21,88.8 111.96,123.92 m 429.22,13.3 -0.44,0.16 c -47.01,3.49 -94.01,6.69 -141.18,9.36 -65.44,3.73 -130.91,6.85 -196.35,9.6 -3.8,-5.66 -11.53,-16.81 -22.62,-31.98 -35.61,-48.2 -106.28,-136.63 -196.88,-211.61 128.25,22.98 350.69,79.89 543.12,214.14 4.83,3.42 9.59,7 14.35,10.33 m 216,-741.251 -20.16,-14.117 -54.29,-38.09 -58.84,-41.211 c -4.01,-2.75 -8.91,-4.02 -13.7,-3.492 l -585.41,66.562 -42.62,4.84 c -7.88,0.899 -14.51,6.41 -16.82,14.051 l -91.63,301.678 c -15.31,2.09 -28.94,3.14 -40.37,3.14 -11.63,0 -25.16,-1.05 -40.48,-3.14 l -88.96,-292.971 c -2.08,-6.84 -7.73,-12.047 -14.73,-13.598 L 783.789,696.57 c -1.48,-0.289 -2.965,-0.429 -4.383,-0.429 -4.015,0 -8.035,1.191 -11.461,3.629 l -22.675,15.781 -67.907,47.519 0,0.16 -27.445,19.18 c 1.937,-6.172 4.156,-12.211 6.328,-18.219 l -0.082,-0.082 c 5.281,-15.687 57.863,-166.98 164.75,-315.058 114.457,33.769 213.456,65.16 245.066,75.199 64.48,99.371 156.27,197.922 221.51,201.34 11.22,0.531 22.92,0.879 34.51,0.879 31.91,0 62.41,-2.297 90.65,-5.637 -24.01,21.789 -28.91,47.379 -32.42,58.688 0,0 83.23,-65.079 189.21,-51.489 106.01,13.699 171.82,74.77 171.82,74.77 0,0 -0.3,-44.571 -46.48,-79.063 88.82,26.852 125.56,36.071 150.69,36.071 27.75,0 41.43,-11.598 53.4,-21.821 2.31,-1.847 4.62,-3.84 7.28,-6.008 68.29,-53.769 150.4,-119.011 174.44,-138.128 27.82,-3.262 116.02,-13.301 171.59,-18.43 32.04,-2.891 60.98,-5.352 89.31,-5.352 9.15,0 17.72,0.371 25.82,0.891 36.76,70.121 69.78,149.57 97.81,239.258 3.78,13.769 7.45,27.679 10.71,41.66 m -33.09,170.181 42.99,300.95 c -121.25,22.07 -298.55,48.77 -515.75,65.44 -196.06,-67.62 -360.28,-87.76 -370.17,-88.42 l -11.46,-0.83 c 62.54,-5.37 121.46,-22.18 124.42,-23.06 6.49,-1.94 11.55,-6.92 13.56,-13.4 l 88.87,-292.599 476.09,-54.082 151.45,106.001 m 115.95,-63.38 48.63,340.15 c -21.63,4.69 -49.29,10.47 -82.34,16.8 l -43.94,-307.77 c -0.82,-5.43 -3.8,-10.411 -8.26,-13.559 l -164.82,-115.27 c -3.88,-2.75 -8.85,-4.019 -13.61,-3.5 l -496.7,56.449 c -7.96,0.899 -14.58,6.411 -16.9,13.981 l -89.46,294.529 c -23.97,6.2 -85.46,20.55 -139.3,20.55 -54.08,0 -115.53,-14.35 -139.48,-20.55 l -89.48,-294.529 c -1.57,-5.109 -5.13,-9.371 -9.8,-11.813 -1.5,-0.816 -3.2,-1.41 -4.93,-1.796 L 811.609,821.84 c -1.558,-0.309 -2.894,-0.469 -4.386,-0.469 -4.016,0 -8.028,1.188 -11.379,3.598 L 631.094,940.32 c -4.61,3.2 -7.668,8.262 -8.399,13.91 l -44.402,360.21 c -18.449,-3.57 -35.105,-6.99 -49.992,-10.1 -10.551,-5.82 -20.973,-11.62 -31.231,-17.42 l 47.145,-381.701 239.437,-167.731 604.098,134.391 89.18,293.791 c 2.24,7.38 8.4,12.81 15.92,14.01 22.61,3.63 42.38,5.48 59.14,5.48 16.57,0 36.43,-1.85 58.97,-5.48 7.59,-1.2 13.75,-6.63 15.92,-14.01 l 91.47,-301.068 607.46,-69.09 232.88,163.168 m 67.24,391.33 42.78,162.2 c -62.04,14.05 -176.28,37.57 -331.88,59.59 -79.45,-57.13 -166.41,-102.8 -251.85,-139.24 261.44,-25.44 453.54,-63.3 540.95,-82.55 m 74.14,-253.56 c 6.56,72.58 0.84,88.2 -6.53,94.16 -7.37,6.17 -32.28,20.3 -56.53,33.46 l -39.93,-279.648 c -0.75,-5.434 -3.8,-10.352 -8.33,-13.531 l -57.13,-39.969 c -4.54,-22.891 -6.17,-33.692 -11.75,-56.07 32.65,-7.582 86.19,-13.481 111.71,-8.551 23.15,25.129 60.53,181.189 68.49,270.149 m 172.34,690.07 c 2.1,-41.87 0.98,-83.81 -3.71,-125.47 -4.39,-41.59 -12.28,-82.79 -23.27,-123.63 -5.74,-20.31 -12.35,-40.38 -20.17,-60.31 -3.94,-9.96 -8.16,-19.86 -12.78,-29.75 -2.31,-4.91 -4.76,-9.75 -7.52,-14.73 l -4.09,-7.37 c -1.49,-2.67 -2.68,-4.67 -4.99,-8.25 l -4.23,-6.56 -6.62,-3.4 c -7.08,-3.65 -12.86,-6.4 -19.28,-9.38 l -18.65,-8.41 c -12.51,-5.35 -25.06,-10.41 -37.64,-15.31 -8.78,-3.44 -16.52,-6.56 -23.88,-9.69 l -20.75,-78.82 c -0.51,0.13 -6.76,1.72 -18.43,4.53 l -1.13,-8.24 c 22.9,-11.98 67.9,-36.24 83.23,-48.89 30.86,-25.51 33.03,-65.9 26.19,-141.39 -3.5,-38.75 -16.36,-114.161 -34.22,-183.419 -30.81,-119.211 -47.16,-133.222 -68.29,-138.633 -10.71,-2.75 -27.21,-5.507 -43.22,-5.507 -32.56,0 -76.91,-0.903 -106.73,6.308 -7.66,-27.129 -29.53,-97.867 -72.82,-186.23 2.17,1.062 4.32,1.941 6.26,2.972 53.4,28.047 156.04,72.75 160.36,74.688 l 81.08,35.23 -41.52,-78.078 C 2634.63,617.082 2545.6,449.629 2491.07,340.301 2436.93,232 2335.41,208.422 2274.63,194.461 c -9.15,-2.172 -17.83,-4.18 -24.9,-6.109 -43.6,-12.27 -131.89,-33.321 -209.75,-52.051 -0.91,-0.242 -1.87,-0.469 -2.83,-0.61 -47.91,-29.609 -100.19,-56.0191 -157.39,-77.7301 -209.31,-79.2812 -429.91,-74.832 -629.92,-1.332 -32.49,-4.1797 -75.2,-9.2969 -132.08,-15.7578 -24.71,-2.7617 -48.73,-4.1797 -71.62,-4.1797 -190.57,0 -291.57,96.7696 -365.285,191.5196 -78.921,101.461 -175.449,252.09 -179.546,258.398 L 445.375,573.93 539.98,531.391 C 585.27,511 719.91,448.68 758.434,430.832 c 3.113,0.879 6.171,1.777 9.214,2.668 -64.027,91.332 -116.539,195.469 -153.66,310.82 -31.543,-9.511 -80.113,-16.871 -117.898,-16.871 -13.817,0 -26.172,1.031 -35.684,3.281 -21.133,4.821 -45.23,25.192 -78.035,140.719 -19.031,67.071 -33.242,140.271 -37.402,177.971 -8.192,73.57 -6.696,112.99 23.879,138.44 18.437,15.39 80.609,48.04 93.48,54.73 l -2.754,22.69 C 262.027,1149.18 143.629,1046.61 141.246,1044.52 L 0,920.531 100.637,1079.25 c 79.656,125.78 171.66,227.45 256.304,305.78 -3.5,1.41 -6.765,2.82 -10.199,4.23 l -18.664,8.41 c -6.398,2.98 -12.199,5.73 -19.262,9.38 l -6.625,3.4 -4.238,6.56 c -2.375,3.58 -3.418,5.58 -4.98,8.25 l -4.164,7.37 c -2.602,4.98 -5.137,9.82 -7.438,14.73 -4.691,9.89 -8.926,19.79 -12.785,29.75 -7.816,19.93 -14.438,40 -20.168,60.31 -11.082,40.84 -18.891,82.04 -23.281,123.63 -4.61,41.66 -5.801,83.6 -3.723,125.47 1.121,20.9 3.125,41.79 6.024,62.55 1.492,10.41 3.054,20.83 5.136,31.18 2.156,10.54 4.246,20.37 7.442,31.9 l 2.23,8.1 5.801,4.55 c 32.953,25.88 68.496,45.43 104.648,62.76 29.758,13.98 60.098,26.34 90.672,37.58 85.387,236.95 232.199,447.08 425.145,593.52 199.498,151.37 434.078,231.4 678.408,231.4 244.33,0 478.92,-80.03 678.39,-231.4 192.95,-146.44 339.77,-356.57 425.1,-593.45 30.64,-11.31 60.91,-23.58 90.74,-37.65 36.13,-17.33 71.7,-36.88 104.63,-62.76 l 5.81,-4.55 2.24,-8.1 c 3.27,-11.53 5.35,-21.36 7.42,-31.9 2.1,-10.35 3.74,-20.77 5.14,-31.18 2.92,-20.76 4.99,-41.65 6.02,-62.55 M 581.859,2049.67 c -36.152,-14.57 -72.07,-29.6 -107.183,-46.1 -35.184,-16.08 -69.77,-33.34 -102.797,-52.59 -30.477,-17.56 -59.719,-36.82 -85.535,-58.55 -1.11,-6.54 -2.145,-13.68 -3.035,-20.45 -1.121,-9.59 -2.239,-19.19 -2.985,-28.85 -1.707,-19.34 -2.379,-38.83 -2.59,-58.31 -0.375,-38.98 2.293,-77.96 7.207,-116.56 5.348,-38.68 12.418,-77.14 22.899,-114.24 5.219,-18.61 11.015,-36.98 17.851,-54.66 3.352,-8.95 7.075,-17.64 10.95,-26.13 1.921,-4.23 3.929,-8.4 5.937,-12.41 l 2.465,-4.69 c 2.891,-1.49 5.871,-2.97 8.691,-4.31 l 17.328,-8.25 c 9.676,-4.48 22.989,-10.79 33.997,-15.71 l 1.781,1.64 -32.055,122.29 c 6.774,1.85 67.77,17.62 172.86,37.63 -8.481,1.56 -17.11,3.41 -25.504,5.44 -23.879,5.93 -47.547,13.23 -70.371,22.45 -11.305,4.83 -22.547,10.04 -33.165,16.07 -10.64,6.1 -21.132,13.01 -29.246,22.23 115.438,-37.71 353.969,-20.6 566.036,1.27 193.975,20.02 388.315,32.95 583.705,33.4 195.4,-0.45 389.9,-13.38 583.73,-33.4 212.2,-21.87 450.75,-38.98 566.16,-1.27 -8.1,-9.22 -18.58,-16.13 -29.22,-22.23 -10.62,-6.03 -21.87,-11.24 -33.17,-16.07 -22.91,-9.22 -46.49,-16.52 -70.43,-22.45 -3.5,-0.82 -7.07,-1.65 -10.65,-2.39 115.23,-21.34 182.3,-38.75 189.45,-40.68 l -30.72,-116.48 c 6.18,2.76 12.42,5.41 18.51,8.26 l 17.34,8.25 c 2.83,1.34 5.81,2.82 8.7,4.31 l 2.39,4.69 c 2.07,4.01 4.08,8.18 6.02,12.41 3.87,8.49 7.59,17.18 11.01,26.13 6.77,17.68 12.63,36.05 17.77,54.66 10.5,37.1 17.64,75.56 22.91,114.24 4.98,38.6 7.59,77.58 7.22,116.56 -0.14,19.48 -0.89,38.97 -2.53,58.31 -0.81,9.66 -1.86,19.26 -3.05,28.85 -0.82,6.77 -1.94,13.91 -3.06,20.45 -25.82,21.73 -55.03,40.99 -85.54,58.55 -33.02,19.25 -67.59,36.51 -102.85,52.59 -35.03,16.5 -71.02,31.53 -107.18,46.1 -18.08,7.29 -36.31,14.44 -54.6,21.21 -18.21,7.06 -36.67,13.74 -55.11,20.44 38.74,-6.4 77.14,-15.23 115.13,-24.98 24.76,-6.41 49.48,-13.62 73.87,-21.28 -173.99,454.83 -590.06,751.01 -1044.28,751.01 -454.31,0 -870.303,-296.18 -1044.272,-751.01 24.461,7.66 49.086,14.87 73.778,21.28 38.086,9.75 76.457,18.58 115.222,24.98 -18.535,-6.7 -36.898,-13.38 -55.199,-20.44 -18.226,-6.77 -36.441,-13.92 -54.59,-21.21 M 1618.1,385.961 1641,358.68 c 0.51,-0.668 51.39,-61.211 113.59,-122.871 41.36,-41 91.33,-61.739 148.6,-61.739 19.56,0 40.1,2.52 60.84,7.52 19.26,4.691 40.17,9.672 61.59,14.801 77.35,18.5 164.97,39.5 207.44,51.39 8.4,2.379 17.78,4.528 27.66,6.778 56.53,13.062 134.04,31.07 175.09,113.339 30.88,61.743 72.51,141.852 103.39,200.582 -26.77,-12.339 -54.83,-25.718 -74.76,-36.21 -30.71,-16.129 -70.94,-23.938 -122.95,-23.938 -30.92,0 -61.28,2.598 -94.89,5.578 -67.17,6.172 -180.83,19.551 -182,19.711 l -8.7,0.961 -6.87,5.508 c -1.02,0.742 -100.61,80.09 -181.11,143.39 -3.26,2.68 -6.23,5.141 -8.91,7.372 -8.47,7.218 -8.47,7.218 -13.54,7.218 -25.81,0 -100.85,-23.281 -265.24,-74.238 l -10.11,-3.203 -9.9,3.73 c -1.12,0.371 -108.97,40.371 -238.22,40.371 -10.57,0 -21.12,-0.269 -31.39,-0.8 -12.95,-0.66 -85.6,-35.168 -178.51,-182.168 l -6.03,-9.43 -10.64,-3.422 c -1.54,-0.519 -161.461,-52.14 -331.043,-100.64 l -11.008,-3.129 -10.422,4.847 c -1.105,0.453 -67.461,31.231 -130.602,60.254 34.438,-50.883 78.473,-114.332 117.219,-164.101 67.684,-87.172 153,-167.7191 316.566,-167.7191 20.51,0 42.31,1.2695 64.69,3.8081 166.39,18.809 209.24,26.391 232.3,30.411 7.79,1.328 13.98,2.461 21.87,3.418 1.26,0.16 137.5,17.773 175.74,103.543 39.42,88.117 47.38,109.117 47.68,109.918 l 13.91,37.109 -3.79,3.512 c 2.76,2.968 5.51,6.097 8.34,9.089 l 0.07,-0.082 0.28,-0.238 c 4.39,-3.121 8.78,-6.461 13.16,-9.82 l -2.29,-3.129"
         style="fill:#100f0d;fill-opacity:1;fill-rule:nonzero;stroke:none"
         id="path3334" /><path
         d="m 779.379,696.121 c -4.012,0 -8.027,1.231 -11.41,3.629 l -2.953,2.059 2.929,-2.039 c 3.426,-2.438 7.446,-3.629 11.461,-3.629 1.153,0 2.348,0.089 3.547,0.281 -1.183,-0.203 -2.375,-0.301 -3.574,-0.301 m 94.305,20.469 491.576,109.469 c 0,-0.008 0,-0.028 -0.01,-0.039 L 873.684,716.59 m -90.032,20.898 0,0 114.149,25.403 0.234,0.039 -114.383,-25.442 m -106.289,25.621 0,0.082 -27.433,19.18 c -0.004,0.008 -0.008,0.027 -0.012,0.039 l 27.445,-19.18 0,-0.121"
         style="fill:#b6b1af;fill-opacity:1;fill-rule:nonzero;stroke:none"
         id="path3336" /><path
         d="m 783.652,737.488 -7.117,4.981 121.266,20.422 -114.153,-25.403"
         style="fill:#695e61;fill-opacity:1;fill-rule:nonzero;stroke:none"
         id="path3338" /><path
         d="m 801.602,643.559 c -1.692,0 -3.149,0.082 -4.356,0.25 -26.867,3.8 -77.91,32 -115.672,54.781 -15.113,35.601 -23.465,59.742 -25.41,65.519 l 0.082,0.082 c -2.168,6 -4.383,12.02 -6.316,18.18 l 27.433,-19.18 0,-0.121 67.907,-47.519 19.746,-13.742 2.953,-2.059 c 3.383,-2.398 7.398,-3.629 11.41,-3.629 1.199,0 2.391,0.098 3.574,0.301 0.277,0.039 0.559,0.09 0.836,0.148 l 89.895,20.02 491.566,109.43 C 1361.62,811 1349.33,788.961 1309.89,776.898 1247.94,757.941 864.184,643.559 801.602,643.559"
         style="fill:#a58f70;fill-opacity:1;fill-rule:nonzero;stroke:none"
         id="path3340" /><path
         d="m 779.406,696.141 c -4.015,0 -8.035,1.191 -11.461,3.629 l -2.929,2.039 -19.746,13.742 -67.907,47.519 0,0.16 -27.445,19.18 c 0.004,-0.012 0.008,-0.031 0.012,-0.039 1.933,-6.16 4.148,-12.18 6.316,-18.18 l -0.082,-0.082 c 1.945,-5.777 10.297,-29.918 25.41,-65.519 -26.828,16.18 -46.953,29.621 -46.953,29.621 l -19.965,71.008 3.192,23.41 151.121,-81.43 7.566,1.27 7.117,-4.981 114.383,25.442 468.435,78.89 c 0,0 1.02,-6.558 -1.21,-15.761 L 873.684,716.59 783.789,696.57 c -0.277,-0.058 -0.559,-0.109 -0.836,-0.148 -1.199,-0.192 -2.394,-0.281 -3.547,-0.281"
         style="fill:#110f0d;fill-opacity:1;fill-rule:nonzero;stroke:none"
         id="path3342" /><path
         d="m 2336.66,755.672 c 2.08,0.609 4.07,1.547 5.88,2.789 l 58.84,41.211 -58.81,-41.211 c -1.82,-1.25 -3.82,-2.191 -5.91,-2.789 m 119.68,27.258 c 2.98,9 5.9,18.109 8.78,27.332 3.1,11.25 6.09,22.609 8.9,34.039 -2.78,-11.43 -5.8,-22.801 -8.9,-34.082 -2.87,-9.199 -5.8,-18.297 -8.78,-27.289 m -511.61,15.711 -201.32,22.871 -1.06,-9.153 0,0 1.06,9.153 -8.63,0.988 -0.01,0.012 8.66,-0.981 201.3,-22.89 m 456.65,1.031 54.29,38.09 20.16,14.117 c 0,-0.008 0,-0.027 -0.01,-0.039 l -20.1,-14.121 -54.34,-38.047"
         style="fill:#b6b1af;fill-opacity:1;fill-rule:nonzero;stroke:none"
         id="path3344" /><path
         d="m 1742.35,812.359 c -3.13,3.371 -5.61,6.801 -7.57,10.141 l 8.63,-0.988 -1.06,-9.153"
         style="fill:#a58f70;fill-opacity:1;fill-rule:nonzero;stroke:none"
         id="path3346" /><path
         d="m 2297.73,677.031 c -70.35,0 -448.98,95.16 -510.84,111.18 -21.9,5.68 -35.77,14.699 -44.54,24.148 l 1.06,9.153 201.32,-22.871 384.11,-43.672 c 0.71,-0.078 1.43,-0.117 2.14,-0.117 1.92,0 3.84,0.277 5.68,0.82 2.09,0.598 4.09,1.539 5.91,2.789 l 58.81,41.211 54.34,38.047 20.1,14.121 c -0.58,-2.52 -1.18,-5.031 -1.8,-7.539 -2.81,-11.43 -5.8,-22.789 -8.9,-34.039 -2.88,-9.223 -5.8,-18.332 -8.78,-27.332 -2.84,-8.559 -5.73,-17.02 -8.66,-25.391 -32.82,-23.008 -107.78,-73.48 -142.85,-80.008 -1.81,-0.34 -4.19,-0.5 -7.1,-0.5"
         style="fill:#a58f70;fill-opacity:1;fill-rule:nonzero;stroke:none"
         id="path3348" /><path
         d="m 2330.98,754.852 c -0.71,0 -1.43,0.039 -2.14,0.117 l -384.11,43.672 -201.3,22.89 -8.66,0.981 c -8.71,14.859 -7.23,28.117 -7.23,28.117 l 601.3,-74.59 158.68,94.652 -2.47,-10.543 -0.98,-0.628 0.31,-2.239 -20.75,-88.371 c 0,0 -6.06,-4.441 -15.95,-11.371 2.93,8.371 5.82,16.832 8.66,25.391 2.98,8.992 5.91,18.09 8.78,27.289 3.1,11.281 6.12,22.652 8.9,34.082 0.62,2.508 1.22,5.019 1.8,7.539 0.01,0.012 0.01,0.031 0.01,0.039 l -20.16,-14.117 -54.29,-38.09 -58.84,-41.211 c -1.81,-1.242 -3.8,-2.18 -5.88,-2.789 -1.84,-0.543 -3.76,-0.82 -5.68,-0.82"
         style="fill:#110f0d;fill-opacity:1;fill-rule:nonzero;stroke:none"
         id="path3350" /><path
         d="m 496.289,781.25 c -7.559,0 -14.348,0.398 -19.898,1.301 5.543,-0.891 12.304,-1.289 19.839,-1.289 31.489,0 76.34,6.968 100.875,14.179 l 0,0 C 572.594,788.238 527.766,781.25 496.289,781.25 m -35.269,26.789 c -8.614,19.871 -18.137,48.52 -27.157,80.352 0.004,-0.012 0.004,-0.012 0.008,-0.012 9.016,-31.82 18.539,-60.481 27.149,-80.34 m 131.929,1.02 c -1.64,5.5 -3.246,11.023 -4.808,16.55 l -34.289,24.051 34.336,-24.031 c 1.542,-5.527 3.128,-11.059 4.761,-16.57"
         style="fill:#b6b1af;fill-opacity:1;fill-rule:nonzero;stroke:none"
         id="path3352" /><path
         d="m 496.23,781.262 c -7.535,0 -14.296,0.398 -19.839,1.289 -0.301,0.051 -0.606,0.097 -0.899,0.148 -4.265,4.289 -9.199,13.172 -14.472,25.34 -8.61,19.859 -18.133,48.52 -27.149,80.34 18.66,-21.379 46.902,-44.047 82.762,-44.047 10.926,0 22.558,2.098 34.844,6.988 l 2.375,-1.66 34.289,-24.051 c 1.562,-5.527 3.168,-11.05 4.808,-16.55 1.352,-4.559 2.739,-9.11 4.156,-13.618 C 572.57,788.23 527.719,781.262 496.23,781.262"
         style="fill:#a58f70;fill-opacity:1;fill-rule:nonzero;stroke:none"
         id="path3354" /><path
         d="m 476.93,764.398 -36.516,21.473 -32.215,139.617 c 0,0 9.024,-18.039 25.664,-37.097 9.02,-31.832 18.543,-60.481 27.157,-80.352 5.273,-12.168 10.207,-21.051 14.472,-25.34 0.293,-0.051 0.598,-0.097 0.899,-0.148 5.55,-0.903 12.339,-1.301 19.898,-1.301 31.477,0 76.305,6.988 100.816,14.191 l 0,0 c -1.417,4.508 -2.804,9.059 -4.156,13.618 -1.633,5.511 -3.219,11.043 -4.761,16.57 l -34.336,24.031 -2.375,1.66 c 0.925,0.371 1.847,0.75 2.777,1.149 l 64.437,-23.629 -0.843,-6.211 -11.516,6.211 8.324,-29.621 -2.406,-17.649 -135.32,-17.172"
         style="fill:#110f0d;fill-opacity:1;fill-rule:nonzero;stroke:none"
         id="path3356" /><path
         d="m 614.656,799.219 -8.324,29.621 11.516,-6.211 -3.192,-23.41"
         style="fill:#110f0d;fill-opacity:1;fill-rule:nonzero;stroke:none"
         id="path3358" /><path
         d="m 2607.41,824.488 c -1.6,0 -3.23,0.024 -4.89,0.051 1.6,-0.027 3.18,-0.051 4.74,-0.051 9.39,0 17.78,0.563 24.32,1.832 10.96,11.91 25.12,53.2 37.84,102.801 0,0.008 0,0.008 0.01,0.008 -12.72,-49.629 -26.88,-90.918 -37.85,-102.828 -6.51,-1.262 -14.83,-1.813 -24.17,-1.813 m -79.95,8.711 c -2.63,0.539 -5.17,1.09 -7.59,1.653 l 0,0.007 c 2.43,-0.57 4.96,-1.121 7.59,-1.66 m -2.15,25.422 c 0.99,4.801 1.89,9.461 2.87,14.539 0,0 0,0 0.01,0 -0.98,-5.078 -1.88,-9.738 -2.88,-14.539"
         style="fill:#b6b1af;fill-opacity:1;fill-rule:nonzero;stroke:none"
         id="path3360" /><path
         d="m 2607.26,824.488 c -1.56,0 -3.14,0.024 -4.74,0.051 -23.77,0.449 -52.81,4.09 -75.06,8.66 -2.63,0.539 -5.16,1.09 -7.59,1.66 2.34,9.371 3.99,16.711 5.44,23.762 1,4.801 1.9,9.461 2.88,14.539 7.77,-1.922 15.52,-2.789 23.17,-2.789 47.59,0.008 91.71,33.609 118.06,58.75 -12.72,-49.601 -26.88,-90.891 -37.84,-102.801 -6.54,-1.269 -14.93,-1.832 -24.32,-1.832"
         style="fill:#a58f70;fill-opacity:1;fill-rule:nonzero;stroke:none"
         id="path3362" /><path
         d="m 2625.84,795.082 -135.33,17.188 -6.13,45.011 0.67,2.867 28.03,18.082 c 5.03,-2.16 10.07,-3.832 15.1,-5.07 -0.98,-5.078 -1.88,-9.738 -2.87,-14.539 -1.45,-7.051 -3.1,-14.391 -5.44,-23.762 l 0,-0.007 c 2.42,-0.563 4.96,-1.114 7.59,-1.653 22.25,-4.57 51.29,-8.211 75.06,-8.66 1.66,-0.027 3.29,-0.051 4.89,-0.051 9.34,0 17.66,0.551 24.17,1.813 10.97,11.91 25.13,53.199 37.85,102.828 15.74,15.031 25.14,27.031 25.14,27.031 l -32.24,-139.59 -36.49,-21.488"
         style="fill:#110f0d;fill-opacity:1;fill-rule:nonzero;stroke:none"
         id="path3364" /><path
         d="m 2484.38,857.281 -0.31,2.239 0.98,0.628 -0.67,-2.867"
         style="fill:#110f0d;fill-opacity:1;fill-rule:nonzero;stroke:none"
         id="path3366" /><path
         d="m 1355.31,72.1016 c 3.94,0.707 7.23,1.289 10.49,1.789 -3.26,-0.5117 -6.56,-1.0898 -10.49,-1.789 m 78.71,16.7382 c 2.14,0.6602 4.31,1.3594 6.52,2.0821 l 0,0 c -2.21,-0.7227 -4.38,-1.4219 -6.52,-2.0821 m 425.09,15.3322 c 7.64,2.867 15.3,5.848 23.01,8.976 0,0 0.01,0 0.02,0 -7.71,-3.117 -15.39,-6.117 -23.03,-8.976"
         style="fill:#b6b1af;fill-opacity:1;fill-rule:nonzero;stroke:none"
         id="path3368" /><path
         d="m 1548.39,45.2109 c -64.45,0 -129.3,9.4102 -193.08,26.8907 l 0,0 c 3.93,0.6992 7.23,1.2773 10.49,1.789 2.16,0.3282 4.31,0.6211 6.62,0.8789 2.65,0.3399 28.14,3.6602 61.6,14.0703 2.14,0.6602 4.31,1.3594 6.52,2.0821 31.76,-5.4531 64.26,-7.75 96.44,-7.75 108.24,0 212.99,25.9371 274.69,44.7381 22.45,-8 46.03,-12.961 70.45,-14.762 -7.71,-3.128 -15.37,-6.109 -23.01,-8.976 -100.12,-37.4923 -193.8,-52.6017 -267.12,-57.5001 -14.5,-0.9805 -29.04,-1.461 -43.6,-1.461"
         style="fill:#a58f70;fill-opacity:1;fill-rule:nonzero;stroke:none"
         id="path3370" /><path
         d="m 1573.71,19.5 c -173.85,0 -291.04,59.082 -291.04,59.082 l 114.86,21.887 c 14.12,-3.8987 28.48,-7.0471 43.01,-9.5471 -2.21,-0.7227 -4.38,-1.4219 -6.52,-2.0821 -33.46,-10.4101 -58.95,-13.7304 -61.6,-14.0703 -2.31,-0.2578 -4.46,-0.5507 -6.62,-0.8789 -3.26,-0.5 -6.55,-1.082 -10.49,-1.789 l 0,0 c 63.78,-17.4805 128.63,-26.8907 193.08,-26.8907 14.56,0 29.1,0.4805 43.6,1.461 73.32,4.8984 167,20.0078 267.12,57.5001 7.64,2.859 15.32,5.859 23.03,8.976 -0.01,0 -0.02,0 -0.02,0 -24.42,1.801 -48,6.762 -70.45,14.762 35.05,10.68 56.2,19.051 56.2,19.051 l 120.32,-8.199 C 1836.5,46.8516 1691.99,19.5 1573.71,19.5"
         style="fill:#110f0d;fill-opacity:1;fill-rule:nonzero;stroke:none"
         id="path3372" /><path
         d="m 2443.51,475.262 c -16.66,-37.422 -40.05,-71.782 -69.22,-101.172 -14.82,-14.36 -31.33,-27.328 -49.78,-37.352 -9.11,-5.09 -19.21,-9.269 -28.78,-12.508 -9.57,-3.398 -19.3,-6.57 -28.94,-9.582 -77.49,-23.367 -156.05,-40.886 -235.07,-56.558 -39.59,-7.34 -79.17,-14.59 -119.31,-19.82 -20.07,-2.481 -40.12,-4.879 -60.8,-5.719 -5.25,-0.16 -10.43,-0.242 -15.89,0.148 -2.78,0.223 -5.58,0.473 -8.73,1.102 -2.24,0.371 -2.55,0.519 -4.32,0.969 -1.63,0.57 -3.01,1.019 -4.34,1.492 -10.41,4.078 -19.37,9.25 -28.31,14.488 -35.1,21.539 -66.91,46.719 -98.47,72.09 -25.02,20.449 -49.47,41.519 -73.47,63.121 l 2.31,3.168 c 25.56,-19.078 52.02,-39.75 77.49,-57.66 32.86,-23.047 66.11,-46.129 100.54,-65.43 8.57,-4.707 17.46,-9.258 25.93,-11.969 1.07,-0.468 2.01,-0.629 2.87,-0.84 l 3.08,-0.679 c 1.71,-0.262 4.02,-0.403 6.16,-0.492 4.56,-0.059 9.43,0.089 14.22,0.41 19.37,1.312 39.11,4.16 58.81,7.172 39.35,6.168 78.77,13.257 117.98,21.148 39.37,7.543 78.58,15.582 117.6,24.223 39.21,8.258 78.26,17.437 116.93,27.238 19.3,5.18 38.58,9.961 55.81,18.23 17.5,8.18 33.79,19.352 48.85,32.239 30.24,25.761 55.7,57.722 76.85,92.543"
         style="fill:#100f0d;fill-opacity:1;fill-rule:nonzero;stroke:none"
         id="path3374" /><path
         d="m 1598.54,390.141 3.79,-3.469 c -18.81,-26.024 -36.81,-49.711 -57.34,-75.18 -24.3,-29.32 -48.62,-58.652 -76.79,-85.41 -3.55,-3.34 -7.26,-6.66 -11.18,-9.82 -3.94,-3.172 -7.86,-6.332 -13.28,-9.18 -10.18,-4.941 -19.37,-7.09 -28.78,-9.73 -18.83,-4.793 -37.57,-8.403 -56.34,-11.801 -37.58,-6.481 -75.17,-11.34 -112.82,-15.903 -75.4,-8.019 -150.86,-14.636 -227.2,-15.046 -9.48,0.07 -19.049,0.23 -28.705,0.679 -9.715,0.469 -19.817,1.719 -29.411,4.039 -19.211,4.551 -37.269,12.192 -54.172,21.66 -33.484,19.399 -62.726,44.852 -86.582,74.551 27.481,-26.07 58.2,-48.672 91.696,-64.492 16.734,-7.891 34.262,-13.98 52.09,-16.91 8.941,-1.488 17.738,-2.25 26.839,-2.25 9.27,0 18.605,0.312 28.005,0.762 37.37,1.941 74.95,4.808 112.45,8.441 37.51,3.379 75.01,7.109 112.45,11.66 37.43,3.996 74.85,8.77 111.91,14.488 18.58,2.7 37.04,5.782 55.01,9.809 8.87,2.012 18.13,4.391 25.16,7.481 6.39,3.082 14.12,9.281 20.98,15.128 13.98,11.961 27.4,25.321 40.75,38.582 13.35,13.34 26.4,27.012 39.44,40.821 21.99,23.008 40.82,47.379 62.03,71.09"
         style="fill:#100f0d;fill-opacity:1;fill-rule:nonzero;stroke:none"
         id="path3376" /></g></g></svg>