<?xml version="1.0" encoding="utf-8"?>
<!-- Generator: Adobe Illustrator 13.0.0, SVG Export Plug-In . SVG Version: 6.00 Build 14948)  -->
<!DOCTYPE svg PUBLIC "-//W3C//DTD SVG 1.1//EN" "http://www.w3.org/Graphics/SVG/1.1/DTD/svg11.dtd">
<svg version="1.1" id="Layer_1" xmlns="http://www.w3.org/2000/svg" xmlns:xlink="http://www.w3.org/1999/xlink" x="0px" y="0px"
	 width="526.533px" height="318.166px" viewBox="0 0 526.533 318.166" enable-background="new 0 0 526.533 318.166"
	 xml:space="preserve">
<path fill="none" stroke="#262626" stroke-width="2.5906" d="M56.35,218.752c-25.793,0-46.848,20.547-48.196,46.415
	c0,0.039,0,0.074,0,0.109c-1.761,16.742-7.949,19.105-6.691,19.969c3.16,2.074,6.875,1.531,9.93,0.433
	c7.027,18.266,24.492,31.192,44.957,31.192c20.464,0,37.933-12.926,44.957-31.192c3.054,1.098,6.769,1.641,9.929-0.433
	c1.258-0.864-4.929-3.227-6.691-19.969C103.251,239.354,82.178,218.752,56.35,218.752z"/>
<path fill="#333333" d="M104.623,267.811c0,27.098-21.613,49.059-48.273,49.059c-26.661,0-48.274-21.961-48.274-49.059
	c0-27.093,21.613-49.058,48.274-49.058C83.01,218.753,104.623,240.718,104.623,267.811z"/>
<path fill="#262626" d="M56.35,218.745c-26.661,0-48.278,21.98-48.278,49.074c0,27.094,21.617,49.039,48.278,49.039V218.745z"/>
<path fill="#FFFFFF" d="M38.798,241.581c-12.317,0-22.293,10.14-22.293,22.656c0,0.559,0.004,1.094,0.035,1.59
	c0,0.027,0,0.051,0,0.074c-0.02,0.547-0.035,1.082-0.035,1.664c0,22.367,17.836,40.496,39.844,40.496
	c22.011,0,39.847-18.129,39.847-40.496c0-0.59-0.015-1.113-0.035-1.664c-0.004-0.027,0-0.047,0-0.074
	c0.031-0.496,0.035-1.031,0.035-1.59c0-12.516-9.976-22.656-22.293-22.656c-7.133,0-13.472,3.426-17.554,8.722
	C52.271,244.999,45.936,241.581,38.798,241.581z"/>
<path fill="#262626" d="M1.458,285.218c-1.258-0.868,4.937-3.235,6.68-20.079c6.117,4.137,7.171,12.321,9.019,17.614
	C15.873,283.46,7.587,289.237,1.458,285.218z"/>
<path fill="#333333" d="M111.231,285.218c1.262-0.868-4.933-3.235-6.679-20.079c-6.114,4.137-7.168,12.321-9.016,17.614
	C96.822,283.46,105.106,289.237,111.231,285.218z"/>
<path fill="#333333" d="M69.135,256.175c0.691-2.586,3.351-4.122,5.937-3.43c2.586,0.695,4.121,3.351,3.43,5.937
	c-0.695,2.59-3.352,4.125-5.942,3.43c-1.671-0.449-2.976-1.754-3.425-3.43l4.683-1.254L69.135,256.175z"/>
<path fill="#FAFAF5" d="M38.798,241.581c-12.317,0-22.293,10.14-22.293,22.656c0,0.559,0.004,1.094,0.035,1.59
	c0,0.027,0,0.051,0,0.074c-0.02,0.547-0.035,1.082-0.035,1.664c0,22.367,17.836,40.496,39.844,40.496v-57.758
	C52.271,244.999,45.936,241.581,38.798,241.581z"/>
<path fill="#333333" d="M34.033,256.175c0.692-2.586,3.352-4.122,5.938-3.43c2.586,0.695,4.121,3.351,3.429,5.937
	c-0.695,2.59-3.351,4.125-5.937,3.43c-1.676-0.449-2.981-1.754-3.43-3.43l4.684-1.254L34.033,256.175z"/>
<path fill="#F09322" d="M66.885,269.42l-10.535,9.571l-10.536-9.571C45.813,269.42,56.33,265.37,66.885,269.42z"/>
<path fill="none" stroke="#F09322" stroke-width="2.6114" stroke-linecap="round" stroke-linejoin="round" d="M66.885,269.42
	l-10.535,9.571l-10.536-9.571C45.813,269.42,56.33,265.37,66.885,269.42z"/>
<path fill="#F4AD39" d="M56.294,266.292v13.953c0.336,0.019,0.644-0.106,0.898-0.328l10.606-9.547
	c0.676-0.594,0.433-1.891-0.406-2.203c-2.774-1.067-5.579-1.594-8.161-1.797C58.231,266.296,57.228,266.28,56.294,266.292z"/>
<path fill="#808080" d="M519.517,289.764c0.812,0,1.586,0.122,2.328,0.36c0.75,0.23,1.406,0.574,1.969,1.031
	c0.57,0.449,1.023,1,1.359,1.656c0.344,0.657,0.516,1.414,0.516,2.266v6.328c0,0.656,0.062,1.231,0.188,1.719
	c0.133,0.492,0.352,1.027,0.656,1.609h-3.328c-0.156-0.207-0.277-0.476-0.359-0.812c-0.074-0.332-0.133-0.633-0.172-0.907
	c-0.793,0.586-1.609,1.075-2.453,1.469c-0.836,0.395-1.746,0.594-2.734,0.594c-0.656,0-1.293-0.109-1.906-0.328
	c-0.605-0.207-1.141-0.508-1.609-0.906c-0.461-0.395-0.828-0.864-1.109-1.407c-0.281-0.55-0.422-1.164-0.422-1.843
	c0-0.719,0.125-1.364,0.375-1.938c0.25-0.582,0.602-1.078,1.062-1.484c0.457-0.407,0.988-0.711,1.594-0.922
	c0.613-0.219,1.266-0.328,1.953-0.328h5.109v-0.344c0-1.07-0.258-1.836-0.766-2.297c-0.512-0.469-1.262-0.711-2.25-0.734
	c-0.887,0-1.664,0.093-2.328,0.281c-0.668,0.187-1.371,0.476-2.109,0.859l-1.359-2.343c0.945-0.54,1.875-0.938,2.781-1.188
	C517.408,289.897,518.412,289.764,519.517,289.764z M517.814,302.264c0.344,0,0.727-0.07,1.156-0.218
	c0.426-0.145,0.848-0.321,1.266-0.532c0.426-0.207,0.836-0.429,1.234-0.671c0.395-0.25,0.75-0.461,1.062-0.641v-1.5h-5.078
	c-0.617,0-1.086,0.168-1.406,0.5c-0.312,0.324-0.469,0.793-0.469,1.406c0,0.68,0.207,1.125,0.625,1.344
	C516.63,302.163,517.166,302.264,517.814,302.264z M509.408,284.233c0.477,0,0.883,0.156,1.219,0.469
	c0.344,0.344,0.516,0.746,0.516,1.203c0,0.512-0.172,0.918-0.516,1.219c-0.336,0.312-0.742,0.469-1.219,0.469
	c-0.5,0-0.906-0.157-1.219-0.469c-0.344-0.301-0.516-0.707-0.516-1.219c0-0.457,0.172-0.859,0.516-1.203
	C508.501,284.389,508.908,284.233,509.408,284.233z M507.892,304.733v-14.609h3.172v14.609H507.892z M499.615,292.546
	c-0.305,0-0.633,0.039-0.984,0.109c-0.344,0.063-0.684,0.156-1.016,0.281c-0.324,0.117-0.637,0.266-0.938,0.453
	c-0.305,0.18-0.559,0.383-0.766,0.61v10.734h-3.172v-11.015c0-0.52-0.039-0.977-0.109-1.375c-0.074-0.395-0.219-0.817-0.438-1.266
	l2.844-1.313c0.156,0.274,0.289,0.543,0.406,0.813c0.113,0.273,0.211,0.574,0.297,0.906h0.172c0.25-0.25,0.539-0.476,0.875-0.687
	c0.344-0.219,0.695-0.407,1.062-0.563c0.363-0.156,0.734-0.269,1.109-0.344c0.383-0.082,0.738-0.125,1.062-0.125
	c0.832,0,1.594,0.118,2.281,0.344c0.688,0.219,1.281,0.543,1.781,0.969c0.5,0.43,0.891,0.965,1.172,1.609
	c0.281,0.649,0.422,1.387,0.422,2.219v9.828h-3.156v-9.187C502.521,293.546,501.552,292.546,499.615,292.546z M484.626,289.764
	c0.812,0,1.586,0.122,2.328,0.36c0.75,0.23,1.406,0.574,1.969,1.031c0.57,0.449,1.023,1,1.359,1.656
	c0.344,0.657,0.516,1.414,0.516,2.266v6.328c0,0.656,0.062,1.231,0.188,1.719c0.133,0.492,0.352,1.027,0.656,1.609h-3.328
	c-0.156-0.207-0.277-0.476-0.359-0.812c-0.074-0.332-0.133-0.633-0.172-0.907c-0.793,0.586-1.609,1.075-2.453,1.469
	c-0.836,0.395-1.746,0.594-2.734,0.594c-0.656,0-1.293-0.109-1.906-0.328c-0.605-0.207-1.141-0.508-1.609-0.906
	c-0.461-0.395-0.828-0.864-1.109-1.407c-0.281-0.55-0.422-1.164-0.422-1.843c0-0.719,0.125-1.364,0.375-1.938
	c0.25-0.582,0.602-1.078,1.062-1.484c0.457-0.407,0.988-0.711,1.594-0.922c0.613-0.219,1.266-0.328,1.953-0.328h5.109v-0.344
	c0-1.07-0.258-1.836-0.766-2.297c-0.512-0.469-1.262-0.711-2.25-0.734c-0.887,0-1.664,0.093-2.328,0.281
	c-0.668,0.187-1.371,0.476-2.109,0.859l-1.359-2.343c0.945-0.54,1.875-0.938,2.781-1.188
	C482.517,289.897,483.521,289.764,484.626,289.764z M482.923,302.264c0.344,0,0.727-0.07,1.156-0.218
	c0.426-0.145,0.848-0.321,1.266-0.532c0.426-0.207,0.836-0.429,1.234-0.671c0.395-0.25,0.75-0.461,1.062-0.641v-1.5h-5.078
	c-0.617,0-1.086,0.168-1.406,0.5c-0.312,0.324-0.469,0.793-0.469,1.406c0,0.68,0.207,1.125,0.625,1.344
	C481.74,302.163,482.275,302.264,482.923,302.264z M468.431,292.139l2.781,7.954l3.141-10.329l2.828,0.907l-4.25,14.062h-3.219
	l-2-5.656l-0.594-2.813l-0.578,2.813l-1.969,5.656h-3.219l-4.266-14.062l2.844-0.907l3.109,10.329l2.781-7.954H468.431z
	 M449.451,305.077c-1.168,0-2.199-0.199-3.094-0.594c-0.887-0.394-1.633-0.937-2.234-1.625c-0.594-0.687-1.047-1.492-1.359-2.422
	c-0.305-0.925-0.453-1.929-0.453-3.015v-0.547c0.02-1.02,0.195-1.961,0.531-2.828c0.344-0.875,0.82-1.625,1.438-2.25
	c0.625-0.633,1.367-1.129,2.234-1.485c0.875-0.363,1.852-0.547,2.938-0.547c1.02,0,1.969,0.184,2.844,0.547
	c0.883,0.356,1.656,0.844,2.312,1.469c0.656,0.617,1.164,1.359,1.531,2.234c0.375,0.868,0.562,1.797,0.562,2.797v0.61
	c0,1.086-0.164,2.09-0.484,3.015c-0.324,0.93-0.797,1.735-1.422,2.422c-0.617,0.688-1.371,1.231-2.266,1.625
	C451.63,304.878,450.607,305.077,449.451,305.077z M453.701,297.421v-0.578c0-1.27-0.34-2.301-1.016-3.094
	c-0.68-0.801-1.75-1.203-3.219-1.203s-2.531,0.402-3.188,1.203c-0.656,0.793-0.984,1.836-0.984,3.125v0.672
	c0,0.699,0.055,1.336,0.172,1.906c0.113,0.562,0.328,1.059,0.641,1.484c0.312,0.43,0.738,0.758,1.281,0.985
	c0.539,0.23,1.234,0.343,2.078,0.343c0.852,0,1.551-0.117,2.094-0.359c0.539-0.238,0.969-0.578,1.281-1.016
	c0.32-0.437,0.547-0.945,0.672-1.531C453.638,298.764,453.701,298.12,453.701,297.421z M422.802,291.483
	c0.195-0.226,0.43-0.441,0.703-0.64c0.27-0.207,0.562-0.391,0.875-0.547c0.32-0.157,0.645-0.282,0.969-0.375
	c0.332-0.102,0.645-0.157,0.938-0.157c0.906,0,1.711,0.149,2.422,0.438c0.707,0.293,1.32,0.812,1.844,1.562
	c0.676-0.613,1.352-1.097,2.031-1.453c0.676-0.363,1.488-0.547,2.438-0.547c0.812,0,1.551,0.125,2.219,0.375
	c0.664,0.243,1.242,0.586,1.734,1.032c0.488,0.437,0.867,0.98,1.141,1.625c0.27,0.636,0.406,1.359,0.406,2.172v9.765h-3.156v-9.484
	c0-0.852-0.184-1.516-0.547-1.985c-0.355-0.476-1.016-0.718-1.984-0.718c-0.617,0-1.156,0.136-1.625,0.406
	c-0.461,0.273-0.914,0.621-1.359,1.047v10.734h-3.156v-9.797c0-0.832-0.219-1.437-0.656-1.812c-0.438-0.383-1.043-0.578-1.812-0.578
	c-0.637,0-1.258,0.132-1.859,0.39c-0.594,0.25-1.117,0.606-1.562,1.063v10.734h-3.156v-11.015c0-0.52-0.039-0.977-0.109-1.375
	c-0.062-0.395-0.199-0.817-0.406-1.266l2.812-1.313c0.145,0.274,0.273,0.543,0.391,0.813c0.125,0.273,0.223,0.574,0.297,0.906
	H422.802z M410.845,289.764c0.812,0,1.586,0.122,2.328,0.36c0.75,0.23,1.406,0.574,1.969,1.031c0.57,0.449,1.023,1,1.359,1.656
	c0.344,0.657,0.516,1.414,0.516,2.266v6.328c0,0.656,0.062,1.231,0.188,1.719c0.133,0.492,0.352,1.027,0.656,1.609h-3.328
	c-0.156-0.207-0.277-0.476-0.359-0.812c-0.074-0.332-0.133-0.633-0.172-0.907c-0.793,0.586-1.609,1.075-2.453,1.469
	c-0.836,0.395-1.746,0.594-2.734,0.594c-0.656,0-1.293-0.109-1.906-0.328c-0.605-0.207-1.141-0.508-1.609-0.906
	c-0.461-0.395-0.828-0.864-1.109-1.407c-0.281-0.55-0.422-1.164-0.422-1.843c0-0.719,0.125-1.364,0.375-1.938
	c0.25-0.582,0.602-1.078,1.062-1.484c0.457-0.407,0.988-0.711,1.594-0.922c0.613-0.219,1.266-0.328,1.953-0.328h5.109v-0.344
	c0-1.07-0.258-1.836-0.766-2.297c-0.512-0.469-1.262-0.711-2.25-0.734c-0.887,0-1.664,0.093-2.328,0.281
	c-0.668,0.187-1.371,0.476-2.109,0.859l-1.359-2.343c0.945-0.54,1.875-0.938,2.781-1.188
	C408.736,289.897,409.74,289.764,410.845,289.764z M409.142,302.264c0.344,0,0.727-0.07,1.156-0.218
	c0.426-0.145,0.848-0.321,1.266-0.532c0.426-0.207,0.836-0.429,1.234-0.671c0.395-0.25,0.75-0.461,1.062-0.641v-1.5h-5.078
	c-0.617,0-1.086,0.168-1.406,0.5c-0.312,0.324-0.469,0.793-0.469,1.406c0,0.68,0.207,1.125,0.625,1.344
	C407.958,302.163,408.494,302.264,409.142,302.264z M398.166,291.593c0.363-0.571,0.785-1.02,1.266-1.344
	c0.488-0.321,1.086-0.485,1.797-0.485c0.758,0,1.562,0.215,2.406,0.641l-1.094,2.938c-0.48-0.29-0.953-0.438-1.422-0.438
	c-0.617,0-1.121,0.172-1.516,0.516c-0.387,0.336-0.684,0.757-0.891,1.265c-0.211,0.512-0.355,1.059-0.438,1.641
	c-0.074,0.574-0.109,1.094-0.109,1.562v6.844h-3.172v-11.015c0-0.52-0.039-0.989-0.109-1.407c-0.074-0.414-0.219-0.828-0.438-1.234
	l2.844-1.313c0.156,0.293,0.297,0.59,0.422,0.891c0.125,0.305,0.219,0.617,0.281,0.938H398.166z M389.673,302.827
	c-0.543,0.531-1.117,0.984-1.719,1.359c-0.594,0.367-1.289,0.547-2.078,0.547c-1.992,0-3.512-0.562-4.562-1.687
	c-1.043-1.133-1.562-2.68-1.562-4.641v-1.5c0-2.437,0.633-4.234,1.906-5.391c1.27-1.164,3.113-1.75,5.531-1.75
	c0.926,0,1.883,0.086,2.875,0.25c1,0.168,1.922,0.434,2.766,0.797v13.407c0,0.945-0.172,1.816-0.516,2.609
	c-0.344,0.789-0.828,1.473-1.453,2.047c-0.617,0.582-1.34,1.031-2.172,1.344c-0.836,0.32-1.727,0.484-2.672,0.484
	c-1.062,0-2.07-0.125-3.016-0.375c-0.949-0.25-1.887-0.649-2.812-1.188l1.484-2.578c0.727,0.446,1.43,0.742,2.109,0.891
	c0.676,0.156,1.441,0.234,2.297,0.234c1.258,0,2.172-0.324,2.734-0.968c0.57-0.649,0.859-1.579,0.859-2.797V302.827z
	 M385.876,301.921c0.812,0,1.52-0.219,2.125-0.657c0.613-0.445,1.172-1.003,1.672-1.671v-6.579
	c-0.449-0.156-0.852-0.265-1.203-0.328c-0.355-0.07-0.766-0.109-1.234-0.109c-0.812,0-1.496,0.078-2.047,0.234
	c-0.555,0.157-0.996,0.414-1.328,0.766c-0.336,0.344-0.574,0.793-0.719,1.344c-0.148,0.554-0.219,1.234-0.219,2.047v1.265
	c0,0.586,0.031,1.106,0.094,1.563c0.07,0.449,0.211,0.836,0.422,1.156c0.219,0.312,0.52,0.555,0.906,0.719
	C384.728,301.839,385.24,301.921,385.876,301.921z M371.13,305.077c-1.168,0-2.199-0.199-3.094-0.594
	c-0.887-0.394-1.633-0.937-2.234-1.625c-0.594-0.687-1.047-1.492-1.359-2.422c-0.305-0.925-0.453-1.929-0.453-3.015v-0.547
	c0.02-1.02,0.195-1.961,0.531-2.828c0.344-0.875,0.82-1.625,1.438-2.25c0.625-0.633,1.367-1.129,2.234-1.485
	c0.875-0.363,1.852-0.547,2.938-0.547c1.02,0,1.969,0.184,2.844,0.547c0.883,0.356,1.656,0.844,2.312,1.469
	c0.656,0.617,1.164,1.359,1.531,2.234c0.375,0.868,0.562,1.797,0.562,2.797v0.61c0,1.086-0.164,2.09-0.484,3.015
	c-0.324,0.93-0.797,1.735-1.422,2.422c-0.617,0.688-1.371,1.231-2.266,1.625C373.31,304.878,372.287,305.077,371.13,305.077z
	 M375.38,297.421v-0.578c0-1.27-0.34-2.301-1.016-3.094c-0.68-0.801-1.75-1.203-3.219-1.203s-2.531,0.402-3.188,1.203
	c-0.656,0.793-0.984,1.836-0.984,3.125v0.672c0,0.699,0.055,1.336,0.172,1.906c0.113,0.562,0.328,1.059,0.641,1.484
	c0.312,0.43,0.738,0.758,1.281,0.985c0.539,0.23,1.234,0.343,2.078,0.343c0.852,0,1.551-0.117,2.094-0.359
	c0.539-0.238,0.969-0.578,1.281-1.016c0.32-0.437,0.547-0.945,0.672-1.531C375.318,298.764,375.38,298.12,375.38,297.421z
	 M358.126,291.593c0.363-0.571,0.785-1.02,1.266-1.344c0.488-0.321,1.086-0.485,1.797-0.485c0.758,0,1.562,0.215,2.406,0.641
	l-1.094,2.938c-0.48-0.29-0.953-0.438-1.422-0.438c-0.617,0-1.121,0.172-1.516,0.516c-0.387,0.336-0.684,0.757-0.891,1.265
	c-0.211,0.512-0.355,1.059-0.438,1.641c-0.074,0.574-0.109,1.094-0.109,1.562v6.844h-3.172v-11.015c0-0.52-0.039-0.989-0.109-1.407
	c-0.074-0.414-0.219-0.828-0.438-1.234l2.844-1.313c0.156,0.293,0.297,0.59,0.422,0.891c0.125,0.305,0.219,0.617,0.281,0.938
	H358.126z M346.517,292.546c-0.75,0-1.477,0.203-2.172,0.609c-0.699,0.406-1.277,0.902-1.734,1.484v5.344
	c0.25,0.281,0.535,0.559,0.859,0.828c0.332,0.274,0.68,0.516,1.047,0.735c0.375,0.211,0.758,0.382,1.156,0.515
	c0.395,0.137,0.797,0.203,1.203,0.203c0.656,0,1.195-0.097,1.625-0.296c0.438-0.207,0.781-0.485,1.031-0.829
	c0.258-0.351,0.438-0.769,0.531-1.25c0.094-0.476,0.141-1,0.141-1.562v-1.484c0-0.594-0.059-1.149-0.172-1.672
	c-0.117-0.532-0.32-0.989-0.609-1.375c-0.293-0.383-0.68-0.688-1.156-0.907C347.798,292.663,347.212,292.546,346.517,292.546z
	 M346.58,289.764c1.082,0,2.039,0.172,2.875,0.516c0.844,0.336,1.555,0.805,2.141,1.406c0.582,0.594,1.02,1.321,1.312,2.172
	c0.301,0.856,0.453,1.781,0.453,2.781v1.86c0,1.086-0.156,2.039-0.469,2.859c-0.305,0.824-0.742,1.512-1.312,2.063
	c-0.574,0.543-1.262,0.953-2.062,1.234c-0.805,0.281-1.684,0.422-2.641,0.422c-0.762,0-1.527-0.195-2.297-0.578
	c-0.773-0.383-1.43-0.836-1.969-1.36v7.219h-3.172v-16.64c0-0.52-0.043-0.973-0.125-1.36c-0.086-0.394-0.215-0.82-0.391-1.281
	l2.812-1.313c0.156,0.274,0.289,0.543,0.406,0.813c0.113,0.273,0.211,0.574,0.297,0.906h0.172c0.5-0.562,1.102-0.988,1.812-1.281
	C345.13,289.913,345.849,289.764,346.58,289.764z M327.916,287.28c-2.125,0-3.727,0.602-4.797,1.797
	c-1.074,1.199-1.609,2.812-1.609,4.844v0.656c0,1.062,0.102,2.055,0.312,2.969c0.207,0.906,0.562,1.695,1.062,2.359
	c0.508,0.668,1.164,1.188,1.969,1.563c0.801,0.375,1.801,0.562,3,0.562c1.238,0,2.27-0.176,3.094-0.531
	c0.82-0.352,1.477-0.86,1.969-1.516c0.488-0.656,0.836-1.441,1.047-2.359c0.219-0.926,0.328-1.942,0.328-3.047v-0.656
	c0-2.032-0.539-3.645-1.609-4.844C331.607,287.882,330.017,287.28,327.916,287.28z M327.916,305.077
	c-1.625,0-3.055-0.258-4.281-0.766c-1.23-0.508-2.25-1.226-3.062-2.156c-0.812-0.926-1.43-2.023-1.844-3.297
	c-0.418-1.281-0.625-2.687-0.625-4.219v-0.781c0-1.406,0.238-2.703,0.719-3.89c0.488-1.196,1.164-2.211,2.031-3.047
	c0.875-0.844,1.91-1.5,3.109-1.969c1.195-0.477,2.516-0.719,3.953-0.719c1.426,0,2.738,0.242,3.938,0.719
	c1.195,0.469,2.223,1.125,3.078,1.969c0.863,0.836,1.535,1.851,2.016,3.047c0.488,1.187,0.734,2.484,0.734,3.89v0.781
	c0,1.532-0.203,2.938-0.609,4.219c-0.406,1.274-1.023,2.371-1.844,3.297c-0.824,0.93-1.844,1.648-3.062,2.156
	C330.955,304.819,329.541,305.077,327.916,305.077z M302.259,305.077c-1.168,0-2.199-0.199-3.094-0.594
	c-0.887-0.394-1.633-0.937-2.234-1.625c-0.594-0.687-1.047-1.492-1.359-2.422c-0.305-0.925-0.453-1.929-0.453-3.015v-0.547
	c0.02-1.02,0.195-1.961,0.531-2.828c0.344-0.875,0.82-1.625,1.438-2.25c0.625-0.633,1.367-1.129,2.234-1.485
	c0.875-0.363,1.852-0.547,2.938-0.547c1.02,0,1.969,0.184,2.844,0.547c0.883,0.356,1.656,0.844,2.312,1.469
	c0.656,0.617,1.164,1.359,1.531,2.234c0.375,0.868,0.562,1.797,0.562,2.797v0.61c0,1.086-0.164,2.09-0.484,3.015
	c-0.324,0.93-0.797,1.735-1.422,2.422c-0.617,0.688-1.371,1.231-2.266,1.625C304.439,304.878,303.416,305.077,302.259,305.077z
	 M306.509,297.421v-0.578c0-1.27-0.34-2.301-1.016-3.094c-0.68-0.801-1.75-1.203-3.219-1.203s-2.531,0.402-3.188,1.203
	c-0.656,0.793-0.984,1.836-0.984,3.125v0.672c0,0.699,0.055,1.336,0.172,1.906c0.113,0.562,0.328,1.059,0.641,1.484
	c0.312,0.43,0.738,0.758,1.281,0.985c0.539,0.23,1.234,0.343,2.078,0.343c0.852,0,1.551-0.117,2.094-0.359
	c0.539-0.238,0.969-0.578,1.281-1.016c0.32-0.437,0.547-0.945,0.672-1.531C306.447,298.764,306.509,298.12,306.509,297.421z
	 M290.111,302.827c-0.543,0.531-1.117,0.984-1.719,1.359c-0.594,0.367-1.289,0.547-2.078,0.547c-1.992,0-3.512-0.562-4.562-1.687
	c-1.043-1.133-1.562-2.68-1.562-4.641v-1.5c0-2.437,0.633-4.234,1.906-5.391c1.27-1.164,3.113-1.75,5.531-1.75
	c0.926,0,1.883,0.086,2.875,0.25c1,0.168,1.922,0.434,2.766,0.797v13.407c0,0.945-0.172,1.816-0.516,2.609
	c-0.344,0.789-0.828,1.473-1.453,2.047c-0.617,0.582-1.34,1.031-2.172,1.344c-0.836,0.32-1.727,0.484-2.672,0.484
	c-1.062,0-2.07-0.125-3.016-0.375c-0.949-0.25-1.887-0.649-2.812-1.188l1.484-2.578c0.727,0.446,1.43,0.742,2.109,0.891
	c0.676,0.156,1.441,0.234,2.297,0.234c1.258,0,2.172-0.324,2.734-0.968c0.57-0.649,0.859-1.579,0.859-2.797V302.827z
	 M286.314,301.921c0.812,0,1.52-0.219,2.125-0.657c0.613-0.445,1.172-1.003,1.672-1.671v-6.579
	c-0.449-0.156-0.852-0.265-1.203-0.328c-0.355-0.07-0.766-0.109-1.234-0.109c-0.812,0-1.496,0.078-2.047,0.234
	c-0.555,0.157-0.996,0.414-1.328,0.766c-0.336,0.344-0.574,0.793-0.719,1.344c-0.148,0.554-0.219,1.234-0.219,2.047v1.265
	c0,0.586,0.031,1.106,0.094,1.563c0.07,0.449,0.211,0.836,0.422,1.156c0.219,0.312,0.52,0.555,0.906,0.719
	C285.166,301.839,285.677,301.921,286.314,301.921z M268.552,295.718h7.453c0-0.469-0.09-0.895-0.266-1.282
	c-0.18-0.383-0.43-0.711-0.75-0.984c-0.312-0.27-0.688-0.484-1.125-0.641c-0.438-0.156-0.918-0.234-1.438-0.234
	c-0.48,0-0.953,0.062-1.422,0.187c-0.461,0.118-0.875,0.305-1.25,0.563c-0.367,0.262-0.656,0.59-0.875,0.984
	C268.662,294.71,268.552,295.178,268.552,295.718z M268.552,298.405c0,0.563,0.066,1.086,0.203,1.563
	c0.145,0.468,0.383,0.875,0.719,1.218c0.344,0.336,0.797,0.602,1.359,0.797c0.562,0.188,1.258,0.281,2.094,0.281
	c0.727,0,1.297-0.101,1.703-0.312c0.406-0.219,0.844-0.547,1.312-0.984l2.609,1.062c-0.625,1.055-1.449,1.824-2.469,2.313
	c-1.023,0.488-2.121,0.734-3.297,0.734c-2.418,0-4.258-0.625-5.516-1.875c-1.262-1.258-1.891-3.117-1.891-5.578v-0.313
	c0-0.25,0-0.488,0-0.718c0-0.239,0.008-0.461,0.031-0.672c0.039-0.926,0.254-1.766,0.641-2.516c0.383-0.758,0.895-1.41,1.531-1.953
	c0.645-0.539,1.379-0.957,2.203-1.25c0.832-0.289,1.711-0.438,2.641-0.438c1.062,0,2.008,0.172,2.844,0.516
	c0.832,0.336,1.535,0.809,2.109,1.422c0.582,0.605,1.023,1.34,1.328,2.203c0.301,0.856,0.453,1.809,0.453,2.859v1.641H268.552z
	 M257.685,292.546c-0.305,0-0.633,0.039-0.984,0.109c-0.344,0.063-0.684,0.156-1.016,0.281c-0.324,0.117-0.637,0.266-0.938,0.453
	c-0.305,0.18-0.559,0.383-0.766,0.61v10.734h-3.172v-11.015c0-0.52-0.039-0.977-0.109-1.375c-0.074-0.395-0.219-0.817-0.437-1.266
	l2.843-1.313c0.157,0.274,0.289,0.543,0.407,0.813c0.113,0.273,0.211,0.574,0.296,0.906h0.172c0.25-0.25,0.54-0.476,0.875-0.687
	c0.344-0.219,0.695-0.407,1.062-0.563c0.363-0.156,0.734-0.269,1.109-0.344c0.383-0.082,0.738-0.125,1.062-0.125
	c0.832,0,1.594,0.118,2.281,0.344c0.688,0.219,1.281,0.543,1.781,0.969c0.5,0.43,0.891,0.965,1.172,1.609
	c0.281,0.649,0.422,1.387,0.422,2.219v9.828h-3.156v-9.187C260.591,293.546,259.623,292.546,257.685,292.546z M244.091,285.093
	l3.156-0.86v16.297c0,1.156,0.598,1.734,1.797,1.734h1.141v2.469c-0.313,0.094-0.704,0.172-1.172,0.235
	c-0.461,0.07-0.852,0.109-1.172,0.109c-0.543,0-1.043-0.09-1.5-0.266c-0.461-0.164-0.86-0.406-1.203-0.718
	c-0.336-0.321-0.594-0.707-0.782-1.157c-0.179-0.445-0.265-0.929-0.265-1.453V285.093z M235.205,305.077
	c-1.168,0-2.199-0.199-3.094-0.594c-0.886-0.394-1.633-0.937-2.234-1.625c-0.594-0.687-1.047-1.492-1.359-2.422
	c-0.305-0.925-0.454-1.929-0.454-3.015v-0.547c0.02-1.02,0.196-1.961,0.532-2.828c0.343-0.875,0.82-1.625,1.437-2.25
	c0.625-0.633,1.367-1.129,2.235-1.485c0.875-0.363,1.851-0.547,2.937-0.547c1.02,0,1.969,0.184,2.844,0.547
	c0.883,0.356,1.656,0.844,2.312,1.469c0.657,0.617,1.164,1.359,1.532,2.234c0.375,0.868,0.562,1.797,0.562,2.797v0.61
	c0,1.086-0.164,2.09-0.484,3.015c-0.325,0.93-0.797,1.735-1.422,2.422c-0.617,0.688-1.371,1.231-2.266,1.625
	C237.385,304.878,236.36,305.077,235.205,305.077z M239.455,297.421v-0.578c0-1.27-0.34-2.301-1.016-3.094
	c-0.679-0.801-1.75-1.203-3.218-1.203c-1.469,0-2.532,0.402-3.188,1.203c-0.656,0.793-0.984,1.836-0.984,3.125v0.672
	c0,0.699,0.054,1.336,0.172,1.906c0.113,0.562,0.328,1.059,0.64,1.484c0.313,0.43,0.739,0.758,1.282,0.985
	c0.539,0.23,1.234,0.343,2.078,0.343c0.851,0,1.55-0.117,2.093-0.359c0.539-0.238,0.969-0.578,1.282-1.016
	c0.32-0.437,0.547-0.945,0.672-1.531C239.393,298.764,239.455,298.12,239.455,297.421z M215.798,286.921l3.875,12.531l4.062-15.219
	l3.157,0.86l-5.219,19.64h-3.797l-3.734-12l-0.469-2.906l-0.469,2.906l-3.734,12h-3.797l-5.219-19.64l3.156-0.86l4.063,15.25
	l3.89-12.562H215.798z M190.106,284.233c0.477,0,0.883,0.156,1.219,0.469c0.344,0.344,0.516,0.746,0.516,1.203
	c0,0.512-0.172,0.918-0.516,1.219c-0.336,0.312-0.742,0.469-1.219,0.469c-0.5,0-0.906-0.157-1.218-0.469
	c-0.344-0.301-0.516-0.707-0.516-1.219c0-0.457,0.172-0.859,0.516-1.203C189.201,284.389,189.606,284.233,190.106,284.233z
	 M188.591,304.733v-14.609h3.172v14.609H188.591z M180.313,292.546c-0.304,0-0.632,0.039-0.984,0.109
	c-0.344,0.063-0.684,0.156-1.016,0.281c-0.324,0.117-0.636,0.266-0.937,0.453c-0.305,0.18-0.559,0.383-0.766,0.61v10.734h-3.172
	v-11.015c0-0.52-0.039-0.977-0.109-1.375c-0.074-0.395-0.219-0.817-0.437-1.266l2.843-1.313c0.157,0.274,0.289,0.543,0.407,0.813
	c0.113,0.273,0.21,0.574,0.296,0.906h0.172c0.25-0.25,0.539-0.476,0.875-0.687c0.344-0.219,0.696-0.407,1.063-0.563
	c0.363-0.156,0.734-0.269,1.109-0.344c0.383-0.082,0.738-0.125,1.063-0.125c0.832,0,1.593,0.118,2.281,0.344
	c0.687,0.219,1.281,0.543,1.781,0.969c0.5,0.43,0.891,0.965,1.172,1.609c0.281,0.649,0.422,1.387,0.422,2.219v9.828h-3.156v-9.187
	C183.221,293.546,182.251,292.546,180.313,292.546z M157.58,301.686h5.25c1.156,0,2.078-0.207,2.766-0.625
	c0.687-0.414,1.211-0.961,1.578-1.64c0.375-0.676,0.617-1.457,0.734-2.344c0.113-0.883,0.172-1.789,0.172-2.719
	c0-0.894-0.07-1.754-0.203-2.578c-0.137-0.82-0.399-1.535-0.781-2.141c-0.387-0.613-0.922-1.101-1.61-1.468
	c-0.687-0.364-1.586-0.547-2.687-0.547h-5.219V301.686z M163.846,304.733h-9.547v-20.156h9.484c1.469,0,2.695,0.273,3.688,0.812
	c1,0.543,1.8,1.266,2.406,2.172c0.613,0.899,1.051,1.934,1.312,3.11c0.27,1.179,0.407,2.406,0.407,3.687
	c0,1.336-0.118,2.625-0.344,3.875c-0.219,1.242-0.621,2.344-1.203,3.313c-0.586,0.968-1.383,1.746-2.391,2.328
	C166.658,304.448,165.385,304.733,163.846,304.733z"/>
<path fill="#333333" d="M287.318,232.792c-5.281,0-9.258,1.492-11.922,4.469c-2.656,2.968-3.984,6.976-3.984,12.015v1.656
	c0,2.649,0.258,5.102,0.781,7.36c0.531,2.25,1.422,4.203,2.672,5.859c1.25,1.656,2.867,2.953,4.859,3.891
	c1.988,0.929,4.473,1.39,7.453,1.39c3.07,0,5.629-0.441,7.672-1.328c2.039-0.883,3.672-2.14,4.891-3.765
	c1.227-1.633,2.102-3.594,2.625-5.875c0.531-2.282,0.797-4.789,0.797-7.532v-1.656c0-5.039-1.336-9.047-4-12.015
	C296.494,234.284,292.544,232.792,287.318,232.792z M287.318,276.995c-4.031,0-7.574-0.637-10.625-1.906
	c-3.043-1.27-5.574-3.055-7.594-5.36c-2.012-2.301-3.531-5.035-4.562-8.203c-1.031-3.176-1.547-6.66-1.547-10.453v-1.937
	c0-3.5,0.598-6.723,1.797-9.672c1.195-2.957,2.875-5.477,5.031-7.562c2.164-2.094,4.734-3.726,7.703-4.906
	c2.977-1.176,6.242-1.766,9.797-1.766c3.551,0,6.816,0.59,9.797,1.766c2.977,1.18,5.535,2.812,7.672,4.906
	c2.133,2.086,3.801,4.605,5,7.562c1.195,2.949,1.797,6.172,1.797,9.672v1.937c0,3.793-0.508,7.277-1.516,10.453
	c-1,3.168-2.523,5.902-4.562,8.203c-2.043,2.305-4.578,4.09-7.609,5.36C294.873,276.358,291.349,276.995,287.318,276.995z
	 M234.994,231.932l9.641,31.094l10.078-37.797l7.844,2.157l-12.954,48.75h-9.437l-9.281-29.813l-1.157-7.203l-1.156,7.203
	l-9.281,29.813h-9.438l-12.953-48.75l7.844-2.157l10.078,37.875l9.656-31.172H234.994z M161.541,268.573h13.031
	c2.883,0,5.176-0.516,6.875-1.547c1.707-1.031,3.016-2.383,3.922-4.062c0.914-1.688,1.516-3.629,1.797-5.828
	c0.289-2.208,0.437-4.469,0.437-6.782c0-2.207-0.167-4.328-0.5-6.359c-0.335-2.039-0.984-3.817-1.953-5.328
	c-0.961-1.52-2.293-2.735-4-3.641c-1.699-0.914-3.914-1.375-6.64-1.375h-12.969V268.573z M177.103,276.136h-23.703v-50.047h23.547
	c3.656,0,6.719,0.672,9.188,2.015c2.468,1.344,4.457,3.137,5.968,5.375c1.508,2.231,2.586,4.809,3.235,7.735
	c0.656,2.929,0.984,5.976,0.984,9.14c0,3.313-0.277,6.524-0.828,9.625c-0.555,3.094-1.555,5.844-3,8.25
	c-1.437,2.399-3.406,4.313-5.906,5.75C184.096,275.417,180.936,276.136,177.103,276.136z"/>
<path fill="none" stroke="#262626" stroke-width="2.5906" d="M56.35,1.295c-25.793,0-46.848,20.543-48.196,46.415
	c0,0.035,0,0.07,0,0.105C6.393,64.562,0.205,66.92,1.462,67.784c3.16,2.074,6.875,1.535,9.93,0.433
	c7.027,18.266,24.492,31.196,44.957,31.196c20.464,0,37.933-12.93,44.957-31.196c3.054,1.102,6.769,1.641,9.929-0.433
	c1.258-0.864-4.929-3.223-6.691-19.969C103.251,21.897,82.178,1.295,56.35,1.295z"/>
<path fill="#3C3C3C" d="M370.623,44.8c-1.637,0-3.086-0.278-4.344-0.829c-1.262-0.562-2.312-1.328-3.156-2.296
	c-0.844-0.969-1.484-2.11-1.922-3.422c-0.438-1.313-0.656-2.735-0.656-4.266v-0.781c0.02-1.445,0.27-2.785,0.75-4.016
	c0.477-1.226,1.156-2.285,2.031-3.172c0.875-0.894,1.926-1.593,3.156-2.093c1.227-0.508,2.609-0.766,4.141-0.766
	c1.445,0,2.789,0.258,4.031,0.766c1.25,0.5,2.336,1.187,3.266,2.062c0.926,0.875,1.648,1.93,2.172,3.156
	c0.52,1.231,0.781,2.559,0.781,3.985v0.859c0,1.531-0.23,2.953-0.688,4.266c-0.449,1.312-1.109,2.453-1.984,3.422
	c-0.867,0.968-1.934,1.734-3.203,2.296C373.724,44.522,372.267,44.8,370.623,44.8z M376.654,33.987v-0.828
	c0-1.801-0.48-3.258-1.438-4.375c-0.961-1.125-2.477-1.688-4.547-1.688c-2.086,0-3.59,0.563-4.516,1.688
	c-0.93,1.117-1.391,2.59-1.391,4.422v0.937c0,0.993,0.078,1.891,0.234,2.703c0.164,0.805,0.469,1.508,0.906,2.11
	c0.438,0.594,1.035,1.058,1.797,1.39c0.77,0.325,1.758,0.485,2.969,0.485c1.195,0,2.176-0.172,2.938-0.516
	c0.77-0.344,1.379-0.82,1.828-1.437c0.457-0.614,0.773-1.336,0.953-2.172C376.564,35.874,376.654,34.968,376.654,33.987z
	 M352.732,41.612c-0.762,0.762-1.57,1.402-2.422,1.922c-0.844,0.523-1.828,0.781-2.953,0.781c-2.812,0-4.961-0.797-6.438-2.39
	c-1.469-1.602-2.203-3.786-2.203-6.547v-2.125c0-3.446,0.891-5.989,2.672-7.625c1.789-1.645,4.395-2.469,7.812-2.469
	c1.312,0,2.672,0.121,4.078,0.359c1.414,0.231,2.723,0.602,3.922,1.11v18.953c0,1.332-0.246,2.562-0.734,3.687
	c-0.492,1.125-1.172,2.094-2.047,2.907c-0.875,0.82-1.902,1.457-3.078,1.906c-1.18,0.457-2.438,0.687-3.781,0.687
	c-1.5,0-2.922-0.183-4.266-0.547c-1.336-0.355-2.656-0.914-3.969-1.671l2.094-3.657c1.039,0.633,2.035,1.063,2.984,1.282
	c0.957,0.218,2.039,0.328,3.25,0.328c1.77,0,3.055-0.461,3.859-1.375c0.812-0.918,1.219-2.235,1.219-3.953V41.612z M347.357,40.331
	c1.156,0,2.16-0.313,3.016-0.938c0.863-0.625,1.648-1.398,2.359-2.328v-9.312c-0.625-0.219-1.195-0.375-1.703-0.469
	c-0.5-0.094-1.078-0.141-1.734-0.141c-1.156,0-2.125,0.11-2.906,0.328c-0.773,0.219-1.398,0.575-1.875,1.063
	c-0.48,0.492-0.824,1.125-1.031,1.906c-0.199,0.781-0.297,1.746-0.297,2.891v1.797c0,0.824,0.047,1.558,0.141,2.203
	c0.094,0.637,0.289,1.183,0.594,1.64c0.301,0.45,0.723,0.79,1.266,1.016C345.736,40.218,346.458,40.331,347.357,40.331z
	 M321.513,31.565h10.547c0-0.656-0.125-1.254-0.375-1.797c-0.25-0.55-0.602-1.015-1.047-1.39c-0.449-0.383-0.98-0.688-1.594-0.907
	c-0.617-0.218-1.293-0.328-2.031-0.328c-0.688,0-1.359,0.086-2.016,0.25c-0.656,0.157-1.246,0.422-1.766,0.797
	c-0.512,0.367-0.93,0.828-1.25,1.391C321.669,30.136,321.513,30.796,321.513,31.565z M321.513,35.378
	c0,0.793,0.102,1.527,0.312,2.203c0.207,0.668,0.551,1.242,1.031,1.719c0.477,0.468,1.113,0.843,1.906,1.125
	c0.789,0.273,1.773,0.406,2.953,0.406c1.031,0,1.832-0.149,2.406-0.453c0.57-0.301,1.188-0.766,1.844-1.391l3.703,1.516
	c-0.875,1.48-2.039,2.57-3.484,3.265c-1.449,0.688-3.012,1.032-4.688,1.032c-3.418,0-6.016-0.883-7.797-2.657
	c-1.773-1.781-2.656-4.406-2.656-7.875v-0.453c0-0.351,0-0.691,0-1.015c0-0.332,0.016-0.649,0.047-0.954
	c0.051-1.312,0.348-2.5,0.891-3.562c0.551-1.063,1.273-1.973,2.172-2.734c0.906-0.77,1.945-1.36,3.125-1.766
	c1.176-0.414,2.422-0.625,3.734-0.625c1.5,0,2.836,0.242,4.016,0.719c1.176,0.48,2.172,1.152,2.984,2.015
	c0.82,0.856,1.445,1.891,1.875,3.11c0.426,1.218,0.641,2.562,0.641,4.031v2.344H321.513z M305.439,27.096
	c-0.438,0-0.902,0.047-1.391,0.141c-0.492,0.094-0.969,0.227-1.438,0.391c-0.469,0.168-0.918,0.383-1.344,0.64
	c-0.418,0.262-0.777,0.555-1.078,0.875v15.172h-4.469V28.737c0-0.738-0.059-1.391-0.172-1.953c-0.105-0.563-0.309-1.156-0.609-1.781
	l4.016-1.844c0.219,0.387,0.41,0.773,0.578,1.156c0.164,0.375,0.301,0.797,0.406,1.266h0.25c0.352-0.352,0.77-0.68,1.25-0.985
	c0.477-0.3,0.977-0.562,1.5-0.781c0.52-0.219,1.047-0.379,1.578-0.484c0.531-0.113,1.031-0.172,1.5-0.172
	c1.176,0,2.25,0.156,3.219,0.469c0.969,0.312,1.805,0.773,2.516,1.375c0.707,0.605,1.258,1.367,1.656,2.281
	c0.395,0.918,0.594,1.961,0.594,3.125v13.906h-4.469v-13C309.533,28.503,308.166,27.096,305.439,27.096z M285.583,16.565
	l4.469-1.234v23.047c0,1.636,0.848,2.453,2.547,2.453h1.594v3.484c-0.438,0.133-0.984,0.25-1.641,0.344
	c-0.656,0.094-1.215,0.141-1.672,0.141c-0.773,0-1.48-0.125-2.125-0.375c-0.637-0.239-1.195-0.582-1.672-1.032
	c-0.48-0.445-0.852-0.984-1.109-1.609c-0.262-0.633-0.391-1.32-0.391-2.063V16.565z M272.271,44.8c-1.637,0-3.086-0.278-4.344-0.829
	c-1.262-0.562-2.312-1.328-3.156-2.296c-0.844-0.969-1.484-2.11-1.922-3.422c-0.438-1.313-0.656-2.735-0.656-4.266v-0.781
	c0.02-1.445,0.27-2.785,0.75-4.016c0.477-1.226,1.156-2.285,2.031-3.172c0.875-0.894,1.926-1.593,3.156-2.093
	c1.227-0.508,2.609-0.766,4.141-0.766c1.445,0,2.789,0.258,4.031,0.766c1.25,0.5,2.336,1.187,3.266,2.062
	c0.926,0.875,1.648,1.93,2.172,3.156c0.52,1.231,0.781,2.559,0.781,3.985v0.859c0,1.531-0.23,2.953-0.688,4.266
	c-0.449,1.312-1.109,2.453-1.984,3.422c-0.867,0.968-1.934,1.734-3.203,2.296C275.373,44.522,273.916,44.8,272.271,44.8z
	 M278.302,33.987v-0.828c0-1.801-0.48-3.258-1.438-4.375c-0.961-1.125-2.477-1.688-4.547-1.688c-2.086,0-3.59,0.563-4.516,1.688
	c-0.93,1.117-1.391,2.59-1.391,4.422v0.937c0,0.993,0.078,1.891,0.234,2.703c0.164,0.805,0.469,1.508,0.906,2.11
	c0.438,0.594,1.035,1.058,1.797,1.39c0.77,0.325,1.758,0.485,2.969,0.485c1.195,0,2.176-0.172,2.938-0.516
	c0.77-0.344,1.379-0.82,1.828-1.437c0.457-0.614,0.773-1.336,0.953-2.172C278.212,35.874,278.302,34.968,278.302,33.987z
	 M243.978,19.143l5.485,17.703l5.75-21.515l4.469,1.234l-7.391,27.75h-5.375l-5.281-16.969l-0.657-4.109l-0.656,4.109l-5.281,16.969
	h-5.375l-7.391-27.75l4.469-1.234l5.75,21.562l5.484-17.75H243.978z M206.399,15.331c0.688,0,1.258,0.219,1.719,0.656
	c0.5,0.492,0.75,1.063,0.75,1.719c0,0.711-0.25,1.281-0.75,1.719c-0.461,0.437-1.031,0.656-1.719,0.656
	c-0.711,0-1.281-0.219-1.718-0.656c-0.493-0.438-0.735-1.008-0.735-1.719c0-0.656,0.242-1.227,0.735-1.719
	C205.119,15.55,205.688,15.331,206.399,15.331z M204.274,44.315V23.659h4.469v20.656H204.274z M191.837,27.096
	c-0.438,0-0.902,0.047-1.391,0.141c-0.492,0.094-0.969,0.227-1.437,0.391c-0.469,0.168-0.918,0.383-1.344,0.64
	c-0.418,0.262-0.777,0.555-1.078,0.875v15.172h-4.469V28.737c0-0.738-0.059-1.391-0.172-1.953c-0.105-0.563-0.308-1.156-0.609-1.781
	l4.015-1.844c0.219,0.387,0.411,0.773,0.579,1.156c0.164,0.375,0.3,0.797,0.406,1.266h0.25c0.351-0.352,0.769-0.68,1.25-0.985
	c0.476-0.3,0.976-0.562,1.5-0.781c0.519-0.219,1.047-0.379,1.578-0.484c0.531-0.113,1.031-0.172,1.5-0.172
	c1.176,0,2.25,0.156,3.219,0.469c0.968,0.312,1.804,0.773,2.515,1.375c0.707,0.605,1.258,1.367,1.657,2.281
	c0.394,0.918,0.593,1.961,0.593,3.125v13.906h-4.468v-13C195.932,28.503,194.563,27.096,191.837,27.096z M158.916,40.003h7.422
	c1.633,0,2.937-0.289,3.906-0.875c0.977-0.582,1.723-1.352,2.234-2.313c0.52-0.957,0.864-2.062,1.032-3.312
	c0.164-1.258,0.25-2.547,0.25-3.86c0-1.257-0.102-2.468-0.297-3.625c-0.188-1.164-0.559-2.175-1.11-3.031
	c-0.543-0.863-1.296-1.555-2.265-2.078c-0.969-0.52-2.235-0.781-3.797-0.781h-7.375V40.003z M167.774,44.315h-13.5v-28.5h13.407
	c2.082,0,3.828,0.387,5.234,1.156c1.406,0.762,2.535,1.778,3.391,3.047c0.863,1.274,1.476,2.743,1.843,4.407
	c0.375,1.668,0.563,3.406,0.563,5.218c0,1.887-0.156,3.711-0.469,5.469c-0.312,1.762-0.883,3.328-1.703,4.703
	c-0.813,1.367-1.934,2.461-3.359,3.281C171.764,43.909,169.962,44.315,167.774,44.315z"/>
<path fill="#3C3C3C" d="M447.626,60.335c1.145,0,2.242,0.168,3.297,0.5c1.051,0.324,1.977,0.808,2.781,1.453
	c0.812,0.637,1.457,1.422,1.938,2.359c0.477,0.93,0.719,1.992,0.719,3.188v8.937c0,0.93,0.086,1.742,0.266,2.438
	c0.176,0.699,0.484,1.461,0.922,2.281h-4.719c-0.219-0.301-0.387-0.68-0.5-1.141c-0.105-0.468-0.184-0.894-0.234-1.281
	c-1.117,0.824-2.273,1.516-3.469,2.078c-1.188,0.551-2.477,0.828-3.859,0.828c-0.938,0-1.84-0.152-2.703-0.453
	c-0.855-0.289-1.609-0.719-2.266-1.281c-0.656-0.563-1.184-1.227-1.578-2c-0.398-0.781-0.594-1.648-0.594-2.609
	c0-1.008,0.176-1.926,0.531-2.75c0.352-0.821,0.852-1.52,1.5-2.094c0.645-0.57,1.395-1.008,2.25-1.313
	c0.863-0.3,1.785-0.453,2.766-0.453h7.219v-0.484c0-1.508-0.367-2.586-1.094-3.235c-0.719-0.656-1.777-1-3.172-1.031
	c-1.25,0-2.352,0.133-3.297,0.391c-0.949,0.262-1.938,0.664-2.969,1.203l-1.938-3.313c1.344-0.769,2.656-1.332,3.938-1.687
	C444.65,60.514,446.072,60.335,447.626,60.335z M445.205,78.007c0.5,0,1.047-0.098,1.641-0.297c0.602-0.207,1.207-0.461,1.812-0.766
	c0.602-0.301,1.18-0.625,1.734-0.969c0.562-0.343,1.062-0.632,1.5-0.875v-2.14h-7.172c-0.875,0-1.543,0.234-2,0.703
	c-0.449,0.461-0.672,1.125-0.672,2c0,0.961,0.301,1.59,0.906,1.89C443.556,77.858,444.306,78.007,445.205,78.007z M432.712,52.507
	c0.688,0,1.258,0.218,1.719,0.656c0.5,0.492,0.75,1.062,0.75,1.719c0,0.711-0.25,1.281-0.75,1.718
	c-0.461,0.438-1.031,0.657-1.719,0.657c-0.711,0-1.281-0.219-1.719-0.657c-0.492-0.437-0.734-1.007-0.734-1.718
	c0-0.657,0.242-1.227,0.734-1.719C431.431,52.725,432.001,52.507,432.712,52.507z M430.587,81.491V60.835h4.469v20.656H430.587z
	 M418.15,64.272c-0.438,0-0.902,0.047-1.391,0.141c-0.492,0.094-0.969,0.226-1.438,0.39c-0.469,0.168-0.918,0.383-1.344,0.641
	c-0.418,0.262-0.777,0.555-1.078,0.875v15.172h-4.469V65.913c0-0.738-0.059-1.391-0.172-1.953c-0.105-0.563-0.309-1.157-0.609-1.782
	l4.016-1.843c0.219,0.386,0.41,0.773,0.578,1.156c0.164,0.375,0.301,0.797,0.406,1.266h0.25c0.352-0.352,0.77-0.68,1.25-0.985
	c0.477-0.301,0.977-0.562,1.5-0.781c0.52-0.219,1.047-0.379,1.578-0.484c0.531-0.114,1.031-0.172,1.5-0.172
	c1.176,0,2.25,0.156,3.219,0.468c0.969,0.313,1.805,0.774,2.516,1.375c0.707,0.606,1.258,1.368,1.656,2.282
	c0.395,0.918,0.594,1.961,0.594,3.125v13.906h-4.469v-13C422.244,65.678,420.876,64.272,418.15,64.272z M396.232,60.335
	c1.145,0,2.242,0.168,3.297,0.5c1.051,0.324,1.977,0.808,2.781,1.453c0.812,0.637,1.457,1.422,1.938,2.359
	c0.477,0.93,0.719,1.992,0.719,3.188v8.937c0,0.93,0.086,1.742,0.266,2.438c0.176,0.699,0.484,1.461,0.922,2.281h-4.719
	c-0.219-0.301-0.387-0.68-0.5-1.141c-0.105-0.468-0.184-0.894-0.234-1.281c-1.117,0.824-2.273,1.516-3.469,2.078
	c-1.188,0.551-2.477,0.828-3.859,0.828c-0.938,0-1.84-0.152-2.703-0.453c-0.855-0.289-1.609-0.719-2.266-1.281
	c-0.656-0.563-1.184-1.227-1.578-2c-0.398-0.781-0.594-1.648-0.594-2.609c0-1.008,0.176-1.926,0.531-2.75
	c0.352-0.821,0.852-1.52,1.5-2.094c0.645-0.57,1.395-1.008,2.25-1.313c0.863-0.3,1.785-0.453,2.766-0.453h7.219v-0.484
	c0-1.508-0.367-2.586-1.094-3.235c-0.719-0.656-1.777-1-3.172-1.031c-1.25,0-2.352,0.133-3.297,0.391
	c-0.949,0.262-1.938,0.664-2.969,1.203l-1.938-3.313c1.344-0.769,2.656-1.332,3.938-1.687
	C393.255,60.514,394.677,60.335,396.232,60.335z M393.81,78.007c0.5,0,1.047-0.098,1.641-0.297c0.602-0.207,1.207-0.461,1.812-0.766
	c0.602-0.301,1.18-0.625,1.734-0.969c0.562-0.343,1.062-0.632,1.5-0.875v-2.14h-7.172c-0.875,0-1.543,0.234-2,0.703
	c-0.449,0.461-0.672,1.125-0.672,2c0,0.961,0.301,1.59,0.906,1.89C392.162,77.858,392.912,78.007,393.81,78.007z M372.544,63.694
	l3.938,11.234l4.438-14.593l4.016,1.265l-6.031,19.891h-4.547l-2.828-8l-0.828-3.969l-0.812,3.969l-2.797,8h-4.547L356.513,61.6
	l4.031-1.265l4.375,14.593l3.938-11.234H372.544z M344.966,81.975c-1.637,0-3.086-0.277-4.344-0.828
	c-1.262-0.562-2.312-1.328-3.156-2.297c-0.844-0.968-1.484-2.109-1.922-3.422c-0.438-1.312-0.656-2.734-0.656-4.265v-0.781
	c0.02-1.446,0.27-2.786,0.75-4.016c0.477-1.227,1.156-2.285,2.031-3.172c0.875-0.894,1.926-1.594,3.156-2.094
	c1.227-0.507,2.609-0.765,4.141-0.765c1.445,0,2.789,0.258,4.031,0.765c1.25,0.5,2.336,1.188,3.266,2.063
	c0.926,0.875,1.648,1.93,2.172,3.156c0.52,1.231,0.781,2.559,0.781,3.984v0.86c0,1.531-0.23,2.953-0.688,4.265
	c-0.449,1.313-1.109,2.454-1.984,3.422c-0.867,0.969-1.934,1.735-3.203,2.297C348.068,81.698,346.611,81.975,344.966,81.975z
	 M350.998,71.163v-0.828c0-1.801-0.48-3.258-1.438-4.375c-0.961-1.125-2.477-1.688-4.547-1.688c-2.086,0-3.59,0.563-4.516,1.688
	c-0.93,1.117-1.391,2.59-1.391,4.422v0.938c0,0.992,0.078,1.891,0.234,2.703c0.164,0.805,0.469,1.508,0.906,2.11
	c0.438,0.593,1.035,1.058,1.797,1.39c0.77,0.324,1.758,0.485,2.969,0.485c1.195,0,2.176-0.172,2.938-0.516
	c0.77-0.344,1.379-0.82,1.828-1.438c0.457-0.613,0.773-1.335,0.953-2.171C350.908,73.05,350.998,72.143,350.998,71.163z
	 M306.494,62.757c0.27-0.332,0.594-0.641,0.969-0.922c0.383-0.289,0.801-0.547,1.25-0.766c0.457-0.219,0.914-0.394,1.375-0.531
	c0.469-0.133,0.91-0.203,1.328-0.203c1.281,0,2.414,0.211,3.406,0.625c1,0.406,1.867,1.14,2.609,2.203
	c0.957-0.875,1.914-1.563,2.875-2.063c0.957-0.507,2.102-0.765,3.438-0.765c1.156,0,2.203,0.172,3.141,0.515
	c0.945,0.344,1.766,0.828,2.453,1.453c0.695,0.625,1.238,1.391,1.625,2.297c0.383,0.907,0.578,1.934,0.578,3.078v13.813h-4.469
	V68.085c0-1.207-0.258-2.145-0.766-2.813c-0.5-0.664-1.434-1-2.797-1c-0.875,0-1.641,0.196-2.297,0.578
	c-0.656,0.375-1.305,0.868-1.938,1.469v15.172h-4.469V67.632c0-1.176-0.309-2.032-0.922-2.562c-0.617-0.531-1.469-0.797-2.562-0.797
	c-0.898,0-1.773,0.18-2.625,0.531c-0.844,0.356-1.578,0.86-2.203,1.516v15.172h-4.469V65.913c0-0.738-0.055-1.391-0.156-1.953
	c-0.094-0.563-0.293-1.157-0.594-1.782l3.984-1.843c0.219,0.386,0.406,0.773,0.562,1.156c0.164,0.375,0.305,0.797,0.422,1.266
	H306.494z M288.845,60.335c1.145,0,2.242,0.168,3.297,0.5c1.051,0.324,1.977,0.808,2.781,1.453c0.812,0.637,1.457,1.422,1.938,2.359
	c0.477,0.93,0.719,1.992,0.719,3.188v8.937c0,0.93,0.086,1.742,0.266,2.438c0.176,0.699,0.484,1.461,0.922,2.281h-4.719
	c-0.219-0.301-0.387-0.68-0.5-1.141c-0.105-0.468-0.184-0.894-0.234-1.281c-1.117,0.824-2.273,1.516-3.469,2.078
	c-1.188,0.551-2.477,0.828-3.859,0.828c-0.938,0-1.84-0.152-2.703-0.453c-0.855-0.289-1.609-0.719-2.266-1.281
	c-0.656-0.563-1.184-1.227-1.578-2c-0.398-0.781-0.594-1.648-0.594-2.609c0-1.008,0.176-1.926,0.531-2.75
	c0.352-0.821,0.852-1.52,1.5-2.094c0.645-0.57,1.395-1.008,2.25-1.313c0.863-0.3,1.785-0.453,2.766-0.453h7.219v-0.484
	c0-1.508-0.367-2.586-1.094-3.235c-0.719-0.656-1.777-1-3.172-1.031c-1.25,0-2.352,0.133-3.297,0.391
	c-0.949,0.262-1.938,0.664-2.969,1.203l-1.938-3.313c1.344-0.769,2.656-1.332,3.938-1.687
	C285.869,60.514,287.291,60.335,288.845,60.335z M286.423,78.007c0.5,0,1.047-0.098,1.641-0.297
	c0.602-0.207,1.207-0.461,1.812-0.766c0.602-0.301,1.18-0.625,1.734-0.969c0.562-0.343,1.062-0.632,1.5-0.875v-2.14h-7.172
	c-0.875,0-1.543,0.234-2,0.703c-0.449,0.461-0.672,1.125-0.672,2c0,0.961,0.301,1.59,0.906,1.89
	C284.775,77.858,285.525,78.007,286.423,78.007z M270.248,62.913c0.52-0.813,1.125-1.442,1.812-1.891
	c0.688-0.457,1.535-0.687,2.547-0.687c1.062,0,2.191,0.304,3.391,0.906l-1.547,4.141c-0.688-0.414-1.359-0.625-2.016-0.625
	c-0.875,0-1.59,0.242-2.141,0.718c-0.543,0.481-0.965,1.086-1.266,1.813c-0.305,0.719-0.512,1.492-0.625,2.312
	c-0.105,0.825-0.156,1.563-0.156,2.219v9.672h-4.469V65.913c0-0.738-0.059-1.399-0.172-1.985c-0.105-0.593-0.305-1.175-0.594-1.75
	l4.016-1.843c0.219,0.406,0.414,0.824,0.594,1.25c0.176,0.429,0.305,0.871,0.391,1.328H270.248z M257.529,78.788
	c-0.762,0.762-1.57,1.402-2.422,1.922c-0.844,0.523-1.828,0.781-2.953,0.781c-2.812,0-4.961-0.797-6.438-2.391
	c-1.469-1.601-2.203-3.785-2.203-6.547v-2.125c0-3.445,0.89-5.988,2.672-7.625c1.789-1.644,4.394-2.468,7.812-2.468
	c1.312,0,2.672,0.121,4.078,0.359c1.414,0.231,2.723,0.602,3.922,1.109v18.954c0,1.332-0.246,2.562-0.734,3.688
	c-0.492,1.125-1.172,2.094-2.047,2.906c-0.875,0.821-1.902,1.457-3.078,1.907c-1.18,0.457-2.438,0.688-3.782,0.688
	c-1.5,0-2.921-0.183-4.265-0.547c-1.336-0.355-2.656-0.914-3.969-1.672l2.094-3.656c1.039,0.633,2.035,1.062,2.984,1.281
	c0.957,0.219,2.039,0.328,3.25,0.328c1.77,0,3.055-0.46,3.859-1.375c0.812-0.917,1.219-2.234,1.219-3.953V78.788z M252.154,77.507
	c1.156,0,2.16-0.312,3.016-0.938c0.863-0.625,1.648-1.398,2.359-2.328v-9.313c-0.625-0.218-1.195-0.375-1.703-0.468
	c-0.5-0.094-1.078-0.141-1.734-0.141c-1.156,0-2.125,0.109-2.906,0.328c-0.774,0.219-1.399,0.574-1.876,1.063
	c-0.48,0.492-0.824,1.125-1.031,1.906c-0.199,0.781-0.297,1.746-0.297,2.891v1.796c0,0.825,0.047,1.559,0.141,2.204
	c0.094,0.636,0.289,1.183,0.594,1.64c0.301,0.449,0.722,0.789,1.265,1.016C250.533,77.393,251.255,77.507,252.154,77.507z
	 M230.56,81.975c-1.636,0-3.085-0.277-4.343-0.828c-1.262-0.562-2.312-1.328-3.157-2.297c-0.843-0.968-1.484-2.109-1.921-3.422
	c-0.438-1.312-0.657-2.734-0.657-4.265v-0.781c0.02-1.446,0.27-2.786,0.75-4.016c0.477-1.227,1.157-2.285,2.032-3.172
	c0.875-0.894,1.925-1.594,3.156-2.094c1.226-0.507,2.609-0.765,4.14-0.765c1.446,0,2.79,0.258,4.032,0.765
	c1.25,0.5,2.336,1.188,3.265,2.063c0.926,0.875,1.649,1.93,2.172,3.156c0.52,1.231,0.781,2.559,0.781,3.984v0.86
	c0,1.531-0.23,2.953-0.687,4.265c-0.449,1.313-1.109,2.454-1.984,3.422c-0.868,0.969-1.934,1.735-3.203,2.297
	C233.662,81.698,232.205,81.975,230.56,81.975z M236.591,71.163v-0.828c0-1.801-0.481-3.258-1.438-4.375
	c-0.961-1.125-2.476-1.688-4.547-1.688c-2.086,0-3.589,0.563-4.515,1.688c-0.93,1.117-1.391,2.59-1.391,4.422v0.938
	c0,0.992,0.078,1.891,0.235,2.703c0.164,0.805,0.468,1.508,0.906,2.11c0.438,0.593,1.035,1.058,1.797,1.39
	c0.769,0.324,1.757,0.485,2.968,0.485c1.196,0,2.176-0.172,2.938-0.516c0.769-0.344,1.379-0.82,1.828-1.438
	c0.457-0.613,0.773-1.335,0.953-2.171C236.501,73.05,236.591,72.143,236.591,71.163z M211.51,62.913
	c0.519-0.813,1.125-1.442,1.812-1.891c0.688-0.457,1.535-0.687,2.547-0.687c1.063,0,2.191,0.304,3.391,0.906l-1.547,4.141
	c-0.688-0.414-1.36-0.625-2.016-0.625c-0.875,0-1.59,0.242-2.14,0.718c-0.543,0.481-0.965,1.086-1.266,1.813
	c-0.305,0.719-0.512,1.492-0.625,2.312c-0.106,0.825-0.156,1.563-0.156,2.219v9.672h-4.469V65.913c0-0.738-0.059-1.399-0.172-1.985
	c-0.105-0.593-0.305-1.175-0.594-1.75l4.016-1.843c0.219,0.406,0.414,0.824,0.594,1.25c0.175,0.429,0.304,0.871,0.39,1.328H211.51z
	 M194.38,64.272c-1.063,0-2.09,0.289-3.078,0.86c-0.981,0.574-1.797,1.273-2.453,2.093v7.547c0.351,0.406,0.765,0.805,1.234,1.188
	c0.469,0.375,0.957,0.715,1.469,1.015c0.519,0.305,1.062,0.555,1.625,0.75c0.562,0.188,1.129,0.282,1.703,0.282
	c0.926,0,1.695-0.141,2.312-0.422c0.614-0.289,1.098-0.68,1.453-1.172c0.352-0.5,0.598-1.086,0.735-1.766
	c0.144-0.687,0.219-1.426,0.219-2.219v-2.093c0-0.844-0.086-1.633-0.25-2.375c-0.168-0.739-0.461-1.379-0.875-1.922
	c-0.407-0.551-0.946-0.985-1.61-1.297C196.197,64.428,195.369,64.272,194.38,64.272z M194.475,60.335
	c1.531,0,2.89,0.242,4.078,0.718c1.187,0.481,2.187,1.149,3,2c0.82,0.844,1.445,1.868,1.875,3.063
	c0.425,1.199,0.64,2.512,0.64,3.937v2.625c0,1.532-0.218,2.883-0.656,4.047c-0.437,1.157-1.062,2.125-1.875,2.907
	c-0.805,0.773-1.773,1.355-2.906,1.75c-1.137,0.395-2.387,0.593-3.75,0.593c-1.063,0-2.141-0.273-3.235-0.812
	c-1.093-0.539-2.027-1.18-2.796-1.922v10.203h-4.469V65.913c0-0.738-0.063-1.379-0.188-1.922c-0.117-0.551-0.297-1.156-0.547-1.813
	l3.969-1.843c0.219,0.386,0.41,0.773,0.578,1.156c0.164,0.375,0.301,0.797,0.407,1.266h0.25c0.707-0.789,1.562-1.391,2.562-1.797
	C192.412,60.546,193.432,60.335,194.475,60.335z M167.274,56.803c-3,0-5.261,0.852-6.781,2.547c-1.523,1.7-2.281,3.981-2.281,6.844
	v0.953c0,1.5,0.148,2.899,0.453,4.188c0.301,1.281,0.805,2.398,1.516,3.343c0.718,0.938,1.64,1.672,2.765,2.204
	c1.133,0.531,2.551,0.796,4.25,0.796c1.75,0,3.203-0.25,4.36-0.75c1.164-0.507,2.097-1.226,2.796-2.156
	c0.696-0.937,1.196-2.051,1.5-3.344c0.301-1.3,0.454-2.726,0.454-4.281v-0.953c0-2.863-0.762-5.144-2.282-6.844
	C172.501,57.655,170.251,56.803,167.274,56.803z M167.274,81.975c-2.293,0-4.308-0.359-6.047-1.078
	c-1.73-0.726-3.171-1.742-4.328-3.047c-1.148-1.312-2.015-2.867-2.609-4.672c-0.586-1.812-0.875-3.796-0.875-5.953v-1.109
	c0-2,0.344-3.836,1.031-5.516c0.688-1.675,1.645-3.109,2.875-4.297c1.227-1.195,2.688-2.128,4.375-2.796
	c1.696-0.664,3.555-1,5.578-1c2.02,0,3.879,0.336,5.578,1c1.696,0.668,3.149,1.601,4.36,2.796c1.219,1.188,2.172,2.622,2.859,4.297
	c0.688,1.68,1.031,3.516,1.031,5.516v1.109c0,2.157-0.293,4.141-0.875,5.953c-0.574,1.805-1.445,3.36-2.609,4.672
	c-1.156,1.305-2.594,2.321-4.312,3.047C171.587,81.616,169.576,81.975,167.274,81.975z"/>
<ellipse fill="#333333" cx="56.349" cy="50.354" rx="48.273" ry="49.059"/>
<path fill="#262626" d="M56.35,1.284c-26.661,0-48.278,21.98-48.278,49.074c0,27.094,21.617,49.039,48.278,49.039V1.284z"/>
<path fill="#FFFFFF" d="M38.798,24.12c-12.317,0-22.293,10.141-22.293,22.656c0,0.559,0.004,1.094,0.035,1.594
	c0,0.023,0,0.047,0,0.07c-0.02,0.547-0.035,1.082-0.035,1.664c0,22.367,17.836,40.5,39.844,40.5c22.011,0,39.847-18.133,39.847-40.5
	c0-0.586-0.015-1.113-0.035-1.664c-0.004-0.023,0-0.047,0-0.07c0.031-0.5,0.035-1.031,0.035-1.594
	c0-12.515-9.976-22.656-22.293-22.656c-7.133,0-13.472,3.426-17.554,8.723C52.271,27.542,45.936,24.12,38.798,24.12z"/>
<path fill="#262626" d="M1.458,67.757c-1.258-0.864,4.937-3.23,6.68-20.079c6.117,4.141,7.171,12.321,9.019,17.614
	C15.873,66.003,7.587,71.776,1.458,67.757z"/>
<path fill="#333333" d="M111.231,67.757c1.262-0.864-4.933-3.23-6.679-20.079c-6.114,4.141-7.168,12.321-9.016,17.614
	C96.822,66.003,105.106,71.776,111.231,67.757z"/>
<path fill="#333333" d="M69.135,38.714c0.691-2.586,3.351-4.121,5.937-3.426c2.586,0.691,4.121,3.351,3.43,5.937
	c-0.695,2.586-3.352,4.121-5.942,3.426c-1.671-0.445-2.976-1.754-3.425-3.426l4.683-1.254L69.135,38.714z"/>
<path fill="#FAFAF5" d="M38.798,24.12c-12.317,0-22.293,10.141-22.293,22.656c0,0.559,0.004,1.094,0.035,1.594
	c0,0.023,0,0.047,0,0.07c-0.02,0.547-0.035,1.082-0.035,1.664c0,22.367,17.836,40.5,39.844,40.5V32.843
	C52.271,27.542,45.936,24.12,38.798,24.12z"/>
<path fill="#333333" d="M34.033,38.714c0.692-2.586,3.352-4.121,5.938-3.426c2.586,0.691,4.121,3.351,3.429,5.937
	c-0.695,2.586-3.351,4.121-5.937,3.426c-1.676-0.445-2.981-1.754-3.43-3.426l4.684-1.254L34.033,38.714z"/>
<path fill="#F09322" d="M66.885,51.96L56.35,61.534L45.813,51.96C45.813,51.96,56.33,47.909,66.885,51.96z"/>
<path fill="none" stroke="#F09322" stroke-width="2.6114" stroke-linecap="round" stroke-linejoin="round" d="M66.885,51.96
	L56.35,61.534L45.813,51.96C45.813,51.96,56.33,47.909,66.885,51.96z"/>
<path fill="#F4AD39" d="M56.294,48.831v13.953c0.336,0.019,0.644-0.106,0.898-0.324l10.606-9.551
	c0.676-0.594,0.433-1.887-0.406-2.203c-2.774-1.063-5.579-1.594-8.161-1.793C58.231,48.835,57.228,48.819,56.294,48.831z"/>
</svg>
