<?xml version="1.0" encoding="UTF-8" standalone="no"?>
<!-- Created with Inkscape (http://www.inkscape.org/) -->

<svg
   xmlns:dc="http://purl.org/dc/elements/1.1/"
   xmlns:cc="http://creativecommons.org/ns#"
   xmlns:rdf="http://www.w3.org/1999/02/22-rdf-syntax-ns#"
   xmlns:svg="http://www.w3.org/2000/svg"
   xmlns="http://www.w3.org/2000/svg"
   xmlns:sodipodi="http://sodipodi.sourceforge.net/DTD/sodipodi-0.dtd"
   xmlns:inkscape="http://www.inkscape.org/namespaces/inkscape"
   id="svg2985"
   version="1.1"
   inkscape:version="0.48.4 r9943 custom"
   width="1000"
   height="350"
   xml:space="preserve"
   sodipodi:docname="dwo_with_year_logo.svg"
   inkscape:export-filename="/Users/michalczyz/projects/mikstura.it/opensourcedays.mikstura.it/public/assets/layout/dwo_logo_white.png"
   inkscape:export-xdpi="14.039966"
   inkscape:export-ydpi="14.039966"><metadata
     id="metadata2991"><rdf:RDF><cc:Work
         rdf:about=""><dc:format>image/svg+xml</dc:format><dc:type
           rdf:resource="http://purl.org/dc/dcmitype/StillImage" /><dc:title></dc:title></cc:Work></rdf:RDF></metadata><defs
     id="defs2989"><clipPath
       clipPathUnits="userSpaceOnUse"
       id="clipPath2999"><path
         d="M 0,280 800,280 800,0 0,0 0,280 z"
         id="path3001" /></clipPath></defs><sodipodi:namedview
     pagecolor="#ffffff"
     bordercolor="#666666"
     borderopacity="1"
     objecttolerance="10"
     gridtolerance="10"
     guidetolerance="10"
     inkscape:pageopacity="0"
     inkscape:pageshadow="2"
     inkscape:window-width="1130"
     inkscape:window-height="595"
     id="namedview2987"
     showgrid="false"
     inkscape:zoom="0.72210938"
     inkscape:cx="500"
     inkscape:cy="175"
     inkscape:window-x="828"
     inkscape:window-y="290"
     inkscape:window-maximized="0"
     inkscape:current-layer="g2993" /><g
     id="g2993"
     inkscape:groupmode="layer"
     inkscape:label="open_source_days_logo"
     transform="matrix(1.25,0,0,-1.25,0,350)"><g
       id="g2995"><g
         id="g2997"
         clip-path="url(#clipPath2999)"><g
           id="g3003"
           transform="translate(52.7984,107.4587)"><path
             d="m 0,0 0.915,-2.347 c 14.236,-36.578 48.429,-60.119 87.115,-59.967 38.685,0.151 72.7,23.955 86.642,60.642 l 0.897,2.353 2.372,-0.846 c 3.282,-1.169 6.34,-1.756 9.084,-1.746 l 0.002,-10e-4 c 2.479,0.01 4.749,0.516 6.772,1.506 -0.057,0.078 -0.114,0.151 -0.167,0.223 -3.058,4.137 -10.214,13.827 -12.839,37.859 C 178.072,88.244 137.004,127.59 87.29,127.394 37.68,127.202 -3.078,87.625 -5.506,37.296 L -5.5,37.086 -5.514,36.953 C -7.946,12.897 -15.032,3.154 -18.056,-1.005 c -0.056,-0.076 -0.111,-0.151 -0.167,-0.229 4.233,-2.033 9.61,-1.91 15.86,0.37 L 0,0 z M 88.046,-67.458 C 48.023,-67.613 12.56,-43.763 -2.965,-6.48 c -7.649,-2.277 -14.311,-1.644 -19.643,1.828 -0.807,0.547 -1.307,1.305 -1.456,2.167 -0.279,1.585 0.613,2.809 1.847,4.502 2.775,3.818 9.264,12.748 11.573,35.32 l -0.003,0.074 c 2.562,53.198 45.571,94.924 97.918,95.13 52.458,0.203 95.788,-41.284 98.646,-94.448 2.463,-22.509 9.044,-31.415 11.85,-35.219 1.251,-1.685 2.15,-2.904 1.884,-4.491 -0.143,-0.859 -0.635,-1.624 -1.396,-2.147 -3.287,-2.177 -7.045,-3.276 -11.209,-3.294 -2.648,-0.01 -5.484,0.423 -8.459,1.284 -15.229,-37.403 -50.508,-61.528 -90.541,-61.684"
             style="fill:#262626;fill-opacity:1;fill-rule:nonzero;stroke:none"
             id="path3005" /></g><g
           id="g3007"
           transform="translate(236.3235,140.3716)"><path
             d="m 0,0 c 0.209,-53.807 -42.542,-97.591 -95.486,-97.796 -52.948,-0.206 -96.037,43.246 -96.246,97.053 -0.21,53.803 42.544,97.591 95.488,97.798 C -43.299,97.259 -0.21,53.805 0,0"
             style="fill:#333333;fill-opacity:1;fill-rule:nonzero;stroke:none"
             id="path3009" /></g><g
           id="g3011"
           transform="translate(140.0801,237.4486)"><path
             d="m 0,0 c -52.946,-0.205 -95.707,-44.023 -95.495,-97.828 0.21,-53.807 43.307,-97.22 96.25,-97.015 L 0,0 z"
             style="fill:#262626;fill-opacity:1;fill-rule:nonzero;stroke:none"
             id="path3013" /></g><g
           id="g3015"
           transform="translate(105.4024,191.9613)"><path
             d="m 0,0 c -24.461,-0.094 -44.194,-20.309 -44.099,-45.163 0.004,-1.109 0.016,-2.172 0.084,-3.164 -0.002,-0.047 -0.002,-0.094 0,-0.141 -0.033,-1.086 -0.061,-2.148 -0.06,-3.306 0.174,-44.416 35.734,-80.289 79.442,-80.119 43.713,0.169 78.993,36.316 78.82,80.737 -0.003,1.163 -0.04,2.211 -0.084,3.304 -0.007,0.048 0.001,0.091 0.001,0.139 0.057,0.992 0.063,2.045 0.058,3.163 C 114.065,-19.695 94.173,0.368 69.714,0.274 55.548,0.219 42.985,-6.635 34.92,-17.186 26.78,-6.69 14.171,0.057 0,0"
             style="fill:#ffffff;fill-opacity:1;fill-rule:nonzero;stroke:none"
             id="path3017" /></g><g
           id="g3019"
           transform="translate(31.5842,105.0158)"><path
             d="M 0,0 C -2.505,1.707 9.78,6.455 13.111,39.926 25.29,31.751 27.45,15.513 31.16,5.018 28.612,3.595 12.202,-7.935 0,0"
             style="fill:#262626;fill-opacity:1;fill-rule:nonzero;stroke:none"
             id="path3021" /></g><g
           id="g3023"
           transform="translate(249.5818,105.8643)"><path
             d="M 0,0 C 2.499,1.724 -9.823,6.376 -13.417,39.821 -25.525,31.551 -27.558,15.3 -31.188,4.774 -28.629,3.372 -12.133,-8.031 0,0"
             style="fill:#333333;fill-opacity:1;fill-rule:nonzero;stroke:none"
             id="path3025" /></g><g
           id="g3027"
           transform="translate(165.7576,163.2152)"><path
             d="m 0,0 c 1.354,5.14 6.625,8.209 11.766,6.849 5.141,-1.352 8.21,-6.624 6.856,-11.764 -1.361,-5.141 -6.625,-8.209 -11.771,-6.847 -3.326,0.867 -5.927,3.458 -6.83,6.775 L 9.314,-2.46 0,0 z"
             style="fill:#333333;fill-opacity:1;fill-rule:nonzero;stroke:none"
             id="path3029" /></g><g
           id="g3031"
           transform="translate(105.4024,191.9613)"><path
             d="m 0,0 c -24.461,-0.094 -44.194,-20.309 -44.099,-45.163 0.004,-1.109 0.016,-2.172 0.084,-3.164 -0.002,-0.047 -0.002,-0.094 0,-0.141 -0.033,-1.086 -0.061,-2.148 -0.06,-3.306 0.174,-44.416 35.734,-80.289 79.442,-80.119 L 34.92,-17.186 C 26.78,-6.69 14.171,0.057 0,0"
             style="fill:#f9faf5;fill-opacity:1;fill-rule:nonzero;stroke:none"
             id="path3033" /></g><g
           id="g3035"
           transform="translate(96.05,162.943)"><path
             d="m 0,0 c 1.354,5.14 6.623,8.21 11.765,6.851 5.14,-1.354 8.209,-6.624 6.86,-11.764 -1.363,-5.141 -6.626,-8.209 -11.771,-6.85 -3.327,0.87 -5.93,3.462 -6.835,6.779 L 9.312,-2.46 0,0 z"
             style="fill:#333333;fill-opacity:1;fill-rule:nonzero;stroke:none"
             id="path3037" /></g><g
           id="g3039"
           transform="translate(161.3902,136.8907)"><path
             d="m 0,0 -20.845,-19.095 -20.996,18.933 c 0,0 20.849,8.128 41.841,0.162"
             style="fill:#ef9222;fill-opacity:1;fill-rule:nonzero;stroke:none"
             id="path3041" /></g><g
           id="g3043"
           transform="translate(124.6694,135.6018)"><path
             d="M 0,0 15.862,-14.299 31.705,0.213 C 26.956,1.549 21.877,2.215 16.553,2.197 9.634,2.167 3.717,0.984 0,0 m 15.885,-20.394 c -0.626,-0.005 -1.249,0.215 -1.743,0.665 l -20.998,18.93 c -0.671,0.602 -0.978,1.509 -0.815,2.394 0.16,0.884 0.77,1.621 1.607,1.948 C -5.667,3.699 3.8,7.332 16.535,7.379 24.052,7.41 31.154,6.176 37.646,3.713 38.485,3.395 39.099,2.661 39.272,1.778 39.439,0.893 39.136,-0.015 38.475,-0.624 L 17.628,-19.715 c -0.496,-0.455 -1.116,-0.68 -1.743,-0.679"
             style="fill:#ef9222;fill-opacity:1;fill-rule:nonzero;stroke:none"
             id="path3045" /></g><g
           id="g3047"
           transform="translate(140.3382,143.0236)"><path
             d="m 0,0 0.107,-27.709 c 0.668,-0.035 1.281,0.216 1.782,0.651 l 20.988,19.05 c 1.336,1.186 0.846,3.75 -0.827,4.372 C 16.535,-1.548 10.961,-0.515 5.834,-0.139 3.848,0.008 1.853,0.032 0,0"
             style="fill:#f3ac39;fill-opacity:1;fill-rule:nonzero;stroke:none"
             id="path3049" /></g></g></g><text
       xml:space="preserve"
       style="font-size:32px;font-style:normal;font-weight:normal;line-height:125%;letter-spacing:0px;word-spacing:0px;fill:#ffffff;fill-opacity:1;stroke:none;font-family:Sans"
       x="274.01352"
       y="-98.600029"
       id="text3078"
       sodipodi:linespacing="125%"
       transform="scale(1,-1)"><tspan
         sodipodi:role="line"
         id="tspan3080"
         x="274.01352"
         y="-98.600029"
         style="font-size:128px;font-style:normal;font-variant:normal;font-weight:bold;font-stretch:normal;font-family:Myriad Hebrew;-inkscape-font-specification:Myriad Hebrew Bold;fill:#ffffff">DWO '15</tspan></text>
</g></svg>