<?xml version="1.0" encoding="utf-8"?>
<!-- Generator: Adobe Illustrator 13.0.0, SVG Export Plug-In . SVG Version: 6.00 Build 14948)  -->
<!DOCTYPE svg PUBLIC "-//W3C//DTD SVG 1.1//EN" "http://www.w3.org/Graphics/SVG/1.1/DTD/svg11.dtd">
<svg version="1.1" id="Layer_1" xmlns="http://www.w3.org/2000/svg" xmlns:xlink="http://www.w3.org/1999/xlink" x="0px" y="0px"
	 width="120px" height="120px" viewBox="0 0 120 120" enable-background="new 0 0 120 120" xml:space="preserve">
<path fill="none" stroke="#262626" stroke-width="2.5906" d="M60.352,10.84c-25.793,0-46.848,20.547-48.196,46.415
	c0,0.039,0,0.074,0,0.109c-1.761,16.742-7.949,19.104-6.691,19.969c3.16,2.074,6.875,1.531,9.93,0.433
	c7.027,18.267,24.492,31.192,44.957,31.192c20.464,0,37.933-12.926,44.957-31.192c3.055,1.099,6.77,1.642,9.93-0.433
	c1.258-0.864-4.93-3.227-6.691-19.969C107.254,31.442,86.18,10.84,60.352,10.84z"/>
<path fill="#333333" d="M108.625,59.899c0,27.098-21.613,49.059-48.273,49.059c-26.661,0-48.274-21.961-48.274-49.059
	c0-27.093,21.613-49.058,48.274-49.058C87.012,10.841,108.625,32.806,108.625,59.899z"/>
<path fill="#262626" d="M60.352,10.833c-26.661,0-48.278,21.98-48.278,49.074c0,27.094,21.617,49.038,48.278,49.038V10.833z"/>
<path fill="#FFFFFF" d="M42.801,33.669c-12.317,0-22.293,10.14-22.293,22.656c0,0.559,0.004,1.094,0.035,1.59
	c0,0.027,0,0.051,0,0.074c-0.02,0.547-0.035,1.082-0.035,1.664c0,22.367,17.836,40.496,39.844,40.496
	c22.011,0,39.847-18.129,39.847-40.496c0-0.59-0.016-1.113-0.035-1.664c-0.004-0.027,0-0.047,0-0.074
	c0.031-0.496,0.035-1.031,0.035-1.59c0-12.516-9.977-22.656-22.293-22.656c-7.133,0-13.473,3.426-17.554,8.722
	C56.273,37.087,49.938,33.669,42.801,33.669z"/>
<path fill="#262626" d="M5.461,77.307c-1.258-0.869,4.937-3.236,6.68-20.08c6.117,4.137,7.171,12.321,9.019,17.614
	C19.875,75.548,11.59,81.325,5.461,77.307z"/>
<path fill="#333333" d="M115.234,77.307c1.262-0.869-4.934-3.236-6.68-20.08c-6.113,4.137-7.168,12.321-9.016,17.614
	C100.824,75.548,109.109,81.325,115.234,77.307z"/>
<path fill="#333333" d="M73.137,48.263c0.691-2.586,3.352-4.122,5.938-3.43c2.586,0.695,4.121,3.351,3.43,5.937
	c-0.695,2.59-3.352,4.125-5.941,3.43c-1.672-0.449-2.977-1.754-3.426-3.43l4.684-1.254L73.137,48.263z"/>
<path fill="#FAFAF5" d="M42.801,33.669c-12.317,0-22.293,10.14-22.293,22.656c0,0.559,0.004,1.094,0.035,1.59
	c0,0.027,0,0.051,0,0.074c-0.02,0.547-0.035,1.082-0.035,1.664c0,22.367,17.836,40.496,39.844,40.496V42.391
	C56.273,37.087,49.938,33.669,42.801,33.669z"/>
<path fill="#333333" d="M38.035,48.263c0.692-2.586,3.352-4.122,5.938-3.43c2.586,0.695,4.121,3.351,3.429,5.937
	c-0.695,2.59-3.351,4.125-5.937,3.43c-1.676-0.449-2.981-1.754-3.43-3.43l4.684-1.254L38.035,48.263z"/>
<path fill="#F09322" d="M70.887,61.508l-10.535,9.571l-10.536-9.571C49.816,61.508,60.332,57.458,70.887,61.508z"/>
<path fill="none" stroke="#F09322" stroke-width="2.6114" stroke-linecap="round" stroke-linejoin="round" d="M70.887,61.508
	l-10.535,9.571l-10.536-9.571C49.816,61.508,60.332,57.458,70.887,61.508z"/>
<path fill="#F4AD39" d="M60.297,58.38v13.953c0.336,0.019,0.645-0.106,0.898-0.328l10.605-9.547
	c0.676-0.594,0.434-1.892-0.406-2.203c-2.773-1.067-5.578-1.594-8.16-1.797C62.234,58.384,61.23,58.368,60.297,58.38z"/>
</svg>
